<?xml version="1.0" encoding="UTF-8"?>
<!DOCTYPE svg PUBLIC "-//W3C//DTD SVG 1.1//EN" "http://www.w3.org/Graphics/SVG/1.1/DTD/svg11.dtd">
<!-- Creator: CorelDRAW 2021.5 -->
<svg xmlns="http://www.w3.org/2000/svg" xml:space="preserve" width="81.6216mm" height="31.2395mm" version="1.1" style="shape-rendering:geometricPrecision; text-rendering:geometricPrecision; image-rendering:optimizeQuality; fill-rule:evenodd; clip-rule:evenodd"
viewBox="0 0 2716.47 1039.69"
 xmlns:xlink="http://www.w3.org/1999/xlink"
 xmlns:xodm="http://www.corel.com/coreldraw/odm/2003">
 <defs>
  <style type="text/css">
   <![CDATA[
    .fil1 {fill:#FEFEFE}
    .fil0 {fill:#FEFEFE;fill-rule:nonzero}
   ]]>
  </style>
 </defs>
 <g id="Layer_x0020_1">
  <metadata id="CorelCorpID_0Corel-Layer"/>
  <g id="_2018840169248">
   <g>
    <path class="fil0" d="M256.89 576.24c-28.38,0 -51.38,23 -51.38,51.38l0 198.5 102.75 0 0 -198.5c0,-28.37 -23,-51.38 -51.38,-51.38l0.02 0z"/>
   </g>
   <path class="fil0" d="M616.41 0.02l-188.61 0c106.98,8.48 191.11,98.05 191.11,207.21 0,114.79 -93.04,207.84 -207.89,207.84l0 -415.04 -0.01 0 0 826.1 206.87 0 0 -147.12c0,-56.75 46,-102.75 102.75,-102.75 56.75,0 102.75,46 102.75,102.75l0 147.12 206.87 0 0 -412.24c0,-228.56 -185.28,-413.84 -413.84,-413.84l0 -0.02z"/>
   <g>
    <g>
     <path class="fil0" d="M411.04 0.02c-227.01,0 -411.04,184.03 -411.04,411.03l0 415.06 102.77 0 0 -202.49c0,-115.17 93.38,-208.55 208.55,-208.55l99.72 0 0 -415.06 -0 0.02zm-205.51 280.38l0 0c0,-28.37 23,-51.38 51.38,-51.38 28.37,0 51.38,23 51.38,51.38l-102.75 0 -0.02 0z"/>
    </g>
   </g>
   <g>
    <g>
     <g>
      <path class="fil0" d="M1322.58 224.35c33.59,0 59.99,10.19 79.24,30.57 19.23,20.39 28.86,48.18 28.86,83.41l0 14.67 -155.06 0c3.58,34.24 25.44,51.37 65.55,51.37 26.73,0 53,-8.48 78.75,-25.44l0 52.35c-23.81,15.66 -52.33,23.48 -85.61,23.48 -40.11,0 -70.93,-10.76 -92.46,-32.29 -21.2,-21.85 -31.8,-49.56 -31.8,-83.17 0,-32.61 10.43,-59.85 31.31,-81.7 21.2,-22.18 48.26,-33.26 81.21,-33.26l0.01 0.01zm2.44 47.46l0 0c-11.74,0 -21.86,3.67 -30.33,11.02 -8.48,7.33 -14.18,17.05 -17.11,29.11l92.46 0c-5.87,-26.73 -20.88,-40.11 -45,-40.11l-0.01 -0.02z"/>
      <polygon class="fil0" points="1627.83,449.37 1574.01,347.14 1520.19,449.37 1452.2,449.37 1515.31,337.34 1455.62,231.68 1523.13,231.68 1574.01,327.56 1624.88,231.68 1692.4,231.68 1632.7,337.34 1695.81,449.37 "/>
      <path class="fil0" d="M1790.71 431.27l-0.98 0.49 0 123.28 -65.07 0 0 -323.85 51.37 0 7.83 29.35 1.95 0c8.48,-11.08 19.49,-19.72 33.02,-25.93 13.54,-6.19 27.64,-9.29 42.31,-9.29 34.24,0 61.15,10.27 80.71,30.82 19.57,20.55 29.35,47.77 29.35,81.7 0,34.57 -10.45,62.46 -31.31,83.66 -20.53,21.53 -47.12,32.29 -79.73,32.29 -28.7,0 -51.54,-7.66 -68.48,-23l-0.98 0.49 0.02 0zm59.68 -28.85l0 0c16.95,0 30.49,-5.87 40.6,-17.6 10.1,-11.74 15.16,-26.73 15.16,-45 0,-18.9 -4.97,-33.91 -14.91,-45 -9.96,-11.08 -23.73,-16.64 -41.35,-16.64 -16.3,0 -29.85,6.03 -40.6,18.11 -10.76,12.06 -16.14,26.91 -16.14,44.51 0,17.94 5.21,32.69 15.66,44.27 10.43,11.59 24.28,17.37 41.58,17.37l-0 -0.02z"/>
      <path class="fil0" d="M2127.77 224.82c36.85,0 66.2,10.94 88.06,32.78 22.18,21.53 33.26,48.91 33.26,82.18 0,33.26 -11.26,60.66 -33.76,82.18 -22.49,21.53 -51.68,32.29 -87.57,32.29 -37.5,0 -67.34,-10.59 -89.52,-31.8 -21.86,-21.53 -32.78,-49.09 -32.78,-82.68 0,-32.94 11.41,-60.33 34.24,-82.18 22.83,-21.85 52.17,-32.78 88.06,-32.78l0.02 0zm0.49 52.84l0 0c-16.64,0 -30.25,5.79 -40.84,17.37 -10.61,11.57 -15.89,26.17 -15.89,43.78 0,18.92 5.15,34.08 15.42,45.49 10.26,11.41 24.05,17.13 41.33,17.13 17.29,0 31.15,-5.87 41.58,-17.62 10.43,-11.74 15.66,-26.73 15.66,-45 0,-17.62 -5.3,-32.21 -15.89,-43.78 -10.61,-11.57 -24.39,-17.37 -41.35,-17.37l-0.02 0z"/>
     </g>
    </g>
    <g>
     <path class="fil0" d="M1244.25 511.15l0 153.01 1.39 0c17.57,-23.41 42.82,-35.13 75.81,-35.13 30.5,0 55.31,10.18 74.43,30.5 19.11,20.66 28.65,46.54 28.65,77.66 0,30.5 -10.02,56.24 -30.04,77.2 -19.72,20.64 -45.3,30.98 -76.73,30.98 -16.33,0 -31.44,-3.17 -45.3,-9.48 -13.86,-6.32 -24.03,-15.34 -30.5,-27.05l-1.38 0 -6.47 30.98 -24.03 0 0 -328.65 34.21 0 -0.04 -0.02zm0.93 226.5l0 0c0,23.43 6.54,42.3 19.64,56.62 13.09,14.32 30.28,21.5 51.54,21.5 22.19,0 39.9,-7.55 53.15,-22.65 13.55,-15.4 20.34,-33.89 20.34,-55.47 0,-21.88 -6.78,-40.52 -20.34,-55.93 -13.25,-15.09 -30.82,-22.65 -52.7,-22.65 -21.58,0 -38.99,7.55 -52.24,22.65 -12.95,15.42 -19.41,34.05 -19.41,55.93l0.01 0z"/>
     <path class="fil0" d="M1619.12 839.8l-4.62 -27.27 -0.92 0c-16.64,21.26 -41.92,31.9 -75.81,31.9 -25.28,0 -43.77,-6.01 -55.47,-18.03 -11.4,-12.31 -17.1,-26.04 -17.1,-41.13 0,-22.49 8.09,-39.98 24.27,-52.47 16.18,-12.47 39.83,-18.73 70.95,-18.73l48.99 0 0 -6.93c0,-33.57 -18.8,-50.38 -56.39,-50.38 -20.96,0 -42.99,6.47 -66.1,19.41l0 -29.58c20.94,-11.7 44.53,-17.57 70.73,-17.57 29.89,0 51.76,6.87 65.63,20.56 13.86,13.73 20.8,34.29 20.8,61.7l0 128.5 -24.96 0 0.01 0.03zm-119.26 -58.24l0 0c0,11.4 4.54,20.34 13.63,26.8 9.09,6.47 20.72,9.7 34.91,9.7 18.79,0 33.67,-6.16 44.61,-18.49 10.94,-12.33 16.41,-27.57 16.41,-45.76l0 -14.32 -48.99 0c-40.38,0 -60.55,14.02 -60.55,42.07l-0.01 -0z"/>
     <polygon class="fil0" points="1698.16,634.09 1858.1,634.09 1858.1,639.19 1736.07,812.52 1855.79,812.52 1855.79,839.8 1683.37,839.8 1683.37,834.7 1806.79,661.83 1698.16,661.83 "/>
     <path class="fil0" d="M2042.97 839.8l-4.62 -27.27 -0.92 0c-16.65,21.26 -41.92,31.9 -75.81,31.9 -25.28,0 -43.77,-6.01 -55.47,-18.03 -11.4,-12.31 -17.1,-26.04 -17.1,-41.13 0,-22.49 8.09,-39.98 24.27,-52.47 16.18,-12.47 39.83,-18.73 70.95,-18.73l48.99 0 0 -6.93c0,-33.57 -18.8,-50.38 -56.39,-50.38 -20.96,0 -42.99,6.47 -66.09,19.41l0 -29.58c20.94,-11.7 44.53,-17.57 70.71,-17.57 29.89,0 51.76,6.87 65.64,20.56 13.86,13.73 20.8,34.29 20.8,61.7l0 128.5 -24.96 0 -0.01 0.03zm-119.26 -58.24l0 0c0,11.4 4.54,20.34 13.65,26.8 9.09,6.47 20.72,9.7 34.89,9.7 18.79,0 33.67,-6.16 44.61,-18.49 10.94,-12.33 16.41,-27.57 16.41,-45.76l0 -14.32 -48.99 0c-40.38,0 -60.55,14.02 -60.55,42.07l-0.01 -0z"/>
     <path class="fil0" d="M2274.55 839.8l-4.62 -27.27 -0.92 0c-16.64,21.26 -41.92,31.9 -75.81,31.9 -25.28,0 -43.77,-6.01 -55.47,-18.03 -11.4,-12.31 -17.1,-26.04 -17.1,-41.13 0,-22.49 8.09,-39.98 24.27,-52.47 16.18,-12.47 39.83,-18.73 70.95,-18.73l48.99 0 0 -6.93c0,-33.57 -18.8,-50.38 -56.39,-50.38 -20.96,0 -42.99,6.47 -66.1,19.41l0 -29.58c20.94,-11.7 44.53,-17.57 70.73,-17.57 29.89,0 51.76,6.87 65.63,20.56 13.86,13.73 20.8,34.29 20.8,61.7l0 128.5 -24.96 0 0.01 0.03zm-119.24 -58.24l0 0c0,11.4 4.54,20.34 13.63,26.8 9.09,6.47 20.72,9.7 34.91,9.7 18.79,0 33.67,-6.16 44.61,-18.49 10.94,-12.33 16.41,-27.57 16.41,-45.76l0 -14.32 -48.99 0c-40.38,0 -60.55,14.02 -60.55,42.07l-0.01 -0z"/>
     <path class="fil0" d="M2458.52 661.37c-17.57,0 -31.82,7.47 -42.76,22.41 -10.95,14.94 -16.41,34.13 -16.41,57.54l0 98.46 -34.67 0 0 -205.23 24.49 0 6.01 36.04c0.3,0.32 0.76,0.46 1.39,0.46 13.86,-27.73 36.2,-41.6 67.02,-41.6 6.78,0 12.49,0.78 17.11,2.31l0 32.82c-6.47,-2.15 -13.86,-3.23 -22.19,-3.23l-0 0.01z"/>
    </g>
   </g>
   <g>
    <g>
     <g>
      <g>
       <polygon class="fil0" points="25.06,926.61 25.06,1037.65 -0,1037.65 -0,926.61 "/>
      </g>
     </g>
     <g>
      <g>
       <path class="fil0" d="M121.46 990.03l0 47.62 -22.71 0 0 -42.9c0,-4.72 -1.15,-8.55 -3.45,-11.53 -2.3,-2.98 -5.3,-4.46 -9.01,-4.46 -4.94,0 -8.91,1.77 -11.95,5.3 -3.02,3.53 -4.54,8.55 -4.54,15.05l0 38.53 -22.71 0 0 -74.86 17.67 0c0.44,1.23 0.95,3.2 1.52,5.89 0.55,2.58 0.89,4.04 1,4.37l0.67 0c6.62,-8.07 15.53,-12.11 26.75,-12.11 8.63,0 15.26,2.55 19.85,7.66 4.59,5.11 6.9,12.25 6.9,21.45l0.03 -0.02z"/>
      </g>
     </g>
     <g>
      <g>
       <path class="fil0" d="M198.01 968.33l0.84 -0.51 0 -24.74c0.11,-7.39 0.17,-15.7 0.17,-24.9l21.88 0 0 59.72c0.11,17.6 0.17,37.51 0.17,59.72l-17.16 0 -3.02 -8.75c-2.91,3.48 -6.82,6.11 -11.7,7.91 -4.88,1.79 -9.89,2.69 -15.05,2.69 -11.56,0 -20.64,-3.48 -27.26,-10.43 -6.62,-7.17 -9.92,-16.43 -9.92,-27.76 0,-12 3.59,-21.77 10.76,-29.27 7.3,-7.63 16.43,-11.45 27.42,-11.45 9.42,0 17.05,2.58 22.87,7.74l0 0.01zm-19.68 10.27l0 0c-5.6,0 -10.21,2.07 -13.79,6.22 -3.59,4.15 -5.38,9.31 -5.38,15.48 0,6.4 1.74,11.53 5.21,15.4 3.48,3.86 8.25,5.81 14.29,5.81 5.6,0 10.26,-2.07 13.96,-6.22 3.7,-4.15 5.55,-9.25 5.55,-15.31 0,-6.16 -1.8,-11.27 -5.38,-15.31 -3.59,-4.04 -8.41,-6.05 -14.47,-6.05l0 -0.04z"/>
      </g>
     </g>
     <g>
      <g>
       <path class="fil0" d="M261.09 946.63c-2.36,2.47 -5.33,3.7 -8.91,3.7 -3.59,0 -6.59,-1.23 -9.01,-3.7 -2.41,-2.47 -3.61,-5.44 -3.61,-8.91 0,-3.37 1.25,-6.28 3.78,-8.75 2.52,-2.47 5.46,-3.7 8.83,-3.7 3.59,0 6.55,1.2 8.91,3.61 2.36,2.42 3.53,5.36 3.53,8.83 0,3.48 -1.17,6.44 -3.53,8.91l-0 0.02zm2.19 15.99l0 0 0 75.03 -23.05 0 0 -75.03 23.05 0z"/>
      </g>
     </g>
     <g>
      <g>
       <path class="fil0" d="M332.92 1037.65l-1.68 -8.75 -0.51 0c-5.95,7.06 -14.75,10.59 -26.42,10.59 -7.85,0 -13.93,-1.99 -18.25,-5.97 -4.32,-3.97 -6.47,-9.12 -6.47,-15.39 0,-7.96 2.99,-14.32 9.01,-19.09 6,-4.77 14.66,-7.16 25.99,-7.16l14.64 0 0 -1.52c0,-9.09 -5.73,-13.63 -17.16,-13.63 -7.52,0 -15.26,2.14 -23.22,6.4l0 -16.98c8.29,-3.81 17.89,-5.71 28.78,-5.71 22.76,0 34.16,10.76 34.16,32.29l0 44.92 -18.85 0 -0.02 -0zm-31.45 -22.89l0 0c0,2.93 1.09,5.19 3.28,6.82 2.18,1.63 5.02,2.44 8.5,2.44 4.94,0 8.83,-1.53 11.68,-4.62 2.87,-3.07 4.29,-7.03 4.29,-11.85l0 -2.87 -11.78 0c-10.65,0 -15.99,3.37 -15.99,10.1l0.02 -0.01z"/>
      </g>
     </g>
     <g>
      <g>
       <path class="fil0" d="M393.49 1027.37c0,3.14 -1.17,5.92 -3.53,8.33 -2.36,2.41 -5.11,3.62 -8.25,3.62 -3.37,0 -6.22,-1.19 -8.58,-3.53 -2.36,-2.36 -3.53,-5.16 -3.53,-8.41 0,-3.48 1.17,-6.4 3.53,-8.75 2.36,-2.36 5.21,-3.53 8.58,-3.53 3.24,0 6.03,1.17 8.33,3.53 2.3,2.36 3.45,5.27 3.45,8.75l0 -0.01z"/>
      </g>
     </g>
     <g>
      <g>
       <path class="fil0" d="M541.54 1019.14l0 12.46c-8.53,5.16 -19.41,7.74 -32.64,7.74 -17.95,0 -31.96,-5.27 -42.06,-15.81 -10.1,-10.54 -15.13,-24.17 -15.13,-40.87 0,-16.49 5.49,-30.35 16.48,-41.55 10.88,-11.1 24.68,-16.65 41.4,-16.65 12,0 21.24,1.68 27.75,5.05l0 12.44c-8.07,-3.93 -16.83,-5.89 -26.25,-5.89 -12.9,0 -23.71,4.21 -32.47,12.62 -8.64,8.41 -12.95,19.74 -12.95,33.99 0,13.69 3.93,24.61 11.78,32.8 7.85,8.18 18.79,12.28 32.82,12.28 10.65,0 21.08,-2.87 31.29,-8.58l-0.02 -0.02z"/>
      </g>
     </g>
     <g>
      <g>
       <path class="fil0" d="M557.86 1008.03l0 -45.42 12.62 0 0 44.08c0,6.84 1.57,12.19 4.72,16.07 3.14,3.88 7.45,5.79 12.95,5.79 7.06,0 12.54,-2.34 16.4,-7.06 3.88,-4.72 5.79,-11.78 5.79,-21.2l0 -37.51 12.62 0 0 74.86 -8.58 0 -2.69 -10.26 -0.67 0c-6.17,7.85 -14.25,11.78 -24.22,11.78 -19.3,0 -28.93,-10.37 -28.93,-31.12l0 -0.02z"/>
      </g>
     </g>
     <g>
      <g>
       <path class="fil0" d="M680.66 972.7c-6.4,0 -11.59,2.72 -15.56,8.15 -3.99,5.44 -5.97,12.43 -5.97,20.94l0 35.84 -12.62 0 0 -74.7 8.91 0 2.18 13.12c0.11,0.11 0.27,0.17 0.51,0.17 5.05,-10.1 13.17,-15.13 24.39,-15.13 2.47,0 4.54,0.29 6.22,0.84l0 11.93c-2.36,-0.78 -5.05,-1.17 -8.07,-1.17l0 0z"/>
      </g>
     </g>
     <g>
      <g>
       <path class="fil0" d="M746.27 1037.65l-1.68 -9.92 -0.33 0c-6.05,7.74 -15.26,11.6 -27.59,11.6 -9.2,0 -15.93,-2.2 -20.18,-6.57 -4.15,-4.48 -6.22,-9.48 -6.22,-14.97 0,-8.18 2.95,-14.55 8.83,-19.09 5.89,-4.54 14.5,-6.81 25.83,-6.81l17.84 0 0 -2.52c0,-12.22 -6.84,-18.33 -20.51,-18.33 -7.63,0 -15.64,2.36 -24.06,7.06l0 -10.76c7.63,-4.26 16.21,-6.4 25.74,-6.4 10.88,0 18.84,2.5 23.89,7.49 5.05,4.99 7.58,12.47 7.58,22.46l0 46.78 -9.09 0 -0.05 -0.02zm-43.41 -21.2l0 0c0,4.15 1.65,7.41 4.96,9.77 3.31,2.34 7.53,3.53 12.71,3.53 6.84,0 12.25,-2.25 16.24,-6.73 3.97,-4.48 5.97,-10.03 5.97,-16.65l0 -5.21 -17.84 0c-14.69,0 -22.04,5.11 -22.04,15.31l0 -0.02z"/>
      </g>
     </g>
     <g>
      <g>
       <path class="fil0" d="M792.88 939.73l3.35 0 0 23.05 21.04 0 0 10.1 -21.04 0 0 41.72c0,4.61 0.81,8.01 2.44,10.26 1.63,2.25 4.4,3.37 8.33,3.37 4.72,0 9.31,-1.52 13.8,-4.54l0 10.61c-4.61,3.24 -9.99,4.88 -16.16,4.88 -9.31,0 -15.26,-2.87 -17.83,-8.58 -2.25,-5.05 -3.37,-12.28 -3.37,-21.7l0 -36 -12.28 0 0 -7.74 12.95 -3.04c0.67,-1.79 2.14,-5.43 4.37,-10.92 2.25,-5.6 3.7,-9.42 4.37,-11.45l0.03 -0.01z"/>
      </g>
     </g>
     <g>
      <g>
       <path class="fil0" d="M867.91 960.92c10.65,0 19.12,3.64 25.41,10.94 6.28,7.3 9.42,16.43 9.42,27.42 0,1.8 -0.06,2.91 -0.17,3.37l-58.55 0c0.22,8.31 2.91,14.8 8.07,19.52 5.16,4.72 11.49,7.08 19.01,7.08 10.54,0 19.96,-3.14 28.27,-9.42l0 11.27c-7.52,5.49 -17,8.25 -28.43,8.25 -12.44,0 -22.26,-3.59 -29.44,-10.78 -7.06,-7.17 -10.61,-16.7 -10.61,-28.61 0,-10.88 3.48,-20.14 10.43,-27.76 7.06,-7.52 15.93,-11.27 26.58,-11.27l0.01 0zm0.33 10.26l0 0c-6.4,0 -11.78,2.04 -16.14,6.14 -4.37,4.1 -7.01,9.5 -7.91,16.24l46.6 0c-0.9,-6.95 -3.34,-12.43 -7.31,-16.4 -3.99,-3.97 -9.06,-5.97 -15.23,-5.97l0 -0.02z"/>
      </g>
     </g>
     <g>
      <g>
       <path class="fil0" d="M983.15 971.7l0.84 -0.33 0 -53.15 12.46 0 0 119.45 -9.25 0 -2.03 -10.61 -0.84 -0.33c-2.91,4.15 -6.93,7.35 -12.03,9.59 -5.11,2.23 -10.57,3.37 -16.4,3.37 -11.21,0 -20.31,-3.48 -27.26,-10.43 -6.95,-6.95 -10.43,-16.26 -10.43,-27.92 0,-11.45 3.53,-20.97 10.61,-28.61 7.06,-7.74 16.14,-11.6 27.26,-11.6 11.32,0 20.36,3.53 27.08,10.59l-0.02 -0.02zm0.68 28.61l0 0c0,-8.18 -2.41,-14.91 -7.24,-20.18 -4.81,-5.49 -11.38,-8.25 -19.68,-8.25 -7.74,0 -14.07,2.8 -19.01,8.41 -4.83,5.49 -7.24,12.28 -7.24,20.36 0,8.42 2.41,15.23 7.24,20.43 4.81,5.21 11.27,7.82 19.34,7.82 7.63,0 13.96,-2.74 19.01,-8.25 5.05,-5.49 7.56,-12.28 7.56,-20.36l0 0.01z"/>
      </g>
     </g>
     <g>
      <g>
       <path class="fil0" d="M1021.5 1021.5c2.47,0 4.54,0.84 6.22,2.52 1.68,1.68 2.52,3.77 2.52,6.22 0,2.47 -0.87,4.54 -2.61,6.22 -1.74,1.68 -3.78,2.52 -6.14,2.52 -2.36,0 -4.37,-0.84 -6.05,-2.52 -1.68,-1.68 -2.53,-3.75 -2.53,-6.22 0,-2.47 0.84,-4.54 2.53,-6.22 1.68,-1.68 3.7,-2.52 6.05,-2.52l0.02 0z"/>
      </g>
     </g>
    </g>
   </g>
   <path class="fil1" d="M2656.5 805.12l-0.63 0c-0.18,-0.44 0,-0.18 -0.48,-0.31 -0.27,-0.07 -0.31,-0.02 -0.67,-0.12l-0.83 -0.28c-2.01,-0.67 -4.08,-0.98 -6.1,-1.61l-6.1 -1.15c-1.25,-0.09 0,-0.28 -1.41,-0.32l-1.65 -0.24c-0.22,-0.06 -0.14,-0.05 -0.4,-0.07 -0.78,-0.07 -1.71,0.14 -2.42,-0.1 -0.44,-0.15 0.31,-0.07 -0.59,-0.2l-6.46 -0.02c-1.15,0.1 -0.54,0.31 -2.21,0.31 -0.32,0 -0.42,-0.01 -0.71,0.08l-1.31 0.26c-0.89,0.12 -0.14,0.01 -0.61,0.18 -0.17,0.06 -0.37,0.12 -0.59,0.2l-4.41 2.05 -2.17 3.19c-0.01,0.04 -0.03,0.08 -0.04,0.12 -0.01,0.04 -0.03,0.08 -0.04,0.12 -0.01,0.04 -0.03,0.07 -0.05,0.11 -0.01,0.04 -0.03,0.07 -0.04,0.11 -0.15,0.48 -0.03,0.95 -0.14,1.44 -0.1,0.5 -0.37,0.58 -0.18,1.17 0.14,0.44 0.08,-0.32 0.21,0.61 0.1,0.73 0.03,1 0.25,1.64l0.65 1.56c0.02,0.04 0.08,0.17 0.11,0.21 0.14,0.24 0.01,0.06 0.19,0.29 0.27,0.33 0.12,0.13 0.39,0.4 0.53,0.51 1.05,1.22 1.68,1.62l4.1 1.89c0.04,0.01 0.08,0.03 0.12,0.04l2.78 0.69c0.25,0.03 0.53,-0.01 0.78,0.01 0.93,0.07 0.4,0.09 0.74,0.2 0.9,0.3 2.17,-0.1 3.14,0.18 0.04,0.01 0.08,0.03 0.11,0.04 0.04,0.01 0.07,0.04 0.11,0.05 0.14,0.05 -0.13,0.02 0.35,0.13 0.78,0.17 5.02,0.09 5.65,0.04 0.97,-0.09 0.26,-0.33 2.83,-0.32 0.39,0 1.2,0.04 1.54,-0.03 0.53,-0.11 0.87,-0.29 1.45,-0.28l1.21 -0.21c0.56,-0.19 1.06,-0.04 1.62,-0.12 1.04,-0.14 -0.12,-0.25 1.26,-0.31 0.99,-0.04 1.22,-0.19 2.19,-0.33l3.97 -0.92c0.72,-0.15 0.39,0.26 0.62,-0.33l0.95 0c0.36,0.98 2.6,2.47 3.3,3.48l0.12 0.2c0.43,0.74 1.07,1.17 1.63,1.83l1.62 2.16c0.02,0.03 0.04,0.07 0.06,0.1l0.2 0.27c0.28,0.31 0.07,-0.01 0.4,0.39l2.07 3.13c0.02,0.03 0.04,0.07 0.06,0.1 0.02,0.03 0.04,0.07 0.05,0.1l0.97 1.4c0.15,0.21 0.11,0.13 0.25,0.38 0.02,0.04 0.08,0.17 0.1,0.21l0.73 1.16c0.02,0.03 0.04,0.07 0.06,0.1 0.02,0.04 0.09,0.17 0.11,0.21l0.96 1.72c0.16,0.21 0.11,0.13 0.25,0.38l0.31 0.64c0.02,0.03 0.04,0.07 0.05,0.11l0.53 1.05c0.06,0.13 0.04,0.08 0.1,0.21l0.21 0.42c0.02,0.04 0.08,0.17 0.1,0.21l1.32 2.62c0.02,0.04 0.08,0.17 0.09,0.22 0.01,0.04 0.03,0.08 0.04,0.12 0.01,0.04 0.02,0.08 0.04,0.12 0,0 0.07,0.25 0.07,0.25 0.01,0.04 0.02,0.08 0.04,0.12 0.01,0.04 0.03,0.08 0.04,0.12l2.41 5.62c0.01,0.04 0.02,0.08 0.04,0.12l0.8 2.04c0.01,0.04 0.03,0.08 0.04,0.12l0.42 1.32c0.01,0.04 0.02,0.08 0.04,0.12 0.01,0.04 0.03,0.08 0.04,0.12l0.32 0.63c0.02,0.03 0.04,0.07 0.05,0.11 0.02,0.04 0.03,0.08 0.05,0.11l0.23 0.72c0.01,0.04 0.03,0.08 0.04,0.12l1.03 3.07c0.01,0.04 0.03,0.08 0.04,0.12 0.06,0.2 0.11,0.34 0.16,0.48 0.02,0.05 0.07,0.18 0.09,0.23l1.13 4.07c0.01,0.04 0.03,0.08 0.04,0.12l1.07 4.13c0.07,0.25 0.03,0.18 0.08,0.4l1.46 7.04c0.12,0.36 0.07,0.03 0.11,0.52 0.02,0.2 -0.01,0.43 0,0.63 0.05,0.7 0.32,0.73 0.32,1.73 0,0.18 -0.02,0.46 0.01,0.62 0.13,0.91 0.05,0.15 0.2,0.59 0.25,0.75 -0.04,1.55 0.22,2.3 0.31,0.91 0.01,2.26 0.37,3.26 0.45,1.26 0.08,4.03 0.15,5.53 0.05,1.11 0.38,0.61 0.34,3.63 -0,0.2 0,0.4 -0.04,0.59 -0.15,0.69 -0.3,0.88 -0.29,1.76 0.01,1.2 0.23,4.08 -0.11,5.09 -0.19,0.57 -0.2,1.68 -0.2,2.48 0,0.15 0,0.49 -0.02,0.62 -0.11,0.75 -0.33,0.48 -0.31,1.74 0.01,0.85 -0.15,0.96 -0.28,1.61 -0.11,0.55 -0,1.01 -0.19,1.54 -0.18,0.51 -0.1,0.91 -0.17,1.41 -0.15,1.15 -0.12,-0.18 -0.29,0.97l-0.85 4.04c-0.01,0.04 -0.03,0.08 -0.04,0.12l-0.23 1.03c-0.01,0.04 -0.03,0.08 -0.04,0.11 -0.01,0.04 -0.03,0.08 -0.04,0.12l-0.9 3.35c-0.01,0.04 -0.03,0.08 -0.04,0.12l-1.09 3.32c-0.01,0.04 -0.03,0.08 -0.04,0.12l-1 2.31c-0.01,0.03 -0.03,0.08 -0.05,0.11l-0.95 2.21c-0.01,0.04 -0.03,0.08 -0.04,0.12l-1.95 4.19c-0.14,0.25 -0.09,0.18 -0.25,0.38l-0.91 1.61c-0.06,0.12 -0.14,0.29 -0.22,0.41l-2.04 3.16c-0.02,0.03 -0.04,0.07 -0.06,0.1 -0.22,0.38 0,0.12 -0.31,0.47l-0.8 1.09c-1.21,1.71 -2.76,3.11 -4.24,4.58 -0.21,0.21 -0.42,0.42 -0.63,0.63l-2.63 2.1c-0.03,0.02 -0.07,0.04 -0.1,0.05l-2.73 1.84c-0.03,0.02 -0.07,0.04 -0.1,0.06l-4.21 2.25c-0.03,0.01 -0.08,0.03 -0.11,0.04l-2.53 0.94c-0.04,0.01 -0.08,0.03 -0.12,0.04l-1.54 0.51c-0.04,0.01 -0.07,0.03 -0.11,0.04l-1.38 0.35c-0.04,0.01 -0.08,0.03 -0.12,0.04l-1.14 0.28c-0.04,0.01 -0.08,0.03 -0.12,0.04l-4.19 0.7c-0.69,0.05 -0.32,0.15 -0.97,0.29 -0.92,0.2 -2.06,-0.05 -2.92,0.24 -1.3,0.44 -4.51,0.11 -6.04,0.11 -0.97,0 -2.16,0.2 -3.09,-0.07 -0.04,-0.01 -0.08,-0.03 -0.11,-0.04l-2.74 -0.41c-0.59,-0.2 -0.7,-0.04 -1.3,-0.12l-1.57 -0.32c-0.88,-0.12 -0.18,-0.05 -0.6,-0.18l-3 -0.78c-0.04,-0.01 -0.08,-0.02 -0.12,-0.04l-4.54 -1.61c-0.04,-0.01 -0.08,-0.03 -0.11,-0.04l-1.99 -1c-0.03,-0.02 -0.07,-0.04 -0.11,-0.05 -0.04,-0.02 -0.17,-0.08 -0.21,-0.1 -0.03,-0.02 -0.07,-0.04 -0.11,-0.05l-0.84 -0.42c-0.03,-0.02 -0.07,-0.04 -0.11,-0.05l-4.32 -2.78c-0.23,-0.15 -0.18,-0.08 -0.41,-0.22 -0.47,-0.3 -0.69,-0.75 -1.16,-1.04l-1.07 -0.82c-0.16,-0.17 -0.14,-0.15 -0.31,-0.32l-1.5 -1.17c-0.95,-0.98 -2.06,-1.89 -2.79,-3.05 -0.43,-0.69 -1.11,-1.14 -1.58,-1.89 -0.37,-0.59 -1.06,-0.98 -1.41,-1.58l-3.1 -4.63c-0.45,-0.66 -0.43,-1.29 -0.43,-2.1 0.06,-7.03 0,-14.09 0,-21.12l0 -147.99c-0,-0.72 -0.08,-1.38 0.16,-2.05 0.43,-1.22 0.04,-2.81 0.15,-4.11 0.11,-1.3 0.15,0.01 0.31,-1.1 0.15,-1.03 -0.09,-2.21 0.21,-3.1 0.21,-0.62 0.01,-1.68 0.22,-2.3 0.15,-0.44 0.02,0.29 0.17,-0.46 0.09,-0.44 -0.02,-0.95 0.04,-1.38 0.16,-1.16 0.14,0.2 0.3,-0.97 0.08,-0.6 -0.07,-0.7 0.12,-1.3 0.14,-0.44 0.02,0.29 0.17,-0.46 0.05,-0.26 0.02,-0.35 0.04,-0.59 0.09,-0.88 0.46,-1.91 0.67,-2.8l0.38 -1.51c0.01,-0.04 0.03,-0.08 0.04,-0.12l1.53 -3.99c0.02,-0.03 0.04,-0.07 0.05,-0.11 0.02,-0.03 0.04,-0.07 0.05,-0.1l1.67 -3.37c0.02,-0.03 0.04,-0.07 0.06,-0.1 0.02,-0.03 0.04,-0.07 0.06,-0.1l0.63 -0.95c0.02,-0.03 0.03,-0.07 0.05,-0.11l1.73 -2.52c0.45,-0.77 1.2,-1.33 1.68,-2.1 0.02,-0.03 0.04,-0.07 0.06,-0.1 0.02,-0.04 0.11,-0.14 0.14,-0.18 0.13,-0.15 0.19,-0.19 0.4,-0.39 0.96,-0.93 1.74,-1.73 2.68,-2.68 0.35,-0.35 -0.08,0 0.32,-0.31l0.4 -0.24c0.03,-0.02 0.07,-0.04 0.1,-0.06l2.18 -1.76c0.32,-0.25 0.27,-0.34 0.66,-0.6l1.89 -1.26c0.03,-0.02 0.07,-0.04 0.1,-0.06 0.04,-0.02 0.16,-0.09 0.21,-0.11l3.26 -1.62c0.47,-0.24 -0.25,0.13 0.21,-0.11 0.07,-0.04 0.18,-0.1 0.31,-0.16l0.33 -0.15c0.04,-0.01 0.08,-0.03 0.12,-0.04l2.89 -1.05c0.04,-0.01 0.08,-0.03 0.12,-0.04 0.04,-0.01 0.08,-0.03 0.11,-0.04l0.23 -0.09c0.04,-0.01 0.08,-0.03 0.12,-0.04l5.87 -1.22c0.35,-0.12 0.19,-0.1 0.67,-0.12 1.16,-0.05 2.82,0.12 3.75,-0.2 1.18,-0.4 1.54,0.22 3.51,0.21 2.96,-0.02 2.23,0.27 3.62,0.31l1.17 0.25c0.44,0.12 0.68,0.02 1.12,0.14 0.04,0.01 0.08,0.03 0.12,0.04l1.6 0.44c0.04,0.01 0.08,0.03 0.12,0.04l0.83 0.28c0.15,0.05 0.21,0.06 0.36,0.11l1.61 0.59c0.03,0.02 0.07,0.04 0.1,0.06l5.59 2.92c0.73,0.5 1.49,0.88 2.11,1.52 0.47,0.49 1.01,0.69 2.13,1.81l2.68 2.68c0.19,0.19 0.15,0.12 0.32,0.31l0.86 1.19c0.26,0.25 0.42,0.36 0.61,0.66l1.64 2.3c0.02,0.04 0.08,0.17 0.11,0.21l0.15 0.32c0.01,0.03 0.03,0.08 0.05,0.11 0.02,0.04 0.08,0.17 0.11,0.21l3.26 6.51c0.02,0.03 0.03,0.08 0.05,0.11 0.01,0.04 0.03,0.08 0.04,0.12l1.13 3.44c0.01,0.04 0.03,0.08 0.04,0.12 0.01,0.04 0.03,0.08 0.04,0.12l0.67 2.32c0.07,0.28 0.04,0.28 0.09,0.54l0.5 2.18c0.17,0.55 0.05,0.82 0.22,1.35 0.01,0.04 0.03,0.07 0.05,0.11 0.01,0.04 0.04,0.07 0.05,0.11 0.22,0.66 0.01,1.35 0.22,1.99 0.15,0.43 0.02,-0.29 0.17,0.46 0.13,0.61 -0.05,1.19 0.14,1.75l0.22 1.05c0.01,0.86 -0.18,1.92 0.1,2.74 0.47,1.41 0.21,9.49 0.21,11.62 0,1.18 -0.34,1.12 -0.33,2.35 0.01,0.77 0.11,1.77 -0.1,2.42l-0.22 1.05c-0,0.58 0.04,1.06 -0.15,1.58 -0.01,0.04 -0.04,0.07 -0.05,0.11 -0.22,0.66 -0,1.35 -0.22,1.99l-0.31 1.89c-0.01,0.04 -0.04,0.07 -0.05,0.11 -0.28,0.81 0,0.7 -0.4,2.12l-1.53 6.51c-0.01,0.04 -0.03,0.08 -0.04,0.11l-0.2 0.59c-0.18,0.51 0,-0.24 -0.16,0.48l-0.79 2.68c-0.01,0.04 -0.03,0.08 -0.04,0.12 -0.01,0.04 -0.03,0.08 -0.04,0.12 -0.01,0.04 -0.03,0.08 -0.04,0.12l-1.53 4.3c-0.01,0.04 -0.03,0.08 -0.04,0.12 -0.07,0.2 -0.08,0.29 -0.14,0.49l-3.61 7.9c-0.04,0.09 -0.1,0.19 -0.16,0.32l-0.32 0.63c-0.02,0.03 -0.04,0.07 -0.05,0.11l-0.73 1.47c-0.06,0.12 -0.14,0.29 -0.22,0.41 -0.05,0.07 -0.16,0.19 -0.28,0.35 -0.61,0.82 0.46,-0.73 -0.13,0.18l-0.9 1.78c-0.07,0.13 -0.02,-0.07 -0.16,0.32zm-99.92 234.21c0.04,0.01 0.08,0.01 0.1,0.06 0.11,0.31 1.15,0.27 1.47,0.26l27.27 -0.01c0.28,0 0.7,0.03 0.97,0.02 0.91,-0.04 0.59,0.11 0.77,-0.34 0.45,-0.18 0.18,0 0.31,-0.48l1.25 -5.05c0.04,-0.27 -0,-0.45 0.05,-0.74l0.21 -0.58c0.23,-0.88 0.04,-0.75 0.27,-1.46 0.01,-0.04 0.03,-0.08 0.04,-0.12l0.09 -0.54c0.01,-0.05 0.01,-0.09 0.02,-0.13l0.28 -1.77c0.14,-1.03 0.47,-1.35 0.62,-3.32 0.1,-1.32 0.22,0.06 0.32,-1.26l0.21 -1.37c0.21,-0.63 0.01,-0.95 0.18,-1.55l0.36 -2.32c0.21,-0.63 0.13,-1.2 0.22,-1.83 0.14,-1.04 0.26,0.11 0.32,-1.26 0.04,-0.84 0,-1.6 0.2,-2.17 0.12,-0.35 0.1,-0.2 0.12,-0.67 0.02,-0.51 -0.08,-1.04 0.05,-1.52 0.41,-1.45 0.07,-1.6 0.26,-2.9 0.14,-0.94 0.34,-0.02 0.3,-2.85 -0.02,-1.87 0.36,-0.64 0.32,-4.41l0.32 -2.83c-0.01,-1.1 0,-2.21 -0.01,-3.32 -0,-0.19 -0.01,-0.6 0.01,-0.78 0.14,-0.96 0.32,-0.85 0.31,-2.05 -0.02,-1.83 -0.22,-10.9 0.11,-11.87l0.17 -0.46c0.22,-1.03 0.03,-33.6 0.03,-34.96 0.44,0.18 0.07,-0 0.31,0.32l6.41 6.35c0.03,0.02 0.07,0.04 0.1,0.06l2.33 1.92c0.03,0.02 0.07,0.04 0.1,0.06l3.91 2.71c0.7,0.52 1.57,0.82 2.3,1.33l5.31 2.41c0.04,0.01 0.08,0.02 0.12,0.04 0.04,0.01 0.08,0.03 0.12,0.04l0.74 0.36c0.04,0.02 0.08,0.03 0.11,0.05l6.08 1.8c0.04,0.01 0.08,0.03 0.11,0.04 0.04,0.01 0.08,0.03 0.12,0.04l1.03 0.23c0.04,0.01 0.07,0.03 0.11,0.05 0.62,0.2 1.18,0.07 1.78,0.26l1.22 0.2c0.32,0.01 0.26,-0.01 0.56,0.07 0.04,0.01 0.08,0.03 0.12,0.04 0.04,0.01 0.07,0.03 0.11,0.05l0.22 0.09c0.74,0.21 1.63,0.01 2.41,0.27 0.47,0.16 0.75,0.12 1.31,0.11 1.87,-0.02 11.61,0.25 12.77,-0.16 0.14,-0.05 -0.13,-0.02 0.35,-0.13 0.7,-0.15 1.91,0.07 2.64,-0.04 1.15,-0.17 -0.19,-0.13 0.96,-0.3 0.58,-0.08 1.41,0.06 1.93,-0.12 0.44,-0.15 -0.29,-0.02 0.46,-0.18 0.44,-0.09 0.95,0.02 1.38,-0.04 1.16,-0.16 -0.2,-0.14 0.96,-0.3 0.6,-0.08 0.7,0.07 1.3,-0.12l4.41 -0.95c0.05,-0.02 0.18,-0.07 0.23,-0.09l3.23 -0.87c0.05,-0.02 0.18,-0.07 0.23,-0.09l2.33 -0.67c0.04,-0.01 0.08,-0.03 0.12,-0.04l0.95 -0.32c0.2,-0.07 0.33,-0.1 0.48,-0.15 0.13,-0.04 0.1,-0.04 0.23,-0.08 0.13,-0.04 0.18,-0.06 0.36,-0.11 1.3,-0.41 2.49,-1.18 3.78,-1.58l1 -0.42c0.03,-0.02 0.07,-0.04 0.11,-0.05l2.73 -1.37c0.13,-0.06 0.08,-0.04 0.21,-0.1 0.03,-0.02 0.07,-0.04 0.1,-0.05 0.03,-0.02 0.07,-0.04 0.11,-0.05 0.03,-0.02 0.07,-0.04 0.1,-0.05 0.03,-0.01 0.07,-0.04 0.11,-0.05l1.26 -0.63c0.03,-0.02 0.07,-0.04 0.1,-0.05l1.37 -0.84c0.03,-0.02 0.07,-0.04 0.1,-0.06l2.73 -1.68c0.03,-0.02 0.07,-0.04 0.1,-0.06l0.45 -0.34c0.03,-0.02 0.07,-0.04 0.09,-0.06 0.03,-0.02 0.07,-0.04 0.1,-0.06l3.72 -2.9c0.35,-0.31 0.09,-0.09 0.48,-0.31l1.59 -1.4c1.19,-0.83 1.47,-1.18 2.59,-2.3 0.78,-0.78 3.08,-2.78 3.65,-3.76 0.02,-0.03 0.04,-0.07 0.05,-0.1 0.02,-0.03 0.04,-0.07 0.05,-0.1l2.26 -2.62c0.29,-0.47 0.75,-0.7 1.04,-1.16l3.52 -4.84c0.02,-0.03 0.04,-0.07 0.05,-0.1 0.22,-0.38 0,-0.12 0.32,-0.48 0.24,-0.28 0.07,-0.03 0.32,-0.31 0.03,-0.03 0.11,-0.14 0.14,-0.17l0.17 -0.3c0.02,-0.03 0.04,-0.07 0.06,-0.1l0.46 -0.64c0.14,-0.22 0.08,-0.18 0.23,-0.4l1.29 -2.03c0.02,-0.03 0.04,-0.07 0.06,-0.09l1.64 -2.62c0.03,-0.04 0.09,-0.16 0.11,-0.21l0.15 -0.32c0.02,-0.03 0.04,-0.07 0.05,-0.11l1.21 -2.1c0.06,-0.12 0.15,-0.3 0.21,-0.42l0.63 -1.26c0.02,-0.04 0.08,-0.17 0.1,-0.21l0.37 -0.74c0.02,-0.04 0.08,-0.17 0.11,-0.21l0.63 -1.26c0.02,-0.03 0.04,-0.07 0.05,-0.1 0.24,-0.47 -0.13,0.25 0.11,-0.21l0.49 -1.25c0.01,-0.04 0.03,-0.08 0.04,-0.12l1.57 -3.78c0.01,-0.04 0.03,-0.08 0.05,-0.11 0.01,-0.03 0.03,-0.07 0.05,-0.11l0.27 -0.52c0.01,-0.03 0.03,-0.08 0.05,-0.11l1.53 -4.62c0.01,-0.04 0.03,-0.08 0.04,-0.12 0.01,-0.04 0.03,-0.08 0.04,-0.12l1.18 -4.17c0.04,-0.11 0.03,0.06 0.11,-0.36 0.1,-0.52 -0.01,-0.59 0.15,-1.11 0.02,-0.05 0.07,-0.18 0.09,-0.22l0.59 -2.72c0.05,-0.15 0.03,0.14 0.12,-0.35l0.36 -2.95c0.14,-1.06 0.15,0.09 0.29,-0.97l0.32 -3.15c-0.01,-1.17 0.34,-1.02 0.33,-2.19 -0,-0.8 -0.08,-1.94 -0.02,-2.7 0.06,-0.69 0.15,-0.33 0.29,-0.97 0.2,-0.9 0.08,-9.64 0,-10.02 -0.15,-0.69 -0.3,-0.88 -0.29,-1.76 0.03,-2.93 -0.32,-2.48 -0.32,-3.62 -0,-0.58 0.04,-1.06 -0.15,-1.59l-0.17 -0.78c-0.02,-0.62 0.08,-0.76 -0.1,-1.32l-0.82 -3.75c-0.04,-0.27 0,-0.45 -0.05,-0.74 -0.15,-0.75 -0.02,-0.02 -0.16,-0.47 -0.11,-0.35 -0.04,-0.12 -0.11,-0.52 -0.07,-0.38 -0.01,-0.18 -0.11,-0.52l-0.28 -1.14c-0.01,-0.04 -0.02,-0.08 -0.04,-0.12l-2.21 -6.61c-0.02,-0.05 -0.07,-0.18 -0.08,-0.23l-2.53 -5.66c-0.04,-0.09 -0.1,-0.19 -0.16,-0.31l-0.84 -1.68c-0.02,-0.03 -0.04,-0.07 -0.05,-0.11 -0.75,-1.51 -0.58,-0.87 -1.2,-2.11l-2.38 -3.77c-0.02,-0.03 -0.04,-0.07 -0.06,-0.1l-0.45 -0.65c-0.34,-0.58 -1.36,-1.63 -1.95,-2.63l-1.58 -1.89c-0.02,-0.03 -0.04,-0.07 -0.06,-0.1 -0.02,-0.03 -0.04,-0.07 -0.06,-0.1 -0.03,-0.04 -0.11,-0.14 -0.14,-0.18 -0.16,-0.19 -0.12,-0.12 -0.32,-0.31 -0.25,-0.24 -0.43,-0.42 -0.71,-0.71l-0.82 -0.92c-0.02,-0.03 -0.03,-0.07 -0.05,-0.11l-1.65 -1.81c-0.75,-0.75 -1.43,-1.7 -2.34,-2.23l-0.31 -0.16c-0.03,-0.02 -0.07,-0.04 -0.1,-0.06 -0.06,-0.05 -0.27,-0.24 -0.33,-0.3l-4.64 -4.03c-0.47,-0.48 -0.58,-0.32 -1.19,-0.86l-0.79 -0.64c-1.18,-0.69 -2.11,-1.56 -3.25,-2.26l-2.32 -1.46c-0.04,-0.02 -0.17,-0.08 -0.21,-0.11l-11.56 -6.57c0.35,-0.13 0.22,-0.11 0.32,-0.16l1.46 -0.9c0.03,-0.02 0.07,-0.04 0.1,-0.06 0.11,-0.08 0.24,-0.22 0.33,-0.3l2.84 -2.05c0.42,-0.24 0.92,-0.87 1.68,-1.31 0.03,-0.02 0.07,-0.04 0.1,-0.06l1.21 -1.15c0.04,-0.03 0.14,-0.11 0.18,-0.14l0.61 -0.34c1.3,-0.91 2.4,-2.66 3.58,-3.35 1.04,-0.61 1.41,-1.63 2.34,-2.55l3.38 -3.71c0.02,-0.03 0.04,-0.07 0.06,-0.1l1.54 -2.09c0.03,-0.04 0.11,-0.14 0.14,-0.17l3.36 -4.99c0.02,-0.03 0.04,-0.07 0.06,-0.1 0.02,-0.04 0.09,-0.17 0.11,-0.21l0.15 -0.32c0.02,-0.03 0.04,-0.07 0.05,-0.11l2.48 -4.62c0.03,-0.05 0.21,-0.39 0.22,-0.42 0.02,-0.04 0.08,-0.17 0.09,-0.22 0.02,-0.04 0.03,-0.08 0.04,-0.12l0.73 -1.95c0.01,-0.04 0.02,-0.08 0.04,-0.12l1.07 -2.87c0.01,-0.04 0.03,-0.08 0.04,-0.12 0.06,-0.18 0.09,-0.3 0.15,-0.48l0.63 -1.89c0.01,-0.04 0.03,-0.08 0.04,-0.11l0.4 -1.49c0.01,-0.04 0.03,-0.08 0.04,-0.12 0.01,-0.04 0.02,-0.08 0.03,-0.13l0.99 -4.69c0.03,-1 0.33,-1.18 0.31,-2.21 -0.02,-1.01 0.31,-1.19 0.33,-2.19 0.01,-1.05 -0.21,-2.18 0.14,-3.17 0.38,-1.05 0.31,-6.06 0,-6.93l-0.09 -0.23c-0.1,-0.36 -0.07,-0.8 -0.07,-1.19 0.01,-0.79 0.14,-1.85 -0.11,-2.57l-0.1 -0.22c-0.2,-0.61 -0.03,-1.3 -0.12,-1.93 -0.17,-1.15 -0.14,0.2 -0.3,-0.97l-0.22 -1.52c-0.12,-0.39 -0.05,-0.02 -0.1,-0.53 -0.03,-0.24 0.01,-0.33 -0.04,-0.59 -0.15,-0.75 -0.04,-0.04 -0.17,-0.46l-0.7 -3.08c-0.06,-0.18 -0.12,-0.35 -0.16,-0.48l-1.21 -3.98c-0.01,-0.04 -0.03,-0.08 -0.04,-0.12 -0.01,-0.04 -0.03,-0.08 -0.04,-0.12l-0.31 -0.95c-0.02,-0.03 -0.04,-0.07 -0.05,-0.11l-0.49 -0.93c-0.02,-0.03 -0.04,-0.07 -0.05,-0.11l-0.36 -1.06c-0.02,-0.03 -0.04,-0.07 -0.05,-0.11l-0.22 -0.41c-0.02,-0.03 -0.04,-0.07 -0.05,-0.11 -0.02,-0.03 -0.04,-0.07 -0.05,-0.1 -0.02,-0.03 -0.04,-0.07 -0.05,-0.11 -0.03,-0.07 -0.07,-0.14 -0.1,-0.21l-0.79 -1.57c-0.02,-0.03 -0.04,-0.07 -0.05,-0.11l-1.68 -3.05c-0.02,-0.03 -0.04,-0.07 -0.06,-0.1 -0.02,-0.03 -0.05,-0.07 -0.06,-0.09l-1.14 -1.69c-0.02,-0.03 -0.04,-0.07 -0.06,-0.1l-3.27 -4.29c-0.32,-0.4 0.04,0.03 -0.31,-0.32 -1.56,-1.53 -3.01,-3.24 -4.65,-4.65l-3.11 -2.41c-0.24,-0.15 -0.17,-0.07 -0.41,-0.22l-1.16 -0.89c-0.03,-0.02 -0.07,-0.04 -0.1,-0.06 -0.5,-0.31 0.25,0.22 -0.19,-0.13l-2.11 -1.51c-0.03,-0.02 -0.06,-0.05 -0.09,-0.07 -0.18,-0.13 -0.26,-0.21 -0.36,-0.27l-1.57 -0.95c-0.03,-0.02 -0.07,-0.03 -0.11,-0.05 -0.04,-0.02 -0.17,-0.08 -0.21,-0.11l-1.89 -1.1c-0.12,-0.06 -0.3,-0.14 -0.41,-0.22l-2.42 -1.36c-0.03,-0.02 -0.07,-0.04 -0.11,-0.05 -0.04,-0.02 -0.17,-0.08 -0.21,-0.11l-0.42 -0.21c0,0 -0.21,-0.11 -0.21,-0.11 -0.03,-0.01 -0.07,-0.04 -0.11,-0.05l-2.42 -1.05c-0.03,-0.02 -0.07,-0.04 -0.1,-0.05l-1.27 -0.62c-0.04,-0.01 -0.08,-0.02 -0.12,-0.04l-0.25 -0.07c-0.04,-0.01 -0.08,-0.02 -0.12,-0.04 -0.04,-0.01 -0.08,-0.03 -0.12,-0.04l-0.53 -0.26c-0.03,-0.01 -0.07,-0.04 -0.1,-0.05l-2.12 -0.72c-0.17,-0.06 -0.28,-0.08 -0.48,-0.15l-0.86 -0.4c-0.68,-0.32 -1.34,-0.34 -1.97,-0.55 -0.04,-0.01 -0.08,-0.03 -0.12,-0.04l-3.47 -0.95c-0.04,-0.01 -0.08,-0.03 -0.12,-0.04l-2.95 -0.68c-0.04,-0.01 -0.07,-0.03 -0.11,-0.05 -0.89,-0.28 -2.04,-0.25 -2.93,-0.54l-0.9 -0.21c-0.78,-0.03 -0.78,-0.14 -1.45,-0.28 -0.78,-0.17 -1.52,0.02 -2.28,-0.24 -0.33,-0.11 -0.05,-0.08 -0.52,-0.12 -0.75,-0.07 -1.59,0.14 -2.3,-0.06 -0.04,-0.01 -0.08,-0.03 -0.11,-0.04 -0.04,-0.01 -0.07,-0.04 -0.11,-0.05l-0.22 -0.09c-1.66,-0.47 -3.71,0.37 -5.34,-0.18 -1.09,-0.37 -4.74,-0.39 -5.89,0 -1.37,0.46 -3.25,-0.1 -4.77,0.12 -1.15,0.17 0.19,0.13 -0.96,0.3l-1.88 0.01c-0.78,0.11 -0.23,0.06 -0.48,0.15 -0.26,0.09 0.3,0.04 -0.48,0.15 -0.78,0.11 -1.5,-0 -2.15,0.21 -0.51,0.17 -1.14,0.05 -1.67,0.22l-3.49 0.76c-0.04,0.01 -0.08,0.02 -0.12,0.03 -0.23,0.05 -0.32,0.04 -0.55,0.09l-1.39 0.35c-0.04,0.01 -0.08,0.03 -0.12,0.04l-0.23 0.09c-0.04,0.01 -0.08,0.03 -0.12,0.04l-1.15 0.27c-0.04,0.01 -0.08,0.03 -0.12,0.04 -0.04,0.01 -0.08,0.03 -0.12,0.04 -0.04,0.01 -0.08,0.02 -0.12,0.04l-0.71 0.24c-0.04,0.01 -0.08,0.03 -0.12,0.04l-2.72 0.91c-0.04,0.01 -0.08,0.03 -0.12,0.04l-8.9 4.03 -11.03 7.72c-0.81,0.47 -1.49,1.37 -2.18,2.07l-1.34 1.02c-0.19,0.17 -0.12,0.13 -0.31,0.32l-0.64 0.63c-0.06,0.06 -0.25,0.27 -0.3,0.34l-2.3 2.59c-0.08,0.08 -0.29,0.28 -0.32,0.31 -0.44,0.47 -0.63,0.97 -1.1,1.42l-0.79 1.1c-0.3,0.38 -0.08,0.06 -0.31,0.32 -0.08,0.08 -0.19,0.21 -0.22,0.25l-2.49 3.66c-0.01,0.03 -0.03,0.08 -0.05,0.11l-1.2 2.1c-0.02,0.04 -0.08,0.17 -0.1,0.21l-0.95 1.57c-0.02,0.05 -0.2,0.4 -0.21,0.42l-0.52 1.38c-0.02,0.03 -0.04,0.07 -0.05,0.1 -0.28,0.54 -0.61,1.04 -0.94,2.06 -0.01,0.04 -0.02,0.08 -0.04,0.12 -0.01,0.04 -0.03,0.08 -0.04,0.12l-0.44 1.29c-0.01,0.04 -0.02,0.08 -0.04,0.12l-0.07 0.24c-0.01,0.04 -0.02,0.08 -0.04,0.12l-0.63 1.89c-0.01,0.04 -0.03,0.08 -0.04,0.12l-1.11 3.94c-0.05,0.25 -0.02,0.35 -0.04,0.59l-0.38 1.66c-0.01,0.04 -0.03,0.08 -0.04,0.12l-0.22 1.2c-0.16,1.15 -0.13,-0.18 -0.29,0.97l-0.64 4.4c0.01,0.93 -0.32,1.08 -0.32,2.04l-0.2 1.7c-0.11,0.33 -0.08,0.05 -0.12,0.52 -0.07,0.8 0.14,1.7 -0.1,2.42 -0.32,0.95 0.01,2.35 -0.27,3.35 -0.01,0.04 -0.03,0.08 -0.04,0.11 -0.01,0.04 -0.03,0.07 -0.05,0.11l-0.09 0.22c-0.38,1.33 0.25,2.95 -0.13,4.28l-0.18 0.45c-0.54,1.88 0.47,5.94 -0.18,7.86 -0.01,0.04 -0.04,0.07 -0.05,0.11l-0.09 0.23c-0.16,0.56 -0.07,1.23 -0.07,1.82 0.13,70.08 0,140.17 0,210.25 0,1.23 0.23,5.03 -0.11,6.04l-0.22 1.04c-0.02,1.16 0.17,2.47 0,3.63 -0.17,1.15 -0.13,-0.19 -0.3,0.96 -0.14,0.97 0.13,2.79 -0.17,3.62 -0.09,0.25 -0.04,-0.29 -0.15,0.48 -0.13,0.89 0.09,2.27 -0.16,2.99 -0.27,0.76 -0.01,1.97 -0.27,2.73 -0.38,1.13 -0.04,1.7 -0.45,3.17 -0.19,0.67 0.02,1.03 -0.32,2.21 -0.08,0.27 -0.07,0.26 -0.08,0.56 -0.02,0.52 0.05,1.19 -0.1,1.63 -0.15,0.44 -0.02,-0.29 -0.17,0.46 -0.11,0.53 0.02,1.27 -0.14,1.75l-0.24 1.65c-0.13,0.64 -0.23,0.28 -0.29,0.97l-0.2 1.69c-0.12,0.36 -0.07,0.03 -0.11,0.52 -0.03,0.43 0.05,0.61 -0.07,1.04l-0.58 3.2c-0.17,1.15 -0.14,-0.18 -0.29,0.97l-0.75 4.77c-0.13,0.42 -0.02,-0.29 -0.17,0.46 -0.1,0.51 0.02,0.59 -0.15,1.11l-0.94 4.74c-0.09,0.26 -0.01,-0.15 -0.22,0.41z"/>
  </g>
 </g>
</svg>
