<?xml version="1.0" encoding="UTF-8"?>
<!DOCTYPE svg PUBLIC "-//W3C//DTD SVG 1.1//EN" "http://www.w3.org/Graphics/SVG/1.1/DTD/svg11.dtd">
<!-- Creator: CorelDRAW 2021 (64-Bit) -->
<svg xmlns="http://www.w3.org/2000/svg" xml:space="preserve" width="27.4106mm" height="22.5209mm" version="1.1" style="shape-rendering:geometricPrecision; text-rendering:geometricPrecision; image-rendering:optimizeQuality; fill-rule:evenodd; clip-rule:evenodd"
viewBox="0 0 113632.94 93362.28"
 xmlns:xlink="http://www.w3.org/1999/xlink"
 xmlns:xodm="http://www.corel.com/coreldraw/odm/2003">
 <defs>
  <style type="text/css">
   <![CDATA[
    .fil0 {fill:#003A4E;fill-rule:nonzero}
    .fil1 {fill:#85C2BD;fill-rule:nonzero}
   ]]>
  </style>
 </defs>
 <g id="Layer_x0020_1">
  <metadata id="CorelCorpID_0Corel-Layer"/>
  <g id="_2384887764112">
   <g>
    <g>
     <g>
      <path class="fil0" d="M101307.29 93362.28l-668.27 -316.31 177.43 -362.74 -259.93 270.71c-551.78,-458.5 -9351.61,-6011.51 -12664.34,-8101.3l-2021.8 -1285.55c-1138.79,-737.5 -2316.97,-1500.29 -3488.51,-1941.79 -562.14,-210.6 -1260.26,-267.8 -2000.24,-326.67 -999.5,-81.25 -2033.82,-163.75 -2923.05,-646.71 -286.05,-155.87 -569.6,-315.89 -848.19,-483.79 -5447.71,-3274.18 -9226.41,-8566.85 -12881.16,-13683.74 -885.91,-1241.6 -1763.95,-2472.43 -2656.9,-3659.31 -1934.33,-2571.09 -4035.31,-5086.22 -6067.89,-7517.19 -1412.81,-1690.98 -2824.8,-3380.72 -4196.57,-5103.63 -2660.22,-3342.17 -4980.92,-6863.84 -7091.85,-10173.68 -222.62,-348.23 -276.1,-736.26 -149.24,-1093.61 219.3,-620.18 873.47,-897.52 1144.18,-988.31 244.59,-80.01 492.08,-148 741.23,-201.48 2224.52,-478.4 4653.42,177.43 6655.73,1805.82 1009.86,818.75 1789.65,1789.65 2544.56,2728.62 213.91,267.8 430.31,536.02 652.93,802.59 1090.7,1310.83 2133.73,2393.66 3189.61,3311.49 3306.93,2873.72 7316.13,5186.13 11478.29,7496.87 753.25,421.61 1132.16,248.32 1378.82,54.72 395.49,-314.65 627.23,-850.67 784.76,-1282.64 215.98,-593.65 393.83,-1246.99 528.56,-1944.28 716.36,-3723.56 -151.31,-7670.57 -2442.99,-11115.55l-3056.54 -4616.52c-82.08,-125.61 -161.26,-257.44 -242.1,-392.17 -223.03,-373.52 -434.46,-726.72 -707.24,-874.72 -202.3,-111.93 -596.96,-29.43 -912.03,34.82 -2009.36,403.78 -4035.73,582.45 -5995.34,754.5 -403.37,36.07 -811.29,66.74 -1221.29,97.42 -1664.45,126.85 -3386.11,257.44 -4935.73,741.64 -381.81,118.56 -744.13,301.38 -1127.6,493.32 -287.29,142.61 -573.75,286.46 -872.65,407.93 -1765.6,718.84 -3644.8,944.36 -5290.18,633.45 -957.63,-179.92 -1796.28,-537.27 -2491.91,-1061.27 -473.84,-359.01 -1729.54,-1309.59 -1238.7,-2646.13 179.5,-485.45 576.24,-906.64 1116.82,-1189.37 616.86,-320.04 1282.23,-541.41 1926.45,-754.91 390.1,-128.1 778.54,-257.44 1148.74,-406.68 1260.26,-513.22 2498.96,-1164.08 3697.86,-1792.14 1397.48,-735.01 2843.87,-1493.65 4371.52,-2064.5 2707.9,-1010.69 5590.73,-1556.25 8379.47,-2083.16l919.91 -174.53c1241.6,-237.54 2255.2,-397.56 3190.86,-505.35l383.88 -48.09c924.05,-119.81 1882.92,-245.42 2894.03,350.72 587.43,345.33 1053.39,804.24 1504.85,1248.24 659.15,649.61 1252.8,1209.68 1846.03,1770.99 547.63,517.37 1094.43,1034.74 1632.95,1561.64 915.76,894.62 1820.33,1829.45 2688,2777.54 1785.09,1951.33 3818.5,4243.42 5371.43,6761.45 722.16,1170.71 1286.37,2292.51 1724.56,3429.64l-1273.52 490.84c-408.34,-1057.54 -935.66,-2104.3 -1613.05,-3203.29 -1491.17,-2416.05 -3474.83,-4651.35 -5216.8,-6555.41 -851.09,-931.1 -1737,-1847.27 -2635.35,-2724.48 -532.71,-521.51 -1074.95,-1033.49 -1616.36,-1545.89 -599.87,-566.7 -1199.32,-1134.65 -1787.99,-1713.37 -488.35,-480.06 -875.13,-861.45 -1317.88,-1121.79 -606.08,-358.59 -1233.31,-277.34 -2024.7,-172.04l-404.19 50.99c-900.84,102.4 -1882.92,258.68 -3090.53,489.18l-922.81 174.94c-2731.94,517.37 -5556.74,1050.49 -8155.19,2021.39 -1447.22,540.17 -2853.82,1278.91 -4214.82,1993.61 -1227.09,644.22 -2496.06,1309.59 -3818.08,1847.27 -397.56,161.26 -814.61,299.73 -1234.14,438.6 -619.35,205.21 -1205.54,400.05 -1723.73,669.51 -235.88,123.95 -406.68,288.12 -467.21,451.87 -100.32,272.36 126.03,587.01 780.61,1082.83 525.25,396.32 1172.37,668.27 1921.48,809.63 1389.19,257.44 2998.09,62.6 4522.42,-555.92 265.32,-108.2 520.69,-237.54 776.05,-365.64 415.39,-208.11 844.04,-422.43 1332.39,-575.82 1698.86,-529.81 3498.46,-665.78 5239.19,-798.85 404.19,-30.68 807.15,-60.11 1204.29,-96.18 1923.55,-169.14 3912.19,-344.08 5845.27,-733.35 503.69,-102.81 1193.51,-244.17 1834.01,104.05 602.35,327.92 934.83,883.84 1228.34,1374.68 70.06,116.08 138.46,232.15 210.18,340.35l3052.81 4611.13c2491.91,3744.71 3432.13,8053.63 2647.37,12131.64 -148.83,768.18 -346.16,1492 -587.01,2152.39 -219.3,601.11 -555.92,1360.17 -1220.05,1885.41 -567.94,451.04 -1530.13,825.8 -2889.06,70.89 -4228.08,-2348.47 -8305.68,-4702.34 -11711.27,-7662.7 -1111.43,-965.51 -2205.04,-2098.91 -3343.41,-3466.12 -227.18,-273.19 -448.14,-548.05 -667.85,-821.24 -742.47,-924.05 -1443.91,-1796.28 -2341.43,-2525.9 -1678.96,-1364.31 -3689.98,-1924.38 -5508.24,-1529.31 -203.13,43.94 -402.54,98.66 -597.79,162.51 -173.7,58.45 -276.92,141.36 -296.82,169.14 2114.25,3159.35 4410.49,6646.61 7032.57,9939.04 1364.73,1715.03 2770.49,3396.89 4175.85,5078.34 2043.77,2444.65 4156.78,4973.04 6111.01,7571.91 900.42,1196.42 1785.09,2436.36 2678.05,3685.84 3573.08,5004.96 7268.45,10180.72 12472.82,13307.74 262,157.53 527.73,309.26 796.78,454.77 634.69,345.33 1482.88,413.31 2380.81,485.45 800.93,63.84 1629.63,130.59 2371.69,410.83 1308.35,492.08 2549.95,1296.32 3750.1,2073.62l2007.71 1276.01c8406,5303.86 11527.21,7273.43 12594.7,8169.7l23.63 -48.09 -20.73 50.58c627.23,526.9 540.58,681.53 403.37,928.2l-314.65 564.21z"/>
     </g>
     <g>
      <path class="fil0" d="M112819.16 76917.99l-174.94 -49.33c-1593.98,-453.53 -3158.93,-1080.34 -4650.52,-1864.27 -3898.09,-2045.85 -7231.97,-5086.22 -9640.97,-8794.86 -3500.12,-5390.09 -4427.48,-11696.76 -5324.17,-17794.92l-281.49 -1894.95c-847.36,-5584.93 -2197.57,-9493.8 -4514.96,-13071.85 -674.49,-1041.37 -1405.35,-2065.33 -2172.7,-3042.86 -401.71,-512.39 -736.26,-938.97 -951.83,-1636.26 -113.17,-364.4 -195.26,-737.5 -276.51,-1112.26 -52.23,-240.03 -103.23,-478.81 -166.24,-716.36 -169.14,-645.47 -292.68,-1310.83 -415.8,-1977.44 -320.04,-1733.68 -622.25,-3369.95 -1755.65,-4618.18 -1094.85,-1205.54 -2641.15,-1968.32 -3708.64,-2437.6 -2683.85,-1179 -5372.26,-2335.21 -8066.89,-3479.39 -4672.07,-1985.73 -9340.83,-3980.59 -14008.76,-5977.1 -75.45,-33.16 -138.05,-10.78 -175.77,12.02 -32.34,21.56 -87.89,69.23 -92.45,162.92 -100.74,2066.99 778.13,4124.44 2292.51,5371.43 1587.34,1302.96 3481.88,2269.71 5314.22,3204.54l642.57 329.16c3149.4,1617.61 6289.68,3369.95 9326.32,5065.07l2522.59 1404.11c823.31,457.67 1394.16,1286.79 1525.57,2220.37 277.75,1964.59 151.73,3652.67 -178.26,6081.16l-1353.53 -184.06c314.24,-2305.77 435.29,-3899.34 179.5,-5706.4 -73.38,-518.61 -378.08,-962.6 -836.16,-1215.9l-2525.08 -1407.01c-3026.69,-1689.74 -6156.61,-3435.45 -9284.86,-5043.52l-639.66 -326.67c-1897.02,-968.41 -3858.71,-1968.32 -5560.06,-3366.21 -1841.88,-1514.8 -2910.61,-4003.39 -2789.98,-6492.81 25.29,-513.64 299.31,-981.67 732.94,-1253.62 429.9,-268.22 967.58,-312.16 1436.03,-110.69 4667.51,1996.1 9335.03,3991.37 14006.68,5977.1 2698.78,1146.67 5392.58,2302.87 8081.82,3484.36 1181.49,520.27 2899.84,1372.19 4170.04,2771.32 1394.99,1536.35 1746.95,3443.32 2087.72,5287.28 116.91,632.2 233.4,1265.65 394.25,1879.19 67.16,256.2 123.95,514.88 179.92,773.57 72.55,334.55 144.68,670.76 245.83,997.43 141.36,457.26 354.86,729.62 707.65,1179 806.73,1028.1 1561.64,2085.64 2258.93,3163.08 3054.05,4713.94 4098.74,9524.06 4718.09,13607.46l282.73 1901.58c876.38,5953.06 1781.77,12110.08 5118.97,17249.77 2281.73,3512.55 5439.01,6392.9 9130.23,8330.97 1409.08,739.99 2885.33,1331.98 4389.34,1760.21l-198.57 1361.41z"/>
     </g>
     <g>
      <path class="fil0" d="M87763.67 32511.74l-108.2 -1410.74c-199.82,-2615.03 -407.93,-5319.61 -501.2,-7992.27 -68.82,-1953.4 -570.85,-3492.24 -1536.35,-4706.07 -834.92,-1048 -1865.1,-1902.82 -2955.8,-2806.97 -432.8,-358.59 -864.35,-717.6 -1282.23,-1088.22 -1665.7,-1470.85 -3046.17,-3087.22 -4316.8,-4616.94 -2185.14,-2630.79 -4400.95,-5415.38 -6774.71,-8512.13 -773.15,2379.15 -1781.36,8421.75 4464.79,13307.74l-841.14 1074.95c-6913.18,-5406.26 -5785.16,-12132.88 -4978.85,-14773.2 152.56,-501.62 567.12,-870.99 1082,-964.26 517.37,-96.18 1035.98,108.2 1356.85,524 2362.98,3081.83 4568.02,5853.15 6741.96,8470.67 1236.21,1488.26 2576.89,3059.44 4170.04,4466.45 407.1,361.08 828.7,709.31 1249.89,1058.78 1096.51,909.54 2229.08,1849.76 3151.89,3008.45 1154.55,1450.95 1754,3253.87 1832.35,5509.07 93.69,2644.47 299.31,5334.12 498.71,7934.65l108.2 1414.89 -1361.41 101.15z"/>
     </g>
     <g>
      <path class="fil0" d="M93163.29 42010.93l-1295.08 -432.38 5268.21 -15776.02c167.48,-489.18 157.53,-1014.84 -26.53,-1485.36 -948.1,-2424.34 -3304.86,-8199.96 -3654.75,-9057.69l-6821.14 -7710.37c-46.02,-50.99 -98.66,-54.72 -137.22,-49.33 -38.14,6.63 -89.54,27.78 -117.32,95.76 -762.37,1867.17 -1231.24,5835.74 4192.01,11447.2 387.2,401.71 645.47,913.69 728.79,1440.59l412.07 5636.75c92.45,573.33 -38.14,1218.8 -374.35,1760.21l-2962.43 4140.61 -1110.6 -794.71 2937.56 -4103.3c138.88,-226.76 202.72,-540.17 154.22,-848.19l-412.07 -5635.51c-33.58,-197.33 -162.09,-446.89 -355.69,-648.37 -5960.93,-6167.38 -5361.48,-10736.23 -4473.91,-12911.42 200.23,-490.84 630.96,-837.41 1152.06,-925.29 519.44,-88.3 1039.71,94.52 1389.6,490.84l7018.47 7990.61c0,0 2678.46,6555.83 3706.98,9185.37 301.38,771.08 317.97,1630.87 47.67,2419.36l-5266.55 15770.63z"/>
     </g>
     <g>
      <g>
       <path class="fil0" d="M84916.89 42131.98c-476.33,-1209.68 -1057.12,-2361.74 -1734.1,-3471.93 -434.04,-711.8 -1556.25,-60.53 -1120.14,655 617.28,1011.94 1168.64,2057.87 1603.51,3161.84 302.21,767.76 1557.5,433.21 1250.72,-344.91z"/>
      </g>
     </g>
     <g>
      <g>
       <path class="fil0" d="M107983.75 74960.86c1550.86,799.68 3165.15,1453.44 4846.19,1924.38 805.07,225.93 1148.74,-1025.2 344.91,-1250.72 -1575.74,-441.92 -3082.24,-1043.86 -4536.51,-1793.79 -740.82,-381.81 -1397.48,737.08 -654.59,1120.14z"/>
      </g>
     </g>
    </g>
    <g>
     <path class="fil0" d="M17754.29 58664.16c-738.33,-4804.73 1313.74,-9724.3 5778.11,-13852.88 4391,-4060.6 10613.52,-6881.25 17519.65,-7941.28 8549.02,-1310.83 16998.55,320.04 22596.75,4371.52 1309.59,948.1 2441.75,2016 3365.8,3170.96l-1066.66 853.58c-846.94,-1060.03 -1889.97,-2041.7 -3100.07,-2918.08 -5312.98,-3845.86 -13380.7,-5387.19 -21588.13,-4128.59 -6640.81,1020.23 -12607.13,3716.52 -16800.39,7594.71 -4120.71,3809.79 -6022.29,8299.87 -5355.68,12641.96l-1349.39 208.11z"/>
    </g>
    <g>
     <g>
      <path class="fil1" d="M20536.39 36299.56c-1523.5,-325.43 -3177.18,361.08 -4338.77,1455.51 -442.75,420.36 -831.6,885.91 -1168.23,1389.6 -477.99,-371.44 -994.53,-690.24 -1547.13,-948.92 -1448.05,-670.76 -3233.97,-798.85 -4568.85,-9.12 -3505.09,2062.84 -1789.65,7242.33 -131,9876.02 1564.96,2486.52 4053.14,4033.24 6187.28,4971.8 916.59,400.88 1777.21,694.8 2459.57,893.79 584.94,-404.61 1308.35,-955.56 2050.82,-1625.9 1727.88,-1565.37 3599.2,-3820.16 4296.9,-6673.98 740.4,-3022.96 729.21,-8478.96 -3240.6,-9328.81z"/>
      <path class="fil0" d="M17550.33 54674.45l-311.33 -90.79c-589.5,-172.04 -1508.99,-472.18 -2543.32,-924.05 -2933,-1288.45 -5117.31,-3048.66 -6491.57,-5232.97 -1248.24,-1983.25 -2481.13,-5225.09 -1846.44,-7835.98 317.97,-1310.83 1061.68,-2317.8 2209.6,-2992.7 1420.28,-841.55 3415.55,-849.43 5201.88,-22.8 381.39,179.09 751.18,386.78 1106.46,620.18 262.42,-333.3 547.63,-646.71 851.5,-934.83 1434.37,-1352.29 3333.46,-1972.05 4951.49,-1629.63l0.83 0c1298.81,279 2320.28,999.09 3035.81,2140.36 1426.91,2276.34 1282.23,5743.71 725.48,8020.05 -612.72,2504.76 -2127.51,4864.84 -4502.52,7015.99 -838.24,758.64 -1615.95,1333.63 -2120.47,1681.45l-267.39 185.72zm-6496.54 -16352.26l0 0c-662.88,0 -1283.47,150.48 -1792.96,451.87 -829.95,488.35 -1345.66,1188.54 -1576.15,2139.12 -500.37,2054.97 481.3,4888.89 1675.64,6785.08 1226.26,1949.67 3205.78,3534.11 5884.24,4710.21 798.85,350.72 1524.75,601.52 2063.67,769.42 457.26,-329.16 1066.24,-797.2 1713.78,-1382.97 2168.14,-1964.18 3544.89,-4093.76 4091.69,-6329.06 533.54,-2176.02 568.36,-5176.59 -555.92,-6969.14 -518.61,-827.87 -1227.09,-1329.49 -2164.41,-1529.31 -1186.88,-254.95 -2617.11,237.13 -3728.12,1285.55 -396.73,376 -756.57,803.83 -1067.49,1270.62l-407.1 611.06 -579.55 -451.04c-443.58,-344.08 -920.73,-637.18 -1418.2,-869.33 -706.82,-327.92 -1446.39,-492.08 -2139.12,-492.08z"/>
     </g>
     <g>
      <path class="fil1" d="M35819.5 57583.4c325.43,-1523.92 -361.08,-3177.59 -1455.51,-4339.18 -419.95,-442.75 -885.91,-831.6 -1389.6,-1167.81 371.44,-478.4 690.24,-994.53 948.92,-1547.55 670.76,-1448.05 798.85,-3233.97 9.12,-4568.85 -2062.84,-3504.68 -7242.33,-1789.23 -9876.02,-131 -2486.52,1564.96 -4033.24,4053.55 -4971.8,6187.7 -400.88,916.59 -694.8,1777.21 -893.37,2459.57 404.19,584.53 955.14,1307.93 1625.48,2050.82 1565.37,1727.46 3820.16,3598.78 6673.98,4296.9 3022.96,739.99 8478.96,729.21 9328.81,-3240.6z"/>
      <path class="fil0" d="M29679.48 61884.86c-1210.1,0 -2387.03,-162.92 -3350.88,-398.81 -2506.01,-611.89 -4866.92,-2127.1 -7018.06,-4500.86 -756.98,-838.65 -1331.56,-1615.95 -1681.03,-2118.81l-185.31 -268.22 91.2 -312.16c171.63,-589.09 470.94,-1508.16 923.64,-2542.9 1290.93,-2933.83 3051.98,-5118.14 5233.38,-6491.57 1984.49,-1248.24 5229.24,-2479.47 7836.81,-1847.27 1309.59,318.8 2316.55,1061.68 2991.04,2208.35 841.55,1423.18 850.26,3416.79 22.39,5203.54 -178.26,381.39 -385.12,750.77 -618.94,1105.63 333.3,262.83 645.88,548.05 935.66,853.58 1350.63,1432.3 1974.13,3328.49 1627.56,4950.24 -278.17,1298.81 -997.01,2320.28 -2137.88,3034.98 -1312.91,824.14 -3021.3,1124.28 -4669.59,1124.28zm-10739.13 -7530.45l0 0c329.57,458.5 798.44,1066.66 1382.97,1714.61 1963.76,2168.55 4093.35,3544.89 6329.06,4091.69 2179.33,533.12 5179.08,569.19 6971.21,-556.34 827.46,-518.61 1327.83,-1226.68 1528.48,-2164.41 253.3,-1189.37 -238.79,-2616.28 -1285.13,-3727.29 -377.25,-397.15 -805.49,-757.4 -1271.45,-1067.9l-609.4 -407.1 449.38 -579.97c344.91,-443.99 637.59,-921.56 868.91,-1417.38 640.49,-1382.97 656.66,-2891.13 40.63,-3932.92 -488.76,-830.77 -1187.71,-1345.66 -2138.29,-1576.15 -2053.72,-501.62 -4888.47,482.55 -6786.74,1674.82 -1946.77,1227.09 -3532.04,3205.78 -4710.63,5885.07 -349.47,800.1 -601.52,1525.57 -769.01,2063.26z"/>
     </g>
     <g>
      <path class="fil1" d="M25921.09 69469.62c-1342.75,790.56 -3128.26,662.46 -4576.72,-7.88 -552.61,-258.68 -1069.15,-577.48 -1547.13,-948.92 -336.62,503.69 -725.48,969.24 -1168.23,1389.6 -1161.59,1094.43 -2814.85,1780.94 -4331.31,1453.86 -3977.27,-848.19 -3988.05,-6304.19 -3248.06,-9327.56 697.7,-2853.41 2569.02,-5108.19 4296.9,-6673.56 742.47,-670.34 1465.88,-1221.29 2050.82,-1625.9 682.36,198.99 1542.99,492.5 2459.57,893.37 2134.15,938.97 4622.74,2485.69 6187.28,4972.21 1658.65,2633.69 3374.09,7812.77 -123.12,9874.78z"/>
      <path class="fil0" d="M15069.2 72118.65c-311.33,0 -618.11,-30.68 -916.17,-96.18 -1300.06,-277.34 -2323.6,-996.18 -3039.96,-2139.12 -1428.15,-2275.1 -1283.47,-5740.8 -726.72,-8017.14 612.3,-2504.35 2127.1,-4866.09 4501.27,-7017.23 836.16,-753.67 1614.29,-1329.49 2120.05,-1681.45l267.39 -185.72 312.58 90.79c584.53,170.8 1500.7,469.28 2542.49,924.05 2935.07,1290.93 5118.97,3051.56 6492.4,5234.21 1248.65,1984.49 2482.38,5227.58 1848.1,7838.88 -317.14,1308.35 -1058.78,2313.65 -2202.96,2988.55 -1426.91,839.9 -3423.84,846.53 -5210.17,24.04 -382.22,-178.67 -752.01,-386.78 -1106.04,-620.18 -263.66,333.3 -548.05,646.71 -852.33,934.83 -1171.54,1103.97 -2647.78,1721.66 -4029.92,1721.66zm2449.63 -17640.29l0 0c-459.33,330.4 -1068.73,801.34 -1715.03,1382.97 -2167.73,1964.18 -3544.47,4093.76 -4090.45,6330.31 -533.54,2176.43 -567.53,5174.1 555.92,6966.24 520.27,829.53 1230.41,1329.9 2171.04,1529.72 1179.42,254.95 2608.4,-235.88 3720.66,-1282.64 396.32,-376.42 756.15,-804.24 1068.32,-1271.04l407.93 -610.64 579.55 450.62c441.92,344.08 918.66,635.93 1416.96,869.33 1382.97,640.08 2894.45,656.25 3940.38,38.97 826.21,-487.11 1339.85,-1185.64 1569.93,-2135.39 499.13,-2056.21 -482.96,-4890.13 -1677.72,-6787.56 -1225.43,-1948.42 -3205.37,-3534.11 -5884.24,-4711.46 -803.41,-350.72 -1527.65,-602.77 -2063.26,-769.42z"/>
     </g>
     <g>
      <path class="fil1" d="M2649.44 62967.69c-790.56,-1342.34 -662.46,-3128.26 8.29,-4576.31 258.27,-553.02 577.07,-1069.15 948.51,-1547.55 -503.69,-336.21 -969.24,-725.06 -1389.6,-1167.81 -1094.02,-1161.59 -1780.53,-2815.27 -1453.86,-4331.31 848.19,-3977.69 6304.19,-3988.47 9327.56,-3248.48 2853.41,698.12 5108.19,2569.43 6673.56,4296.9 670.34,742.89 1221.29,1466.29 1625.9,2050.82 -198.99,682.78 -492.5,1542.99 -893.37,2459.57 -938.56,2134.15 -2485.69,4622.74 -4972.21,6187.7 -2633.69,1658.23 -7812.77,3374.09 -9874.78,-123.54z"/>
      <path class="fil0" d="M6569.09 65689.26c-520.69,0 -1031.01,-53.06 -1519.77,-171.63 -1307.93,-317.55 -2312.82,-1059.2 -2987.72,-2203.38 -841.55,-1428.15 -850.26,-3424.25 -23.22,-5210.17 178.67,-381.39 385.12,-750.77 618.52,-1105.63 -332.48,-262.42 -645.88,-548.05 -935.24,-853.16 -1352.29,-1433.54 -1974.54,-3328.49 -1626.31,-4944.85 277.34,-1300.47 997.43,-2324.43 2139.54,-3040.79 2275.93,-1426.91 5742.46,-1282.64 8017.56,-726.72 2505.59,613.55 4866.92,2128.34 7017.64,4502.1 752.42,833.68 1329.07,1612.22 1681.03,2119.22l185.31 267.8 -91.2 312.16c-170.8,586.6 -469.28,1502.77 -923.64,2543.32 -1290.93,2933.83 -3051.56,5118.14 -5233.38,6491.57 -1613.88,1016.08 -4058.94,2020.14 -6319.11,2020.14zm-3331.39 -3068.15l0 0c486.69,825.39 1184.81,1338.61 2133.73,1569.52 2058.28,504.1 4891.79,-481.72 6789.22,-1676.47 1947.18,-1226.68 3532.04,-3205.78 4710.63,-5885.07 350.3,-802.59 602.35,-1526.82 769.01,-2064.09 -331.23,-460.16 -800.93,-1069.56 -1382.97,-1713.78 -1963.76,-2166.9 -4093.35,-3544.47 -6329.89,-4092.52 -2174.77,-532.29 -5173.27,-565.46 -6967.07,557.17 -828.7,520.27 -1329.49,1231.24 -1530.13,2171.04 -254.95,1184.39 236.71,2610.06 1283.47,3720.66 378.08,397.56 806.32,757.4 1271.45,1068.32l610.23 406.68 -449.38 579.97c-344.08,444.41 -636.76,921.56 -870.16,1417.79 -639.66,1381.31 -654.59,2892.37 -38.14,3940.79z"/>
     </g>
     <g>
      <g>
       <path class="fil0" d="M27081.86 51713.26c-3063.17,-242.93 -6220.86,121.88 -8914.25,1685.18 -721.75,419.12 -69.23,1540.5 654.59,1120.14 2505.59,-1454.27 5418.69,-1733.27 8259.66,-1508.16 832.43,65.91 827.87,-1231.65 0,-1297.15z"/>
      </g>
     </g>
     <g>
      <g>
       <path class="fil0" d="M20179.46 62636.45c242.52,-3063.17 -121.88,-6220.86 -1685.59,-8914.25 -419.12,-721.75 -1540.5,-69.23 -1120.14,655 1454.69,2505.59 1733.68,5418.69 1508.16,8259.25 -65.91,832.43 1231.65,828.29 1297.57,0z"/>
      </g>
     </g>
     <g>
      <g>
       <path class="fil0" d="M9542.3 56340.14c3063.17,242.93 6220.86,-121.88 8914.25,-1685.59 721.75,-418.7 69.23,-1540.5 -655,-1120.14 -2505.18,1454.69 -5418.69,1733.68 -8259.25,1508.58 -832.43,-65.91 -827.87,1231.65 0,1297.15z"/>
      </g>
     </g>
     <g>
      <g>
       <path class="fil0" d="M15944.74 44637.16c-242.1,3063.59 123.12,6220.86 1687.25,8913.83 419.53,721.75 1540.91,69.23 1120.55,-654.59 -1455.51,-2505.18 -1735.34,-5418.28 -1510.65,-8259.25 65.91,-832.02 -1232.07,-827.87 -1297.15,0z"/>
      </g>
     </g>
    </g>
    <g>
     <g>
      <path class="fil0" d="M62920.84 42355.01c1156.62,848.6 2197.57,1829.45 3102.14,2943.36 526.07,648.37 1439.35,-274.44 917.42,-917 -977.11,-1203.88 -2116.74,-2230.74 -3364.56,-3146.5 -673.66,-494.57 -1321.61,630.96 -655,1120.14z"/>
     </g>
    </g>
    <g>
     <path class="fil0" d="M40373.43 58262.45c0.41,-28.19 26.12,-58.04 62.6,-98.66 600.28,-659.98 1275.18,-1257.77 2038.8,-1718.76 1130.5,-682.36 2434.7,-977.94 3747.19,-989.55 611.06,-5.39 1245.75,5.39 1827.79,212.67 126.03,44.77 316.31,99.91 414.97,194.01 105.3,100.32 -17,300.14 -78.35,424.09 -239.2,480.47 -638.42,915.76 -1029.76,1277.25 -549.7,507.42 -1196.83,910.37 -1897.43,1173.61 -148.83,55.55 -296.41,111.1 -449.38,156.29 -1450.95,429.48 -3103.8,312.99 -4420.44,-460.57 -53.06,-31.51 -105.71,-63.43 -157.12,-96.59 -42.28,-27.36 -59.28,-49.75 -58.87,-73.79z"/>
     <path class="fil0" d="M43314.72 59820.36c-1098.99,1.24 -2174.36,-271.95 -3071.46,-800.1l-504.52 -317.14 -48.09 -456.43 6.22 -255.78 235.88 -288.12c707.24,-777.3 1424.01,-1381.72 2190.53,-1843.13 1169.88,-706.82 2547.46,-1072.05 4092.52,-1086.56 670.76,2.49 1378.41,7.88 2062.43,250.39 219.3,76.28 467.21,161.68 659.15,346.99 306.77,290.61 333.72,691.9 76.28,1188.12 -255.37,511.98 -640.08,994.94 -1193.51,1505.68 -615.62,567.94 -1348.97,1021.47 -2121.71,1310.83 -174.11,66.74 -331.65,125.2 -495.4,173.29 -617.69,182.82 -1256.94,271.95 -1888.31,271.95zm-1864.27 -1721.66l0 0c1012.77,420.36 2231.57,476.33 3364.97,140.12 132.24,-38.55 258.68,-86.64 386.37,-134.73 625.98,-234.64 1204.71,-593.23 1691.4,-1042.61 314.24,-291.02 552.61,-557.58 722.99,-808.39 -453.53,-113.17 -914.1,-118.56 -1388.36,-114.42 -1296.32,12.02 -2440.51,311.75 -3399.79,890.47 -473.01,285.63 -926.95,637.59 -1377.58,1069.56z"/>
    </g>
    <g>
     <path class="fil0" d="M30480.4 31564.47c-24.46,-14.92 -36.9,-52.23 -52.65,-104.47 -257.44,-854.4 -423.26,-1740.32 -426.17,-2632.45 -4.15,-1320.37 412.9,-2590.99 1077.85,-3722.73 309.26,-526.9 644.64,-1065.42 1121.79,-1458.42 103.23,-84.98 248.74,-220.13 380.15,-256.2 140.12,-38.55 248.74,168.73 323.36,285.63 288.95,451.87 457.26,1017.74 565.87,1539.26 152.56,732.52 165.82,1494.9 31.09,2231.15 -28.6,156.29 -56.79,311.33 -96.59,465.96 -377.66,1465.05 -1327.42,2823.14 -2668.1,3554.42 -53.89,29.43 -108.2,58.04 -163.34,85.4 -45.19,22.39 -73.38,25.29 -93.28,12.44z"/>
     <path class="fil0" d="M30540.52 32327.68l-640.91 -329.16 -124.78 -337.45c-299.73,-997.43 -453.11,-1948.42 -456.01,-2831.02 -3.73,-1352.29 400.88,-2759.3 1171.54,-4070.13 336.62,-574.99 713.45,-1176.1 1276.84,-1640.41 172.87,-145.1 375.59,-317.14 633.45,-388.03 410.83,-111.93 764.86,70.89 1057.54,541.41 312.99,490.84 528.15,1069.56 681.53,1804.16 169.97,820.41 181.99,1681.86 33.16,2491.08 -31.92,179.09 -63.01,346.99 -106.96,514.88 -440.26,1709.64 -1562.47,3197.9 -3002.23,3983.49l-523.17 261.17zm1939.72 -8009.27l0 0c-330.82,330.82 -572.92,724.23 -811.71,1132.16 -656.66,1116.41 -987.48,2251.05 -984.16,3374.09 1.24,543.9 72.13,1123.87 210.18,1732.02 878.86,-650.44 1553.76,-1666.94 1848.93,-2814.85 35.24,-135.98 60.11,-273.61 85.4,-412.07 118.15,-645.47 108.61,-1325.76 -26.53,-1974.96 -87.06,-417.46 -192.77,-760.3 -322.11,-1036.4z"/>
    </g>
    <g>
     <path class="fil0" d="M33616.54 65241.12c-69.23,-118.98 35.65,-263.24 169.55,-229.25 628.06,159.6 1507.33,355.69 1911.94,409.17 812.12,107.79 1618.44,292.26 2383.71,587.01 1014.42,390.51 1972.47,955.56 2744.79,1726.22 651.27,649.61 1229.17,1448.88 1363.48,2374.59 18.24,127.68 -74.62,246.66 -201.48,271.12 -604.43,114.83 -2329.4,349.06 -3930.84,-324.18 -406.27,-222.2 -1857.64,-633.86 -3374.09,-2983.99l-1067.07 -1830.69z"/>
     <path class="fil0" d="M40521.42 71197.09c-809.22,0 -1783.43,-114.83 -2728.21,-511.98l-226.35 -106.96c-607.33,-276.1 -2028.43,-922.81 -3457,-3137.79l-1082.83 -1854.73c-171.63,-293.51 -150.07,-657.49 54.72,-929.85 203.13,-269.05 542.66,-388.03 875.96,-305.11 606.08,154.63 1458.83,345.33 1829.45,393.42 919.08,121.05 1773.9,332.06 2540,626.81 1186.05,457.26 2189.7,1089.46 2981.92,1878.78 897.52,896.28 1420.69,1824.47 1556.25,2761.79 71.3,489.59 -257.44,945.61 -749.11,1038.88 -329.99,62.6 -902.08,146.75 -1594.81,146.75zm-5698.1 -5242.09l0 0 450.62 771.91c1194.76,1852.25 2317.8,2361.74 2857.97,2607.16 104.05,48.09 188.62,86.64 252.47,121.47 1085.73,453.53 2313.65,403.78 3023.79,322.53 -175.36,-506.59 -531.88,-1030.59 -1063.34,-1561.64 -656.66,-654.59 -1501.12,-1182.74 -2508.49,-1570.76 -665.37,-256.2 -1414.89,-440.26 -2227.01,-546.8 -194.84,-26.53 -475.91,-78.77 -786,-143.85zm-1206.36 -281.49l0 0 3.32 1.24 -3.32 -1.24z"/>
    </g>
   </g>
  </g>
 </g>
</svg>
