<?xml version="1.0" encoding="UTF-8"?>
<!DOCTYPE svg PUBLIC "-//W3C//DTD SVG 1.1//EN" "http://www.w3.org/Graphics/SVG/1.1/DTD/svg11.dtd">
<!-- Creator: CorelDRAW 2021 (64-Bit) -->
<svg xmlns="http://www.w3.org/2000/svg" xml:space="preserve" width="26.5613mm" height="22.5209mm" version="1.1" style="shape-rendering:geometricPrecision; text-rendering:geometricPrecision; image-rendering:optimizeQuality; fill-rule:evenodd; clip-rule:evenodd"
viewBox="0 0 15947.17 13521.35"
 xmlns:xlink="http://www.w3.org/1999/xlink"
 xmlns:xodm="http://www.corel.com/coreldraw/odm/2003">
 <defs>
  <style type="text/css">
   <![CDATA[
    .fil0 {fill:#003A4E;fill-rule:nonzero}
    .fil2 {fill:#85C2BD;fill-rule:nonzero}
    .fil1 {fill:#E8C094;fill-rule:nonzero}
   ]]>
  </style>
 </defs>
 <g id="Layer_x0020_1">
  <metadata id="CorelCorpID_0Corel-Layer"/>
  <g id="_2382164534784">
   <g>
    <g>
     <path class="fil0" d="M9732.76 9259.95l-95.34 -152.5c50.67,-31.64 157.12,-124.22 376.75,-385.45 268.86,-319.23 553.8,-709.96 556.62,-713.8 216.98,-216.98 -1.74,-635.27 -3.96,-639.48l-887.68 -1372.25c-4.14,-6.54 -9.67,-9.67 -17.95,-9.31 -5.1,0.36 -14.47,2.28 -20.29,12.97 -225.33,419.91 216.2,1054.83 220.76,1061.31 194.71,350.87 158.08,899.69 -197.41,1139.48 -118.16,79.91 -262.61,131.25 -454.56,161.81 -621.04,98.58 -1091.99,-124.88 -1590.56,-361.56 -170.33,-80.81 -346.43,-164.27 -529.97,-234.51 -371.7,-142.17 -759.91,-158.86 -1122.25,-47.97 -194.11,59.2 -386.59,158.62 -624.05,322.35 -91.08,62.74 -179.88,128.6 -268.8,194.53 -140.07,103.63 -284.95,210.98 -437.5,305.3 -255.11,157.42 -541.85,250.9 -819.05,341.38 -66.94,21.91 -133.77,43.71 -199.93,66.22l-112.93 39.51c-147.7,51.99 -300.44,105.79 -460.68,139.53l-37.04 -176.03c148.6,-31.28 289.15,-80.81 437.99,-133.17l114.43 -39.93c66.94,-22.99 134.55,-44.97 202.39,-67.06 267.23,-87.18 543.47,-177.48 780.27,-323.61 146.14,-90.18 287.89,-195.19 424.9,-296.77 90.6,-67.12 181.14,-134.19 273.9,-198.13 157.24,-108.25 398,-261.95 673.58,-346.31 401.24,-122.42 829.74,-104.53 1239.09,52.17 190.02,72.77 369.36,157.78 542.81,239.98 472.63,224.19 919.08,435.88 1485.19,346.31 165.05,-26.18 286.45,-68.5 382.15,-132.99 267.17,-180.42 297.31,-621.22 145.77,-895.12 -15.73,-21.25 -504.99,-723.83 -226.95,-1241.73 34.58,-64.48 98.7,-104.71 171.53,-107.71 71.87,0 137.31,31.28 176.21,91.38l891.52 1378.74c15.43,28.28 287.83,546.9 -14.77,847.33l0.06 0c0,0 -284.59,391.58 -555.24,713.08 -191.04,227.19 -328.17,365.28 -419.01,422.01z"/>
    </g>
    <g>
     <path class="fil0" d="M10538.06 9893.78l-124.58 -129.98c93,-89.04 185.52,-179.04 277.92,-268.8l177.9 -172.49c82.13,-79.61 164.51,-159.04 247.6,-237.57 77.33,-73.25 158.2,-144.03 239.32,-215 143.43,-125.6 291.79,-255.47 415.65,-397.4 185.76,-213.26 269.16,-432.88 254.99,-671.48 -13.15,-221.72 -91.26,-456.6 -238.66,-717.47 -310.46,-549.72 -688.05,-1063.05 -1048.28,-1541.8 -131.01,346.79 -113.41,706.06 47.85,985.72l9.43 16.39c190.44,329.91 387.37,671.24 412.59,1085.69 17.53,287.95 -162.35,438.89 -336.28,584.66l-705.82 604.71 -117.2 -136.65 707.44 -605.79c158.8,-133.35 284.35,-238.54 272.28,-436 -22.63,-372.12 -200.53,-680.42 -388.87,-1006.86l-9.37 -16.15c-188.34,-326.79 -210.44,-741.9 -60.46,-1139.12 23.3,-61.72 78.11,-105.79 143.07,-114.91 64.78,-9.67 129.56,17.53 169.13,70.25 363.72,483.31 745.33,1002.11 1061.19,1561.32 161.08,285.49 246.64,545.7 261.53,795.52 16.87,283.86 -83.75,553.2 -298.93,800.02 -131.85,151.3 -284.89,285.13 -432.82,414.81 -79.31,69.41 -158.44,138.63 -234.09,210.32 -82.55,78.17 -164.45,156.88 -246.1,236.07l-177.66 172.19c-92.76,90.12 -185.52,180.24 -278.76,269.82z"/>
    </g>
    <g>
     <path class="fil0" d="M10130.64 11120.44c-159.16,0 -326.01,-32.36 -495.68,-98.4 -186,-65.32 -375.12,-130.34 -564.13,-195.37 -308.84,-106.27 -617.74,-212.36 -924.72,-324.27 -451.67,-164.45 -963.69,-351.05 -1482.67,-375.96 -766.52,-35.84 -1501.52,270 -2213.34,566.23l-37.34 15.61c-182.22,75.71 -363.18,150.76 -543.23,219.08l-63.76 -168.29c178.32,-67.66 357.53,-141.99 537.95,-216.98l37.22 -15.49c730.26,-303.92 1486.93,-619.6 2291.09,-579.74 546.3,26.18 1071.94,217.7 1535.68,386.53 306.02,111.55 613.84,217.28 921.6,323.25 189.48,65.14 378.97,130.34 568.09,196.75 434.26,168.83 825.36,92.76 1104.06,-212.6 133.53,-146.32 265.67,-294.25 397.88,-442.37 361.26,-404.6 734.88,-823.26 1137.08,-1201.98l24.08 -22.69c91.02,-85.38 176.94,-166.19 239.92,-262.43 152.14,-233.31 126.92,-500.91 100.21,-784.29 -5.1,-53.55 -10.09,-106.99 -13.87,-160.18l-193.27 -2689.57c-0.9,-12.13 -9.55,-17.53 -13.27,-19.33 -10.21,-4.74 -16.51,-0.54 -18.61,0.9 -444.29,305.18 -438.05,835.38 -431.98,1348.18l3.9 774.92 -179.88 0.72 -3.96 -773.54c-6.3,-533.87 -13.45,-1138.94 510.09,-1498.58 59.32,-40.59 133.47,-45.99 198.61,-14.59 65.44,31.64 109.39,96.12 114.49,168.53l193.21 2689.33c3.78,51.99 8.71,104.17 13.63,156.34 28.4,301.64 57.82,613.3 -128.66,899.51 -74.75,114.37 -172.73,206.23 -267.41,295.33l-23.9 22.51c-396.62,373.5 -767.54,788.97 -1126.21,1190.76 -132.63,148.66 -265.19,297.07 -399.26,443.75 -215.9,236.67 -495.5,358.43 -803.62,358.43z"/>
    </g>
    <g>
     <path class="fil0" d="M10598.64 11191.41c-122.36,0 -244,-22.33 -360.17,-78.17l78.05 -161.99c323.13,155.14 725.09,-19.87 1047.92,-160.42l24.68 -10.69c275.58,-132.45 565.99,-253.18 846.79,-370.2 125,-51.99 249.82,-103.81 373.86,-157.06 78.53,-33.68 158.56,-63.04 238.6,-92.4 107.83,-39.69 209.66,-77.09 309.8,-125.42 180.78,-87.48 360.17,-191.34 533.15,-308.66 246.16,-167.09 483.92,-358.73 713.68,-543.95 154.06,-124.16 308.12,-248.38 466.02,-366.96l868.23 -651.3c28.7,-21.43 28.52,-37.76 27.62,-44.25 -1.02,-8.77 -5.22,-20.35 -19.27,-26.36 -365.64,-152.68 -727.67,0.9 -1064.67,189.9 -235.23,131.97 -469.33,275.34 -695.79,426.22 -77.27,51.63 -152.86,106.99 -228.45,162.53 -139.05,102.07 -282.96,207.5 -438.95,290.05 -213.8,113.11 -425.44,179.7 -629.03,197.47 -121.52,10.57 -244.24,3 -362.7,-4.38 -48.51,-3 -96.9,-6 -144.87,-7.56l6.3 -179.88c49.53,1.74 99.54,4.92 149.68,7.87 112.03,7.02 227.91,13.87 335.92,4.74 179.46,-15.61 368.04,-75.35 560.53,-177.24 144.39,-76.43 282.84,-177.96 416.73,-276.18 77.75,-56.92 155.5,-114.01 235.05,-167.09 230.25,-153.52 468.37,-299.35 707.68,-433.42 358.43,-201.13 784.23,-382.63 1222.04,-198.85 70.97,29.66 118.94,93.3 128.42,170.03 9.55,77.15 -23.12,154.12 -85.2,200.65l-881.25 661.09c-156.28,117.2 -308.66,239.98 -461.16,363 -232.59,187.62 -473.23,381.55 -725.57,552.84 -180.18,122.3 -367.2,230.49 -555.84,321.69 -108.07,52.17 -218.9,92.94 -326.07,132.27 -77.03,28.28 -154,56.62 -229.71,89.1 -124.64,53.25 -250.12,105.43 -375.6,157.78 -278.76,115.94 -566.89,235.71 -841.09,367.5l-27.68 12.13c-239.02,104.17 -540.65,235.59 -837.67,235.59z"/>
    </g>
    <g>
     <path class="fil0" d="M13258.56 9177.4l-147.88 -102.25c15.01,-21.79 -3.78,-99.3 -39.27,-134.79 -61.54,-61.12 -191.34,-43.71 -283.74,-25.46l-28.04 5.28c-26.54,4.74 -96.96,17.35 -114.37,31.46l-129.56 -124.76c51.99,-55 144.57,-71.69 212.12,-83.81l24.44 -4.56c133.29,-26.18 324.09,-47.61 446.27,74.69 75.41,75.35 140.25,248.38 60.04,364.2z"/>
    </g>
    <g>
     <g>
      <path class="fil0" d="M3048.19 9121.92c192.67,-42.87 376.87,-111.73 563.05,-176.03 103.33,-35.66 58.96,-200.77 -45.45,-164.75 -186.18,64.24 -370.38,133.11 -563.05,175.97 -107.35,23.84 -61.9,188.64 45.45,164.81z"/>
     </g>
    </g>
    <g>
     <g>
      <path class="fil0" d="M4355.48 10542.81c-179.4,74.63 -359.03,148.66 -540.59,218 -101.71,38.91 -57.58,204.19 45.45,164.81 181.56,-69.35 361.2,-143.43 540.59,-218.06 100.09,-41.61 56.2,-207.01 -45.45,-164.75z"/>
     </g>
    </g>
    <g>
     <g>
      <path class="fil0" d="M10022.63 8719.6c-113.65,134.43 -231.99,292.27 -380.65,390.31 -91.44,60.28 -5.94,208.34 86.22,147.58 162.59,-107.29 290.89,-269.88 415.29,-417.03 70.61,-83.51 -49.71,-204.97 -120.86,-120.86z"/>
     </g>
    </g>
    <g>
     <g>
      <path class="fil0" d="M10871.4 9326.65c-152.08,147.22 -303.44,295.15 -456.12,441.77 -79.49,76.37 41.49,197.11 120.86,120.86 152.68,-146.62 304.04,-294.55 456.12,-441.83 79.13,-76.61 -41.79,-197.41 -120.86,-120.8z"/>
     </g>
    </g>
   </g>
   <g>
    <path class="fil1" d="M11006.01 3437.54c42.57,-9.19 41.13,-70.37 -1.8,-77.63l-901.97 -151.6 -194.89 -32.9c-105.91,-17.23 -167.27,-123.2 -133.77,-223.77l352.97 -1008.54c12.55,-35.84 -27.74,-67 -59.26,-45.93l-720.17 481.63c-21.97,14.71 -51.87,4.08 -59.68,-21.13l-197.23 -638.28 -145.59 -459.3c-0.78,0.78 -1.5,1.62 -2.22,2.4l-169.07 -538.97c-12.31,-39.27 -68.92,-36.44 -76.43,4.02 -58.84,316.59 -187.26,1006.38 -189.18,1008.66 -53.19,279.48 -99.42,523.84 -121.94,624.47 -5.52,24.86 -32.96,37.58 -55.84,26.36l-264.71 -129.92c-0.84,1.02 -1.68,2.16 -2.52,3.18l-395.3 -194.83c-33.32,-16.45 -69.04,17.53 -53.67,51.33 71.03,155.68 199.99,439.07 204.91,453.42 0.3,0.96 0.36,1.02 0.78,1.92l128.18 273.06c41.61,88.32 -1.08,192.73 -92.04,225.69l-1381.5 258.29c-41.67,7.81 -43.47,66.82 -2.4,77.15l640.08 161.08c0.84,0.24 1.8,0.42 1.8,0.42 157.24,28.1 313.58,56.02 453.18,78.35 0,0 235.11,41.49 341.32,56.56 26.42,3.72 41.43,31.76 29.66,55.72 -72.95,148.36 -316.71,574.39 -437.02,783.21 -19.81,34.34 17.65,72.95 52.65,54.4 186.36,-98.94 534.23,-285.67 651.42,-362.82 21.73,-14.29 50.49,-4.02 58.36,20.77 75.29,236.43 355.73,1195.2 464.4,1567.68 11.53,39.33 67.72,36.68 76.37,-3.36l316.41 -1463.21c4.92,-22.75 28.34,-36.32 50.49,-29.3l748.45 236.79c34.16,10.81 63.94,-25.7 46.41,-56.98l-395.6 -706.36c-12.97,-23.24 0.18,-52.35 26.18,-57.94l1409.78 -303.8z"/>
    <path class="fil0" d="M8764.69 5939.73c-57.82,0 -107.11,-36.74 -123.5,-92.76 -82.91,-284.47 -345.4,-1182.53 -444.11,-1502.84 -149.44,89.64 -432.1,241.42 -601.59,331.36 -51.09,27.44 -113.17,17.59 -153.7,-24.26 -40.47,-41.79 -48.15,-103.81 -19.15,-154.42 73.55,-127.34 299.54,-520.9 402.38,-715.73 -116.36,-18.61 -273.84,-46.41 -273.84,-46.41 -138.75,-22.09 -295.69,-50.01 -452.57,-78.17l-648.9 -162.83c-59.56,-15.13 -99.72,-68.32 -97.74,-129.86 1.92,-61.12 45.39,-111.91 105.67,-122.96l1381.38 -258.23c5.52,-3.36 20.89,-18.13 28.88,-37.46 8.29,-19.99 7.69,-41.97 -1.62,-61.66l-128.24 -273c-14.23,-35.3 -137.49,-306.02 -206.11,-456.42 -22.99,-50.07 -12.19,-107.53 27.62,-146.2 39.75,-38.61 97.74,-47.43 147.82,-22.99l604.17 292.87c22.21,-108.55 56.02,-286.03 94.44,-487.7l18.07 -93.48c16.81,-86.28 85.02,-451.13 184.38,-985.54 11.05,-59.26 58.96,-101.59 119.06,-105.07 60.7,-4.38 113.71,33.56 131.67,90.48l118.76 378.61 6.06 -7.56 46.35 165.29 323.07 1033.57 663.91 -443.99c46.47,-30.74 107.29,-28.46 151.18,5.28 44.13,34.1 61.42,92.4 43.05,144.93l-352.91 1008.78c-7.69,22.87 -5.1,47.43 7.38,68.2 12.07,19.99 31.88,33.2 55.78,37.04l1097.39 184.62c62.08,10.39 106.51,61.66 107.95,124.76 1.38,62.86 -40.59,116.12 -102.19,129.32l0 0.12 -1343.01 289.57 362.22 646.68c26.06,46.53 21.13,103.45 -12.49,144.93 -33.74,41.49 -88.56,57.82 -139.23,41.97l-695.91 -220.46 -304.7 1409.18c-12.49,58.12 -62.74,100.15 -122.12,102.43 -1.62,0 -3.3,0 -4.98,0zm-538.73 -1803.03l0 0c14.29,0 28.82,2.4 42.75,7.32 38.49,13.57 67.66,43.59 80.15,82.61 65.62,205.87 287.47,962.19 409.05,1378.38l274.44 -1268.93c7.75,-35.48 30.02,-66.1 61.24,-84.35 31.34,-18.43 69.47,-22.63 103.81,-11.95l627.53 198.73 -333.34 -595.41c-20.05,-35.84 -21.85,-79.43 -5.04,-116.48 16.81,-37.22 50.73,-64.48 90.66,-73.07l1152.39 -248.62 -837.31 -140.91c-75.11,-12.31 -141.03,-56.56 -180.24,-121.4 -39.69,-65.68 -48.39,-145.59 -23.72,-219.38l303.5 -867.38 -594.69 397.76c-33.74,22.51 -76.85,27.74 -115.16,14.41 -38.36,-13.51 -68.44,-44.79 -80.45,-83.81l-453.36 -1440.4c-104.89,564.13 -138.87,744.91 -154.72,808.67l2.64 0.54 -13.45 70.61c-47.73,250.66 -88.32,464.16 -109.09,556.74 -8.53,38.67 -34.04,70.79 -69.89,88.02 -36.2,17.35 -77.69,17.05 -113.41,-0.72l-197.65 -96.96 -0.18 0.18 -69.59 -29.9 -268.31 -132.27c143.07,314.66 147.22,326.43 149.2,332.56l125.36 265.61c30.56,65.2 32.48,140.55 5.1,206.83 -27.14,65.86 -81.05,117.5 -148,141.75l-1169.74 219.8 417.21 104.89c152.38,27.02 308.12,54.94 447.35,77.09 1.56,0.36 234.45,41.49 339.7,56.38 40.77,5.64 76.73,30.92 96.06,67.3 19.27,36.38 19.87,80.27 1.68,117.2 -60.16,122.24 -229.95,422.13 -352.13,635.63 184.08,-98.94 402.74,-218.9 489.02,-275.64 21.31,-14.11 45.81,-21.43 70.61,-21.43zm28.52 171.59l0 0 -0.24 0.18 0.24 -0.18zm-359.09 -516.52l0 0 0.18 0 -0.18 0zm3091.71 -442.37l0 0 -0.3 0.18 0.3 -0.18zm-3359.55 -1203.24l0 0 0.3 0.18 -0.3 -0.18z"/>
   </g>
   <g>
    <path class="fil0" d="M8623.06 13521.35c-1198.38,0 -2969.71,-628.07 -4769.93,-1774.28 -1298.83,-826.92 -2399.76,-1795.65 -3100.06,-2727.64 -718.07,-955.52 -931.75,-1767.37 -601.53,-2285.99 518.56,-813.77 2240.42,-700.66 4387,288.85 161.69,74.63 325.17,154.06 489.8,238l-81.71 160.24c-162.47,-82.91 -323.85,-161.27 -483.43,-234.87 -2028.12,-935.17 -3699.91,-1077.64 -4159.87,-355.61 -282.84,444.35 -66.58,1202.94 593.55,2081.32 687.63,915.18 1771.75,1868.24 3052.87,2683.93 2576.64,1640.75 5260.57,2230.51 5860.42,1288.14 125.36,-196.81 155.44,-451.37 89.34,-756.67 -29.6,-136.71 -78.77,-283.74 -145.96,-436.78l164.63 -72.35c72.11,164.09 125,322.53 157.18,471.19 76.43,353.09 38.24,652.99 -113.35,891.22 -233.25,366.3 -706.24,541.31 -1338.93,541.31z"/>
   </g>
   <g>
    <g>
     <path class="fil0" d="M4457.66 7177.8c163.79,75.71 325.95,154.6 486.74,236.43 97.8,49.83 184.44,-97.56 86.28,-147.52 -160.78,-81.89 -323.01,-160.78 -486.74,-236.49 -99.18,-45.87 -186.06,101.35 -86.28,147.58z"/>
    </g>
   </g>
   <g>
    <g>
     <path class="fil0" d="M9762.06 11696.88c60.64,140.13 109.45,284.53 142.95,433.54 24.14,107.29 188.94,61.84 164.81,-45.45 -36.8,-163.85 -93.6,-320.37 -160.18,-474.37 -43.53,-100.69 -190.8,-13.75 -147.58,86.28z"/>
    </g>
   </g>
   <g>
    <path class="fil0" d="M5779 4785l84.17 281.76c49.47,165.71 179.1,295.27 344.74,344.8l281.76 84.11c29.24,8.77 29.24,50.13 0,58.84l-281.76 84.17c-165.65,49.53 -295.27,179.1 -344.74,344.8l-84.17 281.76c-8.77,29.18 -50.13,29.18 -58.84,0l-84.17 -281.76c-49.47,-165.71 -179.1,-295.27 -344.8,-344.8l-281.76 -84.17c-29.18,-8.71 -29.18,-50.07 0,-58.84l281.76 -84.11c165.71,-49.53 295.33,-179.1 344.8,-344.8l84.17 -281.76c8.71,-29.18 50.07,-29.18 58.84,0z"/>
    <path class="fil2" d="M5749.52 6377.17c-53.73,0 -100.15,-34.64 -115.52,-86.28l-84.23 -281.64c-40.95,-137.19 -147.22,-243.46 -284.17,-284.23l-281.88 -84.17c-51.75,-15.61 -86.28,-62.2 -86.16,-116.12 0.12,-53.73 34.94,-100.15 86.52,-115.28l281.4 -84.11c137.07,-40.95 243.34,-147.22 284.29,-284.29l84.23 -281.94c15.37,-51.51 61.78,-86.1 115.52,-86.1 53.86,0 100.21,34.58 115.58,86.28l84.23 281.58c40.95,137.25 147.28,243.52 284.35,284.47l281.7 84.11c51.21,15.13 86.04,61.54 86.22,115.28 0.06,53.92 -34.46,100.51 -86.04,115.94l-281.88 84.35c-137.07,40.77 -243.4,147.04 -284.35,284.05l-84.23 282c-15.37,51.45 -61.72,86.1 -115.58,86.1zm-524.26 -852.07l0 0 91.74 27.38c195.25,58.36 346.79,209.78 405.08,405.32l27.44 91.68 27.5 -91.86c58.3,-195.37 209.84,-346.79 405.26,-405.14l91.62 -27.38 -91.68 -27.26c-195.43,-58.48 -346.91,-209.9 -405.2,-405.44l-27.44 -91.74 -27.5 91.92c-58.3,195.37 -209.72,346.79 -405.08,405.26l-91.74 27.26zm1238.61 56.74l0 0c0.18,0.18 0.24,0.18 0.24,0.18l-0.24 -0.18zm-1428.33 0l0 0 -0.36 0.18c0.12,-0.18 0.3,-0.18 0.36,-0.18zm657.25 -771.26l0 0c0,0.18 0,0.18 0,0.18l0 -0.18z"/>
   </g>
   <g>
    <path class="fil2" d="M12147.71 111.97l84.17 281.76c49.47,165.71 179.1,295.33 344.74,344.8l281.76 84.17c29.24,8.71 29.24,50.07 0,58.84l-281.76 84.11c-165.65,49.53 -295.27,179.1 -344.74,344.8l-84.17 281.76c-8.71,29.24 -50.13,29.24 -58.84,0l-84.17 -281.76c-49.47,-165.71 -179.1,-295.27 -344.74,-344.8l-281.76 -84.11c-29.24,-8.77 -29.24,-50.13 0,-58.84l281.76 -84.17c165.65,-49.47 295.27,-179.1 344.74,-344.8l84.17 -281.76c8.71,-29.18 50.13,-29.18 58.84,0z"/>
    <g>
     <path class="fil0" d="M12118.29 1704.15l-0.18 0c-53.73,-0.18 -100.15,-34.76 -115.4,-86.28l-84.17 -281.58c-41.01,-137.25 -147.28,-243.52 -284.23,-284.29l-281.88 -84.11c-51.75,-15.67 -86.28,-62.2 -86.1,-116.18 0.18,-53.73 34.88,-100.15 86.34,-115.22l281.52 -84.17c137.07,-40.95 243.34,-147.22 284.35,-284.41l84.17 -281.82c15.25,-51.27 61.66,-85.92 115.4,-86.1l0.18 0c53.67,0 100.09,34.64 115.52,85.92l0.12 0.18 84.11 281.82c40.95,137.19 147.22,243.46 284.35,284.41l281.7 84.17c51.21,15.07 86.04,61.48 86.22,115.22 0.06,53.98 -34.46,100.51 -86.04,116l-281.88 84.29c-137.13,40.77 -243.4,147.04 -284.35,284.11l-84.11 281.94c-15.55,51.51 -61.96,86.1 -115.64,86.1zm-524.32 -852.07l0 0 91.74 27.44c195.25,58.3 346.79,209.78 405.2,405.08l27.38 91.92 27.44 -91.92c58.3,-195.31 209.84,-346.79 405.26,-405.08l91.62 -27.44 -91.68 -27.2c-195.43,-58.54 -346.91,-210.14 -405.2,-405.5l-27.44 -91.68 -27.38 91.86c-58.42,195.37 -209.9,346.79 -405.2,405.32l-91.74 27.2zm1238.55 56.74l0 0 0.48 0.18 -0.48 -0.18zm-1428.27 0l0 0 -0.36 0.18 0.36 -0.18zm657.43 -770.9l0 0 0 0z"/>
    </g>
   </g>
   <g id="_2382164536512">
    <g>
     <path class="fil2" d="M11707.21 3819.15c36.44,-14.95 76.43,-23.18 118.28,-23.18 172.49,0 312.32,139.83 312.32,312.32 0,172.49 -139.83,312.32 -312.32,312.32 -124.16,0 -231.39,-72.41 -281.76,-177.3 -19.57,-40.89 -30.56,-86.64 -30.56,-135.03l194.05 -289.15z"/>
     <path class="fil0" d="M11825.42 4510.5c-153.82,0 -296.29,-89.58 -362.76,-228.21 -26.18,-54.82 -39.45,-113.29 -39.45,-173.93l179.88 0c0,33.56 7.32,65.92 21.79,96.12 36.74,76.61 115.52,126.14 200.53,126.14 122.66,0 222.44,-99.6 222.44,-222.26 0,-122.6 -99.78,-222.38 -222.44,-222.38 -29.12,0 -57.46,5.64 -84.11,16.51l-68.2 -166.55c48.39,-19.87 99.72,-29.84 152.32,-29.84 221.84,0 402.32,180.42 402.32,402.26 0,221.72 -180.48,402.14 -402.32,402.14z"/>
    </g>
    <g>
     <g>
      <path class="fil0" d="M11617.51 4200.16c-12.97,-30.38 -17.41,-59.08 -18.91,-91.86 -4.98,-109.51 -175.91,-110.11 -170.93,0 2.94,64.78 16.93,118.82 42.33,178.14 43.05,100.87 190.32,13.87 147.52,-86.28z"/>
     </g>
    </g>
    <g>
     <g>
      <path class="fil0" d="M11729.9 3901.58c33.5,-11.89 59.56,-18.37 95.58,-20.11 109.45,-5.4 110.11,-176.33 0,-170.93 -49.11,2.4 -94.62,9.79 -141.03,26.24 -102.91,36.5 -58.6,201.67 45.45,164.81z"/>
     </g>
    </g>
   </g>
   <g id="_2382164537712">
    <g>
     <path class="fil2" d="M5318.98 1700.13c36.44,-14.95 76.37,-23.18 118.28,-23.18 172.49,0 312.32,139.83 312.32,312.32 0,172.49 -139.83,312.32 -312.32,312.32 -124.16,0 -231.39,-72.47 -281.76,-177.36 -19.57,-40.83 -30.56,-86.64 -30.56,-134.97l194.05 -289.15z"/>
     <path class="fil0" d="M5437.26 2391.6c-153.82,0 -296.23,-89.58 -362.82,-228.39 -26.18,-54.28 -39.51,-112.93 -39.51,-173.93l179.88 0c0,33.74 7.32,66.04 21.73,95.76 36.98,77.15 115.64,126.68 200.71,126.68 122.6,0 222.38,-99.78 222.38,-222.44 0,-122.6 -99.78,-222.38 -222.38,-222.38 -29.18,0 -57.58,5.58 -84.35,16.51l-67.96 -166.55c48.45,-19.87 99.66,-29.9 152.32,-29.9 221.78,0 402.32,180.42 402.32,402.32 0,221.9 -180.54,402.32 -402.32,402.32z"/>
    </g>
    <g>
     <g>
      <path class="fil0" d="M5229.29 2081.14c-12.97,-30.44 -17.41,-59.14 -18.91,-91.86 -4.98,-109.57 -175.91,-110.17 -170.93,0 2.94,64.72 16.93,118.76 42.27,178.14 43.11,100.81 190.32,13.81 147.58,-86.28z"/>
     </g>
    </g>
    <g>
     <g>
      <path class="fil0" d="M5341.68 1782.5c33.5,-11.89 59.56,-18.37 95.58,-20.11 109.45,-5.34 110.11,-176.33 0,-170.93 -49.11,2.4 -94.68,9.79 -141.03,26.24 -102.91,36.5 -58.6,201.73 45.45,164.81z"/>
     </g>
    </g>
   </g>
  </g>
 </g>
</svg>
