<?xml version="1.0" encoding="UTF-8"?>
<!DOCTYPE svg PUBLIC "-//W3C//DTD SVG 1.1//EN" "http://www.w3.org/Graphics/SVG/1.1/DTD/svg11.dtd">
<!-- Creator: CorelDRAW 2021 (64-Bit) -->
<svg xmlns="http://www.w3.org/2000/svg" xml:space="preserve" width="42.8677mm" height="17.0447mm" version="1.1" style="shape-rendering:geometricPrecision; text-rendering:geometricPrecision; image-rendering:optimizeQuality; fill-rule:evenodd; clip-rule:evenodd"
viewBox="0 0 95670.54 38039.73"
 xmlns:xlink="http://www.w3.org/1999/xlink"
 xmlns:xodm="http://www.corel.com/coreldraw/odm/2003">
 <defs>
  <style type="text/css">
   <![CDATA[
    .fil0 {fill:#003A4E;fill-rule:nonzero}
    .fil2 {fill:#85C2BD;fill-rule:nonzero}
    .fil1 {fill:#E8C094;fill-rule:nonzero}
   ]]>
  </style>
 </defs>
 <g id="Layer_x0020_1">
  <metadata id="CorelCorpID_0Corel-Layer"/>
  <g id="_2384893749488">
   <g>
    <g>
     <g>
      <path class="fil0" d="M95316.8 21561.95c-1061.2,201.08 -1946.99,329.63 -2783.23,450.82 -804.1,116.5 -1564.02,226.75 -2387.54,389.22l-389.22 78.78c-149.53,29.46 -298.16,58.92 -443.23,91.95 -1454.89,264.24 -2939.23,534.06 -4252.85,1218.99 -929.75,470.9 -1816.43,1079.28 -2672.98,1667.8 -501.92,345.03 -1003.18,689.39 -1513.58,1008.76 -60.48,36.82 -115.61,72.53 -178.99,99.09 -716.84,447.02 -1476.09,869.27 -2257.2,1257.6 -648.1,323.16 -1321.65,646.32 -1981.81,956.53 -913.24,429.61 -1722.92,936.22 -2405.84,1505.32 -173.41,148.64 -331.42,283.66 -478.27,429.61 -447.02,437.87 -841.6,905.87 -1259.38,1400.65 -293.7,348.82 -587.4,697.65 -898.51,1033.75 -357.97,386.32 -656.36,670.87 -967.47,923.28 -347.93,286.34 -733.58,560.84 -1175.92,837.13 -2017.51,1243.76 -4507.04,2011.26 -7836.39,2416.11 -346.82,35.71 -3500.97,499.25 -4706.12,701.22 -255.09,40.39 -508.4,-30.35 -699.43,-192.82 -188.14,-160.69 -295.49,-393.68 -295.49,-641.63 0,-1443.73 995.81,-2817.15 2537.96,-3497.17 836.24,-368.24 1715.56,-525.13 2565.63,-676.45 710.37,-126.76 1381.46,-246.16 2022.2,-478.27 624.22,-227.64 1231.71,-627.13 1825.58,-1062.99 -637.84,143.06 -1373.2,297.27 -1870.66,359.76l-1150.03 158.01c-852.76,115.61 -1703.73,231.21 -2549.12,358.87 -915.25,116.5 -1626.51,80.79 -2376.6,-451.71 -725.99,-527.81 -1271.21,-1151.14 -1670.47,-1906.59 -65.17,-129.22 -105.56,-178.99 -128.55,-199.07 -30.35,-19.19 -289.24,77 -427.83,129.44 -3090.55,1354.9 -5941.62,1122.58 -8019.84,-658.15 -57.8,-52.45 -185.46,-168.05 -253.31,-182.78 -67.85,-15.62 -207.55,17.63 -290.13,36.82 -1133.51,257.1 -2246.94,194.61 -3324.66,133.01 -341.46,-19.19 -682.92,-38.39 -1026.16,-47.76l-1535.68 -66.06c-982.2,-43.97 -1963.5,-87.04 -2934.54,-119.18 -982.2,-48.65 -1957.03,-86.37 -2931.87,-123.19l-1576.07 -62.27c-271.83,0 -542.54,-146.85 -705.91,-393.01 -157.12,-235.9 -184.57,-529.6 -80.79,-778.22 254.2,-590.3 615.07,-1098.03 1073.03,-1512.91 214.7,-225.63 501.25,-456.17 879.31,-701.22 1694.58,-1039.11 3718.56,-1308.93 5093.55,-1421.86 670.2,-56.91 1416.28,-77 2280.19,-63.38l441.44 18.52c689.39,33.03 1187.74,56.91 1752.38,-284.55 347.93,-214.03 705.91,-428.72 1055.62,-638.95l397.48 -238.58c2413.21,-1469.62 4906.31,-2887.01 7316.61,-4257.31l1999.21 -1138.42c932.65,-522.23 1857.05,-1043.57 2778.54,-1565.8 -1707.3,10.04 -3078.72,210.23 -4570.2,657.25 -2405.84,716.84 -4586.94,612.17 -6667.84,-318.7 -431.4,-183.45 -1286.83,-683.81 -1709.08,-1367.62 -270.04,-475.37 -309.32,-916.14 -130.33,-1326.34 421.13,-997.82 1995.42,-1250.23 3036.31,-1417.39l1068.57 -199.07c345.03,-65.17 687.61,-130.33 1020.81,-199.3 5086.19,-1010.54 9226.78,-2323.27 13034.39,-4131.44l633.37 -297.49c1203.37,-569.1 2448.02,-1157.39 3758.73,-1567.81 284.55,-99.09 608.6,-189.03 919.93,-267.14 206.44,-51.33 426.71,-101.77 635.16,-141.27 1845,-362.66 3825.02,-437.87 6049.86,-228.53 1068.57,100.88 2189.36,276.29 3524.85,551.69 260.67,48.65 527.81,99.98 795.85,163.37 647.21,133.01 1308.93,282.76 1957.93,432.29 926.18,207.55 1920.43,423.14 2953.07,573.79 1111.64,181.67 2133.12,280.76 3131.83,303.74l795.85 0c1308.93,0 2697.75,-45.08 4127.87,-135.02 180.77,-12.72 390.11,-12.72 599.45,-12.72 538.75,-12.05 1681.63,-79 2295.81,-135.91l86.15 936.22c-566.42,52.45 -1750.37,125.87 -2371.92,139.71 -197.29,0 -384.53,0 -547.9,10.94 -1452.21,90.83 -2860.23,136.81 -4189.47,136.81l-806.78 0c-1053.84,-23.88 -2117.72,-126.76 -3265.07,-314.9 -1057.41,-154.21 -2070.85,-374.49 -3017.12,-585.61 -644.53,-148.64 -1298.89,-296.6 -1953.46,-432.29 -266.25,-62.49 -520.45,-110.25 -774.64,-158.9 -1308.93,-269.82 -2396.69,-439.66 -3430.22,-536.96 -2134.23,-201.08 -4026.1,-130.33 -5783.84,214.7 -193.72,36.82 -395.69,83.69 -585.61,131.45 -283.66,70.52 -580.26,153.1 -852.76,247.73 -1262.29,394.8 -2423.47,943.59 -3651.61,1524.74l-634.27 298.39c-3877.24,1840.31 -8087.69,3175.8 -13248.19,4201.29 -335.21,69.63 -682.03,135.69 -1031.74,201.75l-1096.02 203.98c-628.91,100.88 -2100.31,336.77 -2321.48,861.01 -43.07,99.98 -66.06,227.64 75.21,475.37 236.79,383.64 837.13,797.63 1276.79,985.77 1874.46,838.25 3841.53,928.19 6022.64,278.3 1792.55,-536.07 3488.02,-741.84 5668.01,-686.71 226.75,10.94 797.63,39.5 910.56,505.72 106.46,446.13 -349.72,717.07 -501.03,804.1 -1182.39,670.2 -2362.77,1337.5 -3554.31,2005.69l-1997.43 1137.31c-2404.05,1365.84 -4890.69,2779.44 -7294.52,4242.58l-400.38 241.48c-346.82,208.45 -702.11,422.25 -1050.04,636.05 -813.25,491.21 -1529.2,456.4 -2287.56,419.57l-415.78 -16.52c-827.09,-13.84 -1543.04,6.47 -2181.77,59.59 -2035.14,168.05 -3518.37,574.68 -4669.52,1280.59 -305.75,198.18 -539.64,384.53 -725.99,579.14 -351.73,319.59 -618.87,682.92 -815.26,1099.81l1486.13 33.92c977.74,37.49 1956.14,76.1 2933.65,123.86 967.47,32.14 1952.57,75.21 2937.45,119.4l1526.53 65.17c345.03,9.15 696.53,29.24 1047.37,49.55 1058.3,59.59 2057.91,116.5 3061.09,-111.14 215.81,-50.44 450.82,-95.52 704.12,-37.49 271.83,58.7 482.95,223.85 671.09,394.58 2282.87,1956.14 5082.39,1352.23 7027.6,498.35 387.21,-145.96 911.45,-341.46 1382.35,0 201.97,173.63 307.54,359.09 380.07,503.93 326.73,617.98 780.22,1134.63 1383.25,1573.39 504.82,357.97 969.25,377.39 1699.93,284.55 838.03,-126.54 1693.46,-243.26 2550.9,-359.76l1152.93 -158.01c736.26,-92.62 2119.51,-419.35 2710.7,-557.94 213.8,-50.44 354.18,-81.68 379.85,-85.48 58.92,-8.26 145.96,-24.77 238.8,-42.18 499.25,-94.63 859.01,-162.47 1017.91,225.85l144.17 356.19 -350.61 247.73c-309.32,212.91 -627.13,456.17 -950.06,703.23 -845.39,646.1 -1720.24,1314.29 -2700.66,1670.47 -716.84,260.67 -1460.24,393.01 -2178.2,520.45 -832.45,148.86 -1619.14,288.34 -2351.61,611.5 -885.79,391 -1916.64,1282.15 -1974.44,2527.03 1243.76,-204.88 4272.04,-651.9 4653.67,-690.28 3181.6,-387.43 5549.95,-1112.53 7445.38,-2281.98 405.73,-252.41 758.13,-503.04 1076.6,-765.49 278.3,-225.85 546.34,-482.06 872.17,-834.46 301.96,-324.94 586.51,-662.83 871.06,-1000.5 413.1,-490.32 840.71,-996.93 1317.19,-1464.04 160.69,-159.79 335.88,-310.44 511.3,-460.86 770.18,-641.63 1647.71,-1191.54 2632.59,-1655.08 654.58,-308.43 1320.98,-627.79 1963.5,-947.16 769.07,-382.97 1515.37,-799.64 2219.49,-1239.3l138.59 -58.7c-27.45,0 0.89,-19.42 39.5,-38.61 457.07,-288.12 947.16,-625.12 1438.37,-962.78 881.99,-605.92 1795.45,-1232.83 2775.64,-1729.39 1434.8,-748.09 3061.31,-1043.8 4495.22,-1304.47 133.91,-30.35 291.02,-61.37 449.7,-92.62l380.07 -77.22c854.54,-168.94 1625.62,-280.76 2443.56,-398.37 823.3,-119.18 1696.14,-245.94 2742.61,-444.12l174.52 923.28z"/>
     </g>
     <g>
      <g>
       <path class="fil0" d="M46397.46 29027.2c4992.01,-2195.39 9984.24,-4390.99 14976.24,-6586.38 524.91,-230.76 70.97,-1000.5 -450.59,-771.07 -4992.23,2195.61 -9984.24,4390.99 -14976.47,6586.6 -524.69,230.76 -70.75,1000.28 450.82,770.85z"/>
      </g>
     </g>
     <g>
      <g>
       <path class="fil0" d="M64683.85 25577.34c-1790.54,618.87 -3578.85,1245.77 -5372.97,1854.15 -1716,581.6 -3684.42,1481.22 -5463.36,1788.09 -565.31,97.53 -325.61,958.1 237.46,861.01 1779.38,-306.87 3746.01,-1206.27 5463.13,-1788.09 1794.34,-607.93 3582.43,-1235.28 5373.19,-1854.15 539.86,-186.58 307.76,-1049.6 -237.46,-861.01z"/>
      </g>
     </g>
     <g>
      <g>
       <path class="fil0" d="M68759.5 29832.64c-1003.62,190.37 -2023.32,315.35 -3033.19,470.01 -566.2,86.59 -325.61,947.16 237.46,861.01 1009.87,-154.44 2029.57,-279.64 3033.19,-470.01 563.97,-106.9 325.17,-967.69 -237.46,-861.01z"/>
      </g>
     </g>
     <g>
      <path class="fil0" d="M43695.68 23446.45l-662.83 666.4c-3952.45,-3923.22 -6463.85,-3436.69 -7608.53,-2796.85l-110.25 73.42c-72.53,46.87 -138.59,89.94 -199.07,133.91 -79,56.02 -95.52,135.91 -98.2,178.99 -13.84,82.8 27.45,167.16 89.94,227.64l375.38 372.7c674.66,647.21 1831.16,1767.11 1925.79,1924.9l-805.89 482.95c-61.6,-64.27 -887.57,-883.11 -1776.26,-1735.87l-374.49 -371.81c-259.78,-246.83 -393.68,-592.98 -372.7,-966.58 25.89,-353.29 203.76,-673.77 489.43,-877.53 71.42,-51.33 148.64,-101.77 233,-156.89l133.24 -87.26c1407.13,-787.59 4371.13,-1426.32 8761.45,2931.87z"/>
     </g>
     <g>
      <g>
       <path class="fil0" d="M58078.28 16243.66c1140.65,-609.05 2281.31,-1217.87 3421.96,-1826.7 507.06,-270.71 56.46,-1041.79 -450.82,-771.07 -1140.65,608.82 -2281.08,1217.87 -3421.74,1826.7 -507.28,270.71 -56.69,1041.79 450.59,771.07z"/>
      </g>
     </g>
     <g>
      <g>
       <path class="fil0" d="M91866.72 7851.12c780,-19.64 1561.12,-68.96 2338.44,-137.03 567.98,-49.77 573.12,-943.14 0,-892.93 -777.32,68.07 -1558.44,117.39 -2338.44,136.81 -573.56,14.51 -575.79,907.43 0,893.15z"/>
      </g>
     </g>
     <g>
      <g>
       <path class="fil0" d="M95110.81 20669.92c-1718.9,318.47 -3457.89,511.3 -5174.57,840.48 -563.74,108.24 -325.17,969.03 237.46,861.01 1716.67,-329.19 3455.44,-522.01 5174.34,-840.48 564.41,-104.45 325.39,-965.24 -237.24,-861.01z"/>
      </g>
     </g>
    </g>
    <g>
     <g>
      <g>
       <path class="fil0" d="M42879.75 17163.37c-721.53,101.77 -933.55,121.18 -1349.32,159.57l-674.89 64.27c-15246.51,1541.26 -30951.2,-1530.1 -31230.17,-2269.03l879.31 -332.31 -439.66 166.27 198.18 -423.14c103.78,39.28 14068.14,3583.54 30498.82,1923.78l682.03 -66.06c401.94,-36.6 606.82,-56.02 1305.36,-154.21l130.33 930.87z"/>
      </g>
      <g>
       <path class="fil0" d="M19302.96 16138.1l-194.61 389 -60.7 502.15c-301.06,-35.71 -5330.34,-2950.17 -7343.39,-6306.96l806.11 -482.73c1911.95,3187.85 6745.73,5874.67 6792.59,5898.55z"/>
      </g>
      <g>
       <path class="fil0" d="M22602.85 16538.26l-283.66 333.2 -51.33 504.82c-598.56,-61.6 -5740.76,-5894.98 -6420.11,-7098.34l818.83 -462.64c990.46,1757.07 5630.51,6463.19 5936.27,6722.96z"/>
      </g>
      <g>
       <path class="fil0" d="M28403.2 17172.52l-727.11 596.55 -237.68 -302.85c-4687.82,-5982.91 -6029.78,-7385.57 -6411.63,-7689.32l583.83 -736.26c738.04,585.61 2947.49,3225.57 6567.63,7845.54l224.96 286.34z"/>
      </g>
      <g>
       <path class="fil0" d="M33434.26 16929.26l-207.33 323.16 7.14 564.41c-543.21,7.36 -3012.43,-2556.26 -4402.15,-6551.12l888.46 -308.43c1307.14,3757.84 3437.58,5794.77 3713.88,5971.97z"/>
      </g>
      <g>
       <path class="fil0" d="M34064.07 17798.53c-1270.54,182.56 -3743.34,2569.21 -4072.07,2922.72l-690.28 -638.95c27.67,-29.46 2864.02,-2960.21 4628.23,-3214.63l134.13 930.87z"/>
      </g>
      <g>
       <path class="fil0" d="M28567.46 16844.9l-176.31 923.28c-1937.62,-368.91 -4594.98,867.49 -5468.04,1274.11 -204.65,94.63 -339.45,149.53 -380.96,159.79l-220.27 -914.35 110.25 457.07 -142.39 -447.02c40.39,-15.4 121.18,-54.01 236.79,-108.24 940.91,-437.87 3804.93,-1769.79 6040.94,-1344.64z"/>
      </g>
      <g>
       <path class="fil0" d="M19074.43 16027.85l-242.37 908.77c-942.7,-252.41 -2770.29,-202.87 -6129.98,1464.93 -189.03,93.73 -227.64,112.93 -301.96,127.66l-91.73 -460.86 -170.73 -436.98 146.85 -71.42c3622.15,-1799.25 5691.89,-1825.81 6789.92,-1532.11z"/>
      </g>
      <g>
       <path class="fil1" d="M21134.57 27948.81c-91.73,-19.19 -37.05,-522.23 -32.58,-582.49 38.16,-507.28 179.88,-1027.95 394.58,-1515.14 479.16,-1087.98 1343.3,-2055.23 2274.61,-2857.33 2014.39,-1734.75 4465.09,-3143.66 7078.26,-3480.43 8.7,-1.12 123.19,-11.83 124.09,-15.18 -166.49,753.22 -413.55,1515.37 -720.86,2243.59 -427.16,1012.33 -1133.96,1924.9 -1901.91,2759.35 -1675.16,1820.23 -3756.5,3188.97 -6218.81,3463.03 -334.99,37.27 -679.35,51.11 -997.37,-15.4z"/>
       <path class="fil0" d="M31432.37 19599.56c-170.73,773.75 -422.25,1555.76 -746.3,2325.05 -390.11,924.4 -1021.7,1844.11 -1989.17,2895.04 -1964.4,2134.23 -4155.54,3349.43 -6512.73,3612.11 -469.79,51.33 -822.4,43.97 -1145.56,-22.99l-1.79 0c-490.99,-103.78 -442.34,-678.46 -404.84,-1059.19 42.18,-562.85 192.82,-1139.31 435.19,-1688.11 451.49,-1025.27 1258.49,-2042.51 2397.58,-3023.59 1647.71,-1420.07 4256.42,-3195.44 7325.09,-3590.91l165.15 421.13 -59.59 -432.29 59.59 432.29 477.37 131.45zm-9871.31 7924.32l0 0c189.92,5.58 376.28,-10.94 519.55,-26.56 2124.86,-236.79 4118.72,-1352.23 5924.21,-3314.61 892.26,-968.36 1468.72,-1801.93 1814.65,-2623.44 208.45,-493.89 384.53,-992.24 525.13,-1489.92 -2594.2,496.79 -4819.05,2034.25 -6266.79,3280.69 -1032.64,889.58 -1755.95,1794.56 -2150.53,2690.39 -200.19,452.6 -323.16,923.5 -356.19,1361.38 -4.69,45.97 -8.26,86.37 -10.04,122.08z"/>
      </g>
      <g>
       <path class="fil1" d="M13201.99 15657.6c-110.25,-91.06 -309.32,-74.99 -444.12,-85.92 -212.02,-17.18 -445.68,-44.64 -656.58,-8.03 -618.42,104.45 -1210.28,346.82 -1822.46,482.95 -1013.67,225.63 -2054.34,357.08 -3094.12,340.57 -1378.34,-22.09 -2765.38,-275.85 -4021.41,-854.1 -1056.29,-486.3 -2090.94,-1180.83 -2655.8,-2217.03 -79.67,-146.18 -24.33,-330.75 119.18,-416.22 671.09,-399.93 2621.43,-1425.87 4819.94,-1323.88 580.48,87.04 2488.64,-56.02 5319.63,2072.19 0,0 2304.3,1901.02 2435.75,2009.48z"/>
       <path class="fil0" d="M13501.72 15295.39l-598.56 725.1c33.92,27.67 61.6,34.82 61.6,34.82 -22.99,-5.36 -89.94,-8.26 -130.33,-9.15l-114.94 -6.47c-241.25,-20.09 -411.98,-35.71 -537.85,-13.61 -322.04,55.12 -640.74,151.31 -976.62,253.31 -273.61,82.58 -546.11,164.26 -823.3,226.75 -1121.68,248.62 -2199.4,366.23 -3204.59,350.61 -1554.87,-24.77 -2971.15,-326.73 -4210.44,-896.72 -1396.19,-642.52 -2335.09,-1433.91 -2872.06,-2418.78 -200.19,-370.03 -72.53,-829.77 292.81,-1046.47 760.81,-452.6 2780.33,-1495.28 5081.5,-1387.93 114.71,14.73 201.97,20.31 308.43,28.57 807.67,61.37 2700.43,204.65 5271.65,2137.81l2452.71 2022.2zm-12503 -2068.17l0 0c449.7,739.83 1224.57,1355.8 2360.76,1879.14 1119.9,514.87 2408.74,787.59 3832.38,810.35 931.76,14.73 1935.83,-95.3 2984.98,-328.52 254.42,-56.91 505.05,-133.01 755.45,-209.34 291.02,-87.26 589.41,-178.09 898.73,-242.37l-1364.05 -1125.25c-2334.2,-1755.06 -3973.65,-1878.92 -4761.24,-1938.73 -133.91,-10.04 -244.15,-19.19 -328.52,-32.14 -1882.72,-84.36 -3609.43,747.19 -4378.5,1186.85z"/>
      </g>
      <g>
       <path class="fil2" d="M6457.83 24295.19c-220.05,97.53 157.34,-1734.75 176.76,-1839.64 173.41,-933.1 471.35,-1889.63 1069.91,-2643.75 467.55,-589.41 1147.8,-1002.95 1795.45,-1369.41 1953.69,-1104.95 4217.81,-1961.5 6482.6,-2025.32 -1082.4,779.33 -2165.48,1586.34 -3004.85,2621.21 -649.22,800.09 -1136.41,1717.12 -1735.64,2554.92 -600.57,839.37 -1315.4,1546.17 -2270.82,1964.84 -792.05,347.04 -1715.33,383.42 -2513.41,737.15z"/>
       <path class="fil0" d="M17500.14 15903.99l-1242.87 894.04c-1086.87,782.9 -2126.87,1566.03 -2914.46,2537.07 -368.02,452.6 -680.24,942.7 -1009.65,1461.36 -230.32,360.65 -459.97,722.42 -709.7,1070.35 -730.46,1021.48 -1536.57,1716.45 -2464.54,2122.18 -433.19,189.03 -886.68,291.91 -1326.34,391 -423.14,94.63 -823.3,185.46 -1184.17,345.25l-261.56 115.61 -256.21 -181c-255.98,-203.76 -322.04,-445.01 32.14,-2239.57 235.9,-1266.75 616.86,-2199.4 1173.24,-2900.62 523.13,-658.15 1272.1,-1112.53 1933.15,-1486.13 2308.54,-1306.25 4625.33,-2027.78 6699.75,-2086.48l1531.21 -43.07zm-10595.52 7735.29l0 0c241.25,-68.96 483.62,-122.97 721.31,-176.31 415.11,-93.51 806.11,-181.67 1156.72,-334.99 778.44,-340.57 1438.37,-915.25 2077.32,-1808.4 238.58,-334.09 458.85,-680.91 680.02,-1027.95 329.63,-518.66 671.09,-1053.84 1072.14,-1549.51 503.04,-618.64 1085.08,-1158.28 1710.2,-1662.22 -1467.83,287.23 -3026.49,887.57 -4590.51,1772.47 -611.5,345.03 -1241.98,725.99 -1659.76,1251.13 -458.85,579.14 -778.22,1375.88 -975.73,2437.98 -99.09,505.72 -156.89,856.33 -191.71,1097.8z"/>
      </g>
      <g>
       <path class="fil2" d="M13984.23 21250.85c-16.52,-30.13 347.26,-355.97 372.48,-380.29 333.87,-321.37 687.16,-623.11 1055.4,-904.53 933.1,-712.38 1959.49,-1268.53 3086.08,-1609.55 1020.81,-309.1 2088.93,-494.34 3145.45,-634.49 502.37,-66.51 1012.77,-106.68 1519.83,-106.23 95.3,0 1333.26,89.27 1310.49,164.26 -197.29,647.21 -619.54,1270.1 -1041.12,1788.31 -695.42,854.54 -1583.44,1566.92 -2545.55,2101.87 -995.14,553.48 -2069.51,880.21 -3186.06,1076.38 -889.8,156.22 -1910.84,79.23 -2693.51,-399.49 -434.97,-266.03 -779.55,-651.9 -1023.49,-1096.24z"/>
       <path class="fil0" d="M24990.39 17683.82l-67.18 233.22c-184.34,605.7 -552.58,1243.76 -1126.15,1947.66 -703.23,865.7 -1631.2,1632.09 -2681.24,2215.92 -961,535.18 -2051.66,904.09 -3334.03,1128.16 -1117.89,197.29 -2218.6,29.24 -3018.91,-460.86 -486.52,-297.27 -898.73,-737.15 -1190.65,-1271.21l0 -0.89c-191.71,-349.72 64.27,-584.72 452.6,-938.23 345.25,-332.31 713.27,-648.1 1101.6,-945.37 1018.8,-777.55 2107.45,-1344.86 3235.61,-1685.43 1179.49,-357.97 2403.16,-542.32 3219.99,-650.78 556.38,-73.42 1088.65,-110.92 1582.54,-110.03 237.68,0 1440.16,16.52 1685.2,346.82l140.6 191.04zm-10415.64 3623.94l0 0c189.03,262.46 419.35,480.05 678.23,637.84 608.6,372.7 1470.51,495.67 2366.34,337.89 1177.7,-206.44 2171.95,-541.65 3039.44,-1023.49 947.16,-526.92 1780.72,-1214.3 2409.41,-1988.28 333.2,-409.31 582.94,-783.8 756.34,-1133.51 -274.51,-27.67 -577.36,-50.44 -665.51,-52.45 -447.91,-0.89 -938.01,34.15 -1453.1,101.99 -1247.33,165.15 -2223.95,361.55 -3071.35,618.64 -1020.59,308.43 -2009.26,824.19 -2937.22,1533 -359.76,274.28 -700.33,567.31 -1014.34,870.16 -26.56,24.77 -66.06,59.59 -108.24,98.2z"/>
      </g>
      <g>
       <path class="fil2" d="M15308.55 13962.8c-3.57,14.06 -513.53,-195.06 -539.64,-207.55 -278.52,-132.57 -551.47,-277.18 -823.3,-422.25 -699.43,-373.15 -1385.92,-773.98 -2066.61,-1180.16 -1249.12,-745.41 -2549.79,-1533.89 -3536.45,-2634.6 -492.1,-548.79 -834.23,-1173.24 -1182.39,-1816.65 -47.76,-88.38 -718.85,-1332.36 -627.13,-1366.73 954.52,-357.31 2262.34,-173.41 3171.33,199.74 1429.22,586.28 2330.85,1607.76 3224,2810.24 811.25,1092.45 1406.68,2394.68 1853.48,3671.03 99.31,283.66 564.64,801.43 526.7,946.94z"/>
       <path class="fil0" d="M15781.69 13941.38c0,45.08 -5.36,91.95 -17.41,139.49l-56.02 215.81 -203.76 93.51c-106.46,48.65 -268.93,124.09 -945.37,-214.7 -277.18,-131.23 -556.38,-278.97 -834.46,-427.83 -705.91,-376.28 -1398.87,-781.12 -2086.48,-1190.42 -1215.19,-727.11 -2592.19,-1549.51 -3644.92,-2725.43 -539.86,-601.24 -915.25,-1295.09 -1245.77,-1906.37 -778.22,-1435.69 -733.36,-1551.3 -661.72,-1746.8l74.32 -200.19 205.55 -83.47c1167.66,-436.09 2624.33,-162.47 3517.48,204.65 1620.26,665.51 2616.07,1878.92 3422.19,2964.9 742.51,1000.5 1388.6,2277.29 1920.21,3796.45 24.77,70.75 145.06,247.06 224.96,364.45 187.24,275.4 331.19,487.42 331.19,715.95zm-925.29 101.99l0 0 -7705.83 -7386.47c108.24,224.74 259.78,519.55 423.14,820.62 321.37,593.87 653.68,1207.83 1119.01,1726.49 958.32,1070.35 2269.93,1854.15 3427.54,2546.44 673.77,401.05 1353.79,798.52 2046.97,1167.44 33.03,18.3 66.95,35.93 99.98,54.23 -485.63,-1341.07 -1062.99,-2466.54 -1716.45,-3347.64 -932.65,-1255.81 -1764.43,-2137.81 -3024.71,-2654.68 -639.62,-263.35 -1587.9,-443.23 -2375.49,-312.89l7705.83 7386.47z"/>
      </g>
      <g>
       <path class="fil2" d="M20132.29 14532.35c0,0 -4187.46,-2036.71 -5686.31,-6221.49 0,0 -987.78,-2398.25 -725.77,-3873.89 33.03,-186.58 234.34,-288.79 395.02,-187.24 517.1,326.51 1538.35,1006.53 1644.14,1099.81 795.62,700.55 969.92,1612 1303.35,2566.75 163.14,467.33 325.39,934.89 495.67,1399.76 374.49,1023.04 770.63,2040.95 1228.36,3030.29 212.46,459.07 437.43,914.8 699.88,1347.76 146.4,241.92 146.4,241.92 645.65,838.25z"/>
       <path class="fil0" d="M21904.31 15916.71l-1977.12 -961.89c-178.09,-86.37 -4377.6,-2169.94 -5923.54,-6485.06 -34.82,-82.58 -1027.95,-2523.45 -746.08,-4114.25 43.07,-246.83 204.65,-454.39 431.4,-554.37 219.38,-97.3 473.58,-77.89 677.34,52.45 399.26,250.4 1544.83,1003.18 1703.73,1143.56 754.56,663.73 1019.69,1486.13 1275.9,2281.98 51.33,158.9 103.78,319.59 159.79,482.06l61.37 176.09c142.39,406.63 284.55,813.25 432.29,1217.2 304.86,831.55 718.85,1924.9 1214.53,2994.36 170.73,369.8 401.05,850.75 674.66,1302.46 127.43,210.23 127.43,210.23 604.81,779.33l1410.92 1686.1zm-7758.28 -10933.18l0 0c0,1104.28 508.62,2598.66 734.25,3148.35 800.53,2231.54 2406.96,3834.17 3670.8,4815.47 -69.63,-144.17 -133.01,-280.09 -190.82,-403.95 -509.51,-1100.48 -931.76,-2216.81 -1243.76,-3065.77 -148.86,-408.41 -292.81,-819.73 -436.09,-1230.15l-61.6 -176.09c-59.59,-169.84 -113.82,-337.89 -166.94,-503.93 -237.68,-736.26 -443.45,-1371.42 -1002.51,-1865.31 -90.83,-72.53 -772.86,-531.38 -1299.78,-871.95 -2.68,50.44 -3.57,100.88 -3.57,153.32zm-281.87 -336.1l0 0c0.89,0.89 0.89,0.89 0.89,0.89 0,0 0,0 -0.89,-0.89z"/>
      </g>
      <g>
       <path class="fil1" d="M25672.64 14387.28c-742.28,-471.57 -1492.6,-931.09 -2249.39,-1379.68 -549.24,-325.61 -1132.84,-580.93 -1667.57,-936.67 -557.05,-370.47 -1077.5,-795.62 -1550.41,-1268.09 -628.91,-628.24 -1129.94,-1426.32 -1434.58,-2258.54 -175.19,-478.49 -285.89,-979.3 -329.63,-1486.58 -12.72,-149.53 -7.36,-1712.21 88.15,-1699.26 151.98,20.53 320.03,111.59 463.09,162.92 380.74,136.81 759.69,278.97 1135.97,427.38 1062.99,419.57 2173.07,886.9 2956.64,1762.42 820.4,916.58 1420.07,2096.74 1841.87,3241.86 406.18,1103.16 650.78,2263.68 745.86,3434.24z"/>
       <path class="fil0" d="M26216.74 15290.7l-796.74 -506.61c-737.15,-469.12 -1484.35,-926.18 -2236.23,-1371.42 -220.27,-131.23 -446.13,-249.73 -670.87,-368.91 -345.25,-181 -690.28,-363.55 -1018.13,-582.04 -580.04,-385.43 -1126.15,-831.55 -1621.82,-1326.34 -665.51,-665.51 -1213.41,-1528.31 -1543.93,-2429.72 -188.14,-514.2 -308.43,-1054.73 -356.19,-1607.32 -2.68,-16.52 -109.13,-1759.74 222.95,-2076.43l163.59 -155.11 232.1 26.78c167.16,21.87 320.48,86.15 444.34,138.59l115.61 46.64c384.53,138.59 768.4,282.76 1149.36,433.41 1177.48,464.43 2303.85,959.21 3133.62,1886.29 769.29,858.34 1420.07,1999.21 1933.15,3391.61 413.1,1122.8 672.88,2319.69 772.86,3559.66l76.33 940.91zm-7311.25 -8520.87l0 0c0,117.39 0.89,208.22 3.57,250.4 41.29,466.44 142.39,925.29 303.07,1362.27 283.43,775.54 754.34,1517.38 1325.44,2088.26 450.59,449.7 948.05,856.33 1477.87,1208.05 301.06,200.86 618.64,367.12 935.33,533.17 239.47,126.76 479.16,253.53 712.16,392.12 478.27,282.54 954.75,570.88 1428.33,863.69 -126.54,-813.25 -329.41,-1601.74 -605.7,-2352.72 -471.79,-1280.36 -1061.2,-2320.36 -1750.59,-3089.65 -693.86,-775.54 -1669.58,-1201.58 -2779.44,-1639.45 -343.25,-135.69 -689.39,-265.13 -1035.31,-391 -10.27,257.1 -14.73,560.84 -14.73,774.87z"/>
      </g>
      <g>
       <path class="fil1" d="M30651.48 14194.23c-48.21,-0.89 -98.87,-43.97 -167.38,-106.01 -1117.67,-1012.77 -2130.66,-2151.64 -2911.56,-3440.26 -1155.61,-1907.26 -1656.41,-4108.23 -1676.28,-6322.81 -9.15,-1031.3 9.15,-2101.65 360.21,-3084.3 76.1,-212.69 169.39,-533.84 328.96,-700.33 169.84,-177.2 508.62,28.79 718.4,132.79 813.7,403.5 1551.08,1076.6 2163.25,1737.2 859.68,927.74 1542.37,2019.3 1987.83,3201.91 94.85,251.3 188.81,500.14 265.36,758.13 727.33,2448.24 530.04,5237.5 -780.67,7459.22 -52.67,89.49 -107.35,177.87 -163.37,265.13 -45.97,71.42 -84.58,99.98 -124.76,99.31z"/>
       <path class="fil0" d="M32605.39 9232.58c0,1732.96 -428.72,3424.64 -1261.17,4835.56 -54.23,93.51 -112.93,187.24 -172.52,280.76 -170.73,266.25 -382.97,318.7 -531.61,314.9 -222.95,-4.46 -370.92,-137.7 -469.12,-224.96 -1252.02,-1133.51 -2260.78,-2325.94 -3000.61,-3547.61 -1119.9,-1847.9 -1722.92,-4116.93 -1744.12,-6562.28 -11.83,-1066.56 12.05,-2196.5 387.43,-3245.65l32.14 -91.95c85.48,-249.51 191.93,-558.83 401.05,-776.43 393.91,-410.42 938.23,-130.33 1199.8,3.57 806.78,401.27 1559.56,1002.51 2365.45,1872.67 902.3,974.83 1622.05,2134.9 2082.9,3355.01 99.98,265.13 196.4,523.13 276.29,789.37 290.8,981.31 434.08,1996.54 434.08,2997.03zm-2034.92 4296.59l0 0c1153.82,-2001 1415.38,-4620.64 699.43,-7024.7 -73.42,-245.05 -162.47,-482.95 -252.41,-722.42 -419.57,-1111.64 -1075.04,-2166.37 -1895.66,-3052.16 -725.99,-784.69 -1389.72,-1319.86 -2027.56,-1635.66 -86.37,-43.97 -170.73,-88.15 -236.79,-117.61 -46.87,100.21 -93.73,235 -123.19,320.48l-35.71 101.77c-323.16,905.2 -341.46,1904.81 -332.31,2921.82 20.31,2308.54 560.84,4355.51 1608.21,6084.01 647.21,1068.34 1520.05,2117.72 2595.99,3124.47z"/>
      </g>
     </g>
     <g>
      <g>
       <path class="fil0" d="M40809.12 17366.24c709.92,-70.75 1416.95,-138.82 2123.75,-237.46 566.64,-79 325.61,-939.57 -237.46,-861.01 -627.35,87.49 -1256.26,142.61 -1886.29,205.55 -566.64,56.69 -572.45,950.06 0,892.93z"/>
      </g>
     </g>
    </g>
    <g>
     <path class="fil2" d="M40230.87 12478.01c-19.64,-0.45 -40.17,-17.85 -68.07,-43.07 -454.16,-411.54 -865.7,-874.4 -1183.06,-1397.98 -469.56,-774.87 -673.1,-1669.36 -681.13,-2569.21 -3.79,-418.9 3.57,-853.87 146.4,-1253.13 30.8,-86.59 68.74,-217.15 133.68,-284.55 68.96,-72.09 206.44,11.61 291.69,53.79 330.75,164.03 630.25,437.43 879.09,705.91 349.27,376.94 626.9,820.62 807.9,1301.12 38.39,102.21 76.55,203.31 107.79,307.98 295.49,994.92 215.37,2128.21 -317.36,3031.18 -21.42,36.15 -43.52,72.09 -66.28,107.57 -18.75,29.01 -34.37,40.62 -50.66,40.39z"/>
     <path class="fil0" d="M41303.68 10460.72c0,753.67 -187.24,1491.49 -550.8,2107.45l-214.92 339.67 -318.47 40.39 -174.3 -8.26 -191.04 -150.64c-542.54,-490.99 -957.43,-983.09 -1276.79,-1508 -480.05,-794.06 -739.83,-1765.1 -748.98,-2808.9 0.89,-464.43 6.47,-946.27 174.3,-1416.28 47.76,-140.6 107.57,-316.69 235.9,-450.82 202.87,-211.12 477.37,-229.43 817.05,-55.12 355.3,176.31 686.49,440.77 1038.22,819.73 392.79,424.26 704.79,927.3 903.19,1456 45.97,119.18 86.15,228.53 119.4,342.35 125.65,422.25 187.24,860.12 187.24,1292.41zm-1185.07 1278.58l0 0c288.12,-692.07 327.62,-1527.42 95.3,-2306.75 -26.56,-92.62 -59.59,-178.09 -91.73,-264.24 -160.69,-426.94 -407.52,-824.41 -717.73,-1159.4 -199.3,-215.59 -383.64,-379.18 -557.27,-495.67 -77.89,308.43 -77.89,619.54 -78.78,950.95 8.26,874.85 220.27,1679.85 613.07,2329.74 196.4,324.05 440.55,636.05 737.15,945.37z"/>
    </g>
    <g>
     <path class="fil2" d="M29460.38 30273.86c13.84,13.84 16.52,40.62 18.75,78.11 38.83,610.39 11.38,1227.92 -126.54,1824.02 -203.98,882.22 -682.47,1665.56 -1305.13,2317.46 -290.13,303.52 -599.23,610.83 -980.64,798.75 -82.35,40.62 -200.86,108.24 -294.59,111.81 -99.98,3.79 -140.38,-151.54 -172.07,-241.03 -122.97,-347.04 -147.07,-750.99 -138.37,-1116.33 12.5,-512.86 122.97,-1023.71 328.52,-1494.39 43.74,-99.98 86.82,-199.07 137.7,-295.93 482.73,-919.49 1331.92,-1678.06 2344.91,-1957.26 40.84,-11.16 81.91,-21.65 122.97,-31.24 33.7,-8.03 53.12,-5.58 64.5,6.03z"/>
     <path class="fil0" d="M29965.43 30843.19c0,511.07 -52.22,994.92 -155.11,1439.26 -209.34,903.19 -701.22,1780.72 -1423.64,2536.18 -314.9,330.52 -659.93,672.88 -1112.53,894.94 -141.49,71.64 -301.96,153.32 -483.85,160.69 -294.59,10.04 -504.82,-168.94 -626.01,-534.28 -130.33,-370.92 -182.56,-793.17 -172.52,-1305.36 14.73,-582.71 138.59,-1145.56 368.02,-1670.47 53.34,-122.08 99.31,-224.96 151.54,-325.84 563.52,-1072.14 1549.51,-1891.87 2637.27,-2192.93l392.79 -97.3 380.07 322.04 26.56 258.88c11.83,174.52 17.41,346.15 17.41,514.2zm-2979.63 3954.24l0 0c278.3,-172.52 506.83,-402.83 720.64,-627.79 615.07,-643.42 1014.34,-1349.32 1187.74,-2099.2 84.58,-363.55 128.55,-761.03 131.23,-1187.07 -692.07,298.39 -1303.35,872.17 -1681.63,1591.69 -42.18,80.79 -78.78,165.37 -115.61,249.73 -185.46,423.14 -285.44,879.31 -296.38,1333.7 -6.47,290.13 10.04,534.28 54.01,738.94z"/>
    </g>
    <g>
     <path class="fil2" d="M44983.86 9834.26c-81.91,47.54 -181.22,-24.55 -157.79,-116.27 109.8,-430.51 244.6,-1033.53 281.65,-1310.94 74.09,-556.82 201.08,-1109.63 403.95,-1634.54 268.7,-695.64 657.7,-1352.23 1188.19,-1881.82 447.25,-446.58 997.15,-842.71 1634.54,-934.89 87.93,-12.72 169.84,51.11 186.58,137.92 79,414.66 240.14,1597.5 -223.18,2695.3 -152.88,278.52 -436.31,1273.89 -2054.11,2313.45l-1259.83 731.8z"/>
     <path class="fil0" d="M49083.83 5099.13c0,554.37 -78.78,1222.56 -352.4,1872.45l-75.21 158.01c-191.04,415.78 -637.17,1390.61 -2158.11,2368.12l-1277.68 741.84c-201.97,117.39 -452.6,103.55 -638.06,-35.93 -185.46,-138.59 -267.14,-374.49 -212.91,-599.45 107.35,-420.24 238.58,-1004.07 271.61,-1258.49 85.48,-635.16 230.54,-1220.77 431.62,-1743.01 314.68,-812.36 749.87,-1499.97 1295.09,-2044.29 615.07,-614.85 1254.7,-974.83 1900.12,-1067.45 335.88,-49.55 650.78,177.2 715.06,515.76 43.07,225.85 100.88,617.75 100.88,1092.45zm-682.03 -677.56l0 0 0.89 0 -0.89 0zm-2927.18 4583.37l0 0 533.39 -309.32c1271.21,-817.05 1623.61,-1587.23 1793.44,-1957.03 33.03,-72.53 60.7,-132.34 85.48,-176.31 309.32,-743.62 277.18,-1585.22 220.27,-2068.17 -349.72,120.29 -710.37,364.45 -1074.82,728.89 -451.71,451.71 -816.16,1029.96 -1082.18,1719.35 -175.42,452.38 -302.18,966.58 -376.5,1527.42 -18.3,132.12 -54.01,324.05 -99.09,535.18z"/>
    </g>
   </g>
  </g>
 </g>
</svg>
