<?xml version="1.0" encoding="utf-8"?>
<!-- Generator: Adobe Illustrator 26.0.2, SVG Export Plug-In . SVG Version: 6.00 Build 0)  -->
<svg version="1.1" id="Layer_1" xmlns="http://www.w3.org/2000/svg" xmlns:xlink="http://www.w3.org/1999/xlink" x="0px" y="0px"
	 viewBox="0 0 48 48" style="enable-background:new 0 0 48 48;" xml:space="preserve">
<style type="text/css">
	.st0{fill:#A38464;}
</style>
<g>
	<path class="st0" d="M24,0C10.7,0,0,10.7,0,24c0,13.3,10.7,24,24,24c13.3,0,24-10.7,24-24C48,10.7,37.3,0,24,0z M24.1,44.1
		C13,44.1,4,35.1,4,24S13,3.9,24.1,3.9c11.1,0,20.1,9,20.1,20.1S35.2,44.1,24.1,44.1z"/>
	<path class="st0" d="M34.4,12.8H13.6c-1.1,0-2,0.9-2,2v10.5v2.5v7.4l5.6-3.7l0,0l0,0l0.5-0.4c0.8-0.5,2.6-1.3,5.3-1.3h11.3
		c1.1,0,2-0.9,2-2v-13C36.4,13.7,35.5,12.8,34.4,12.8z M32.4,24.4c0,1.1-0.9,2-2,2h-2.3c0,0-0.1,0-0.1,0h-5.8
		c-2.7,0-4.7,1.3-4.7,1.3l-2.7,1.8v-4.3v-1.4v-6.1c0-0.6,0.5-1.2,1.2-1.2h10.5H28h2.4c1.1,0,2,0.9,2,2L32.4,24.4L32.4,24.4z"/>
</g>
</svg>
