<?xml version="1.0" encoding="utf-8"?>
<!-- Generator: Adobe Illustrator 26.0.0, SVG Export Plug-In . SVG Version: 6.00 Build 0)  -->
<svg version="1.1" id="Layer_1" xmlns:xodm="http://www.corel.com/coreldraw/odm/2003"
	 xmlns="http://www.w3.org/2000/svg" xmlns:xlink="http://www.w3.org/1999/xlink" x="0px" y="0px" viewBox="0 0 255.1 93.8"
	 style="enable-background:new 0 0 255.1 93.8;" xml:space="preserve">
<style type="text/css">
	.st0{fill:#E8C094;}
	.st1{fill:#003A4E;}
	.st2{fill:#85C2BD;}
	.st3{fill-rule:evenodd;clip-rule:evenodd;fill:#003A4E;}
	.st4{fill:none;}
</style>
<g id="_0">
	<g id="_2225047822128">
		<g>
			<g>
				<g>
					<path class="st0" d="M25.6,56.6c-2.6,0-4.8,2.2-4.8,4.8V80h9.7V61.4C30.3,58.8,28.2,56.6,25.6,56.6L25.6,56.6z"/>
				</g>
				<g>
					<path class="st1" d="M59.2,2.7H40V80h19.4V66.3c0-5.3,4.3-9.7,9.7-9.7c5.4,0,9.7,4.3,9.7,9.7V80h19.4V41.4
						C98,20,80.7,2.7,59.2,2.7L59.2,2.7z"/>
				</g>
				<g>
					<g>
						<path class="st1" d="M40,2.7C18.8,2.7,1.5,20,1.5,41.2V80h9.7V61.1c-0.1-10.8,8.7-19.6,19.5-19.6H40V2.7L40,2.7z M20.7,28.9
							L20.7,28.9c0-2.6,2.2-4.8,4.8-4.8s4.8,2.2,4.8,4.8H20.7L20.7,28.9z"/>
					</g>
				</g>
				<g>
					<path class="st2" d="M59.5,22.1c0,10.8-8.7,19.5-19.5,19.5V2.6h1.5C51.5,3.5,59.5,11.8,59.5,22.1z"/>
				</g>
			</g>
			<g>
				<g>
					<g>
						<path class="st1" d="M125.3,23.7c3.2,0,5.6,1,7.4,2.9c1.8,1.9,2.7,4.5,2.7,7.8v1.3h-14.5c0.3,3.2,2.4,4.8,6.2,4.8
							c2.5,0,4.9-0.8,7.4-2.4v4.9c-2.2,1.4-4.9,2.2-8,2.2c-3.7,0-6.6-1-8.7-3.1c-2-2.1-3-4.6-3-7.8c0-3.1,1-5.6,3-7.7
							C119.7,24.7,122.3,23.7,125.3,23.7L125.3,23.7z M125.6,28.1L125.6,28.1c-1.1,0-2.1,0.3-2.9,1c-0.8,0.7-1.3,1.6-1.6,2.7h8.7
							C129.3,29.3,127.9,28.1,125.6,28.1L125.6,28.1z"/>
						<polygon class="st1" points="153.9,44.7 149,35.2 143.9,44.7 137.5,44.7 143.5,34.3 137.9,24.4 144.1,24.4 149,33.3 
							153.7,24.4 160,24.4 154.4,34.3 160.3,44.7 						"/>
						<path class="st1" d="M169.2,43.1L169.2,43.1l-0.1,11.5h-6V24.3h4.8l0.8,2.7h0.2c0.8-1,1.9-1.9,3.1-2.4c1.3-0.5,2.6-0.9,4-0.9
							c3.2,0,5.7,1,7.6,2.9c1.9,1.9,2.7,4.5,2.7,7.7s-1,5.8-3,7.8c-1.9,2-4.4,3.1-7.5,3.1C173.1,45.2,170.9,44.4,169.2,43.1
							L169.2,43.1L169.2,43.1z M174.8,40.3L174.8,40.3c1.5,0,2.9-0.5,3.8-1.6s1.4-2.5,1.4-4.2c0-1.8-0.4-3.2-1.4-4.2
							c-0.9-1-2.2-1.5-3.8-1.5c-1.5,0-2.7,0.5-3.8,1.6c-1,1.1-1.5,2.5-1.5,4.2s0.4,3.1,1.4,4.2C171.9,39.8,173.2,40.3,174.8,40.3
							L174.8,40.3z"/>
						<path class="st1" d="M200.8,23.7c3.4,0,6.2,1,8.2,3.1c2.1,2,3.1,4.6,3.1,7.7c0,3.1-1.1,5.7-3.2,7.7c-2.1,2-4.8,3.1-8.2,3.1
							c-3.5,0-6.3-1-8.4-3c-2.1-2-3.1-4.6-3.1-7.7s1.1-5.6,3.2-7.7C194.7,24.7,197.5,23.7,200.8,23.7L200.8,23.7z M200.9,28.7
							L200.9,28.7c-1.5,0-2.9,0.5-3.8,1.6s-1.5,2.4-1.5,4.1c0,1.8,0.4,3.2,1.4,4.3c1,1.1,2.2,1.6,3.8,1.6c1.6,0,3-0.5,3.8-1.6
							s1.4-2.5,1.4-4.2c0-1.6-0.5-3-1.5-4.1C203.7,29.2,202.4,28.7,200.9,28.7L200.9,28.7z"/>
					</g>
				</g>
				<g>
					<path class="st1" d="M118.1,50.6v14.3h0.1c1.6-2.2,4-3.3,7.1-3.3c2.9,0,5.2,1,6.9,2.9c1.8,2,2.6,4.4,2.6,7.3s-1,5.3-2.9,7.3
						c-1.9,2-4.3,2.9-7.1,2.9c-1.5,0-3-0.3-4.3-0.9c-1.3-0.5-2.2-1.4-2.9-2.5h-0.1l-0.7,2.9h-2.2V50.4L118.1,50.6L118.1,50.6z
						 M118.1,71.8L118.1,71.8c0,2.2,0.7,4,1.9,5.3c1.2,1.3,2.9,2,4.8,2c2.1,0,3.7-0.7,4.9-2.1c1.3-1.4,1.9-3.2,1.9-5.2
						c0-2.1-0.7-3.8-1.9-5.3s-2.9-2.1-4.9-2.1c-2,0-3.6,0.7-4.8,2.1C118.7,67.9,118.1,69.7,118.1,71.8z"/>
					<path class="st1" d="M153.2,81.3l-0.4-2.5h-0.1c-1.5,2-4,3-7.1,3c-2.4,0-4.1-0.5-5.2-1.6c-1.1-1.1-1.6-2.4-1.6-3.8
						c0-2.1,0.8-3.7,2.3-4.9c1.5-1.2,3.7-1.8,6.6-1.8h4.6v-0.7c0-3.2-1.8-4.7-5.3-4.7c-2,0-4.1,0.7-6.2,1.9v-2.7
						c2-1.1,4.2-1.6,6.6-1.6c2.7,0,4.8,0.7,6.2,2c1.3,1.3,2,3.2,2,5.8v12L153.2,81.3L153.2,81.3z M141.9,75.8L141.9,75.8
						c0,1.1,0.4,1.9,1.3,2.5s2,0.9,3.3,0.9c1.8,0,3.2-0.5,4.2-1.8c1-1.2,1.5-2.5,1.5-4.3v-1.3h-4.6
						C143.9,71.9,141.9,73.2,141.9,75.8L141.9,75.8z"/>
					<polygon class="st1" points="160.5,62.1 175.5,62.1 175.5,62.5 164.2,78.8 175.4,78.8 175.4,81.3 159.2,81.3 159.2,80.8 
						170.8,64.6 160.5,64.6 					"/>
					<path class="st1" d="M192.9,81.3l-0.4-2.5h-0.1c-1.5,2-4,3-7.1,3c-2.4,0-4.1-0.5-5.2-1.6c-1.1-1.1-1.6-2.4-1.6-3.8
						c0-2.1,0.8-3.7,2.3-4.9c1.5-1.2,3.7-1.8,6.6-1.8h4.6v-0.7c0-3.2-1.8-4.7-5.3-4.7c-2,0-4.1,0.7-6.2,1.9v-2.7
						c2-1.1,4.2-1.6,6.6-1.6c2.7,0,4.8,0.7,6.2,2c1.3,1.3,2,3.2,2,5.8v12L192.9,81.3L192.9,81.3z M181.6,75.8L181.6,75.8
						c0,1.1,0.4,1.9,1.3,2.5s2,0.9,3.3,0.9c1.8,0,3.2-0.5,4.2-1.8c1-1.2,1.5-2.5,1.5-4.3v-1.3h-4.6
						C183.6,71.9,181.6,73.2,181.6,75.8L181.6,75.8z"/>
					<path class="st1" d="M214.5,81.3l-0.4-2.5H214c-1.5,2-4,3-7.1,3c-2.4,0-4.1-0.5-5.2-1.6c-1.1-1.1-1.6-2.4-1.6-3.8
						c0-2.1,0.8-3.7,2.3-4.9c1.5-1.2,3.7-1.8,6.6-1.8h4.6v-0.7c0-3.2-1.8-4.7-5.3-4.7c-2,0-4.1,0.7-6.2,1.9v-2.7
						c2-1.1,4.2-1.6,6.6-1.6c2.7,0,4.8,0.7,6.2,2c1.3,1.3,2,3.2,2,5.8v12L214.5,81.3L214.5,81.3z M203.4,75.8L203.4,75.8
						c0,1.1,0.4,1.9,1.3,2.5s2,0.9,3.3,0.9c1.8,0,3.2-0.5,4.2-1.8c1-1.2,1.5-2.5,1.5-4.3v-1.3h-4.6
						C205.3,71.9,203.4,73.2,203.4,75.8L203.4,75.8z"/>
					<path class="st1" d="M231.8,64.6c-1.6,0-3,0.7-4,2.1c-1,1.4-1.5,3.2-1.5,5.4v9.2H223V62.1h2.3l0.5,3.4h0.1
						c1.3-2.6,3.4-3.8,6.3-3.8c0.7,0,1.2,0.1,1.6,0.2V65C233.2,64.7,232.6,64.6,231.8,64.6L231.8,64.6z"/>
				</g>
			</g>
			<path class="st3" d="M241.4,77.7c0.2,0,0.8,0,1,0.2c0.2,0,0.2,0,0.3,0s0.2,0,0.3,0.2c0.2,0,0.2,0,0.3,0.2c0.2,0,0.3,0.2,0.5,0.3
				s0.3,0.2,0.5,0.3l0,0c0.2,0.2,0.2,0.2,0.3,0.3c0,0,0,0,0.2,0.2s0.2,0.2,0.3,0.3v0.2l0,0l0.5,0.7c0,0.2,0.3,0.7,0.5,0.7l0,0
				c0.2,0.2,0.2,0.5,0.3,0.7l0,0l0,0l0,0V82c0,0,0,0,0,0.2l0.2,0.5c0,0.2,0.2,0.3,0.2,0.5c0,0.2,0,0.3,0,0.7c0,0.2,0,0.5-0.2,0.7
				c-0.2,0.3-0.2,0.7-0.3,0.8l-0.2,0.3l0,0l0,0l0,0l-0.7,1.7c0,0.2-0.2,0.3-0.2,0.5c-0.3,0.7-0.7,1.3-1,1.8l0,0l0,0l-0.2,0.5
				c-0.2,0.2-0.2,0.2-0.3,0.3l0,0l0,0c-0.7,0.5-1.3,0.8-2.3,0.8c-0.5,0-1.2-0.2-1.5-0.5h-0.2l0,0l0,0l0,0l-0.2-0.2
				c-0.2-0.2-0.3-0.2-0.3-0.3l-0.2-0.2l-0.2-0.2c-0.2-0.2-0.3-0.5-0.5-0.7l-0.2-0.2c0-0.2-0.2-0.3-0.2-0.5l0,0l0,0l0,0v-0.2
				c0-0.2,0-0.2,0-0.3c0-0.3-0.2-0.7-0.2-0.8c0-0.3-0.2-0.8-0.2-1.3c0-0.2,0-0.5,0-0.7c0-0.5,0-0.8,0-1.3c0-0.5,0.2-1.5,0.2-2
				c0-0.3,0.2-0.7,0.2-1l0,0l0,0v-0.2l0,0l0.2-0.3l0,0l0,0c0-0.2,0.2-0.3,0.2-0.3l0.5-0.8l0,0l0,0l0.2-0.2c0-0.2,0.2-0.2,0.3-0.3
				c0.3-0.3,0.5-0.5,1-0.7c0.2-0.2,0.3-0.2,0.5-0.2h0.2l0,0l0.3-0.2h0.2C241.3,77.7,241.4,77.7,241.4,77.7L241.4,77.7z M253.8,88.3
				c0,0.2-0.2,0.7-0.3,1.2l-0.2,0.3l0,0l-0.2,0.2c-0.3,0.3-0.7,0.5-1.2,0.7c-0.2,0-0.3,0-0.5,0s-0.2,0-0.3,0H251
				c-0.3-0.2-0.7-0.3-0.8-0.5l-0.3-0.5c0,0,0-0.2-0.2-0.2c-0.2-0.3-0.3-0.8-0.5-1.3c-0.2-0.3-0.2-1-0.2-1.3c0-0.2,0-0.3,0.2-0.5
				c0,0,0,0,0-0.2s0.2-0.3,0.2-0.5c0,0,0,0,0-0.2c0,0,0,0,0-0.2l0.3-1v-0.2l0.2-0.5c0,0,0,0,0-0.2c0,0,0,0,0-0.2v-0.2l0,0l0.2-0.7
				c0.2-0.3,0.2-0.5,0.3-0.8c0-0.2,0.2-0.5,0.2-0.7l0.2-0.3c0-0.2,0.2-0.5,0.2-0.7v-0.2c0.2-0.3,0.2-0.5,0.2-0.8l0.2-0.8
				c0,0,0,0,0-0.2c0.2-0.3,0.2-0.5,0.3-0.8v-0.2c0-0.2,0.2-0.2,0-0.2H249c-0.2,0-0.2,0-0.2,0s-0.2,0-0.2,0.2s-0.2,0.5-0.2,0.7v0.2
				c0,0.3-0.2,0.5-0.2,0.8s-0.2,0.5-0.2,0.8l-0.2,0.3c-0.2,0.3-0.5,1.8-0.7,2c0,0-0.2-0.2-0.2-0.3c-0.2-0.3-0.3-0.7-0.5-1.2
				l-0.3-0.5c-0.2-0.3-0.3-0.7-0.7-1l-0.5-0.7c0,0,0,0-0.2-0.2c-0.2-0.3-0.5-0.5-0.8-0.8c-0.2-0.2-0.3-0.2-0.5-0.3h-0.2
				c-0.2-0.2-0.5-0.2-0.7-0.3h-0.2c-0.5-0.2-1-0.2-1.7-0.2c-0.5,0-1.7,0.2-2.2,0.3h-0.2c-0.3,0-0.5,0.2-0.8,0.3l-0.7,0.3l-0.7,0.5
				c-0.2,0.2-0.3,0.3-0.5,0.5c-0.2,0.2-0.2,0.2-0.3,0.3c0,0,0,0-0.2,0.2l-0.3,0.3l-0.7,1c0,0.2-0.2,0.2-0.2,0.3
				c-0.2,0.3-0.3,0.5-0.3,0.8c0,0.2,0,0.2-0.2,0.3v0.2c-0.2,0.5-0.3,1.2-0.3,1.8c0,0.7,0,1.3,0,1.8c0,0.5,0.2,1,0.3,1.3
				c0.2,0.5,0.3,1,0.5,1.3c0.2,0.3,0.3,0.7,0.5,1l0.2,0.3l0,0l0.2,0.3c0.2,0.2,0.2,0.2,0.3,0.3l0.2,0.2c0.2,0.2,0.3,0.3,0.5,0.5
				c0,0,0,0,0.2,0.2l0.5,0.3h0.2c0.2,0.2,0.3,0.2,0.5,0.3s0.5,0.2,0.8,0.3c0.2,0,0.3,0.2,0.3,0.2l0,0h0.3l0,0c0.3,0,0.7,0.2,1,0.2
				c0.5,0,1.2,0,1.7,0c0.2,0,0.3,0,0.3,0c0.3,0,0.5,0,0.8-0.2h0.2c0.3,0,0.7-0.2,0.8-0.2c0.3-0.2,0.7-0.3,1-0.5l0.3-0.2h0.2
				c0.2-0.2,0.3-0.3,0.7-0.5c0.2-0.2,0.3-0.3,0.5-0.3c0.2-0.2,0.2-0.2,0.3-0.3l0,0c0.2-0.2,0.3-0.5,0.5-0.8l0.2-0.5l0,0l0.2-0.2
				c0,0,0-0.2,0.2-0.2c0,0.2,0,0.3,0,0.3c0,0.2,0,0.2,0.2,0.3c0,0.2,0.2,0.5,0.2,0.7c0.2,0.3,0.3,0.8,0.7,1.2l0.3,0.3
				c0,0,0,0,0.2,0.2l0.2,0.2c0.2,0,0.2,0.2,0.3,0.2c0.2,0.2,0.5,0.3,0.7,0.3l0,0h0.2l0,0c0.5,0.2,1,0.2,1.5,0c0,0,0,0,0.2,0
				c0.3-0.2,0.5-0.2,0.7-0.5c0.2-0.2,0.3-0.3,0.5-0.5l0.2-0.3c0.2-0.3,0.2-0.3,0.3-0.7c0.2-0.3,0.3-1,0.3-1.5c0-0.2,0.2-0.7,0-0.8
				l0,0h-0.2C254.2,88.3,254,88.3,253.8,88.3L253.8,88.3z"/>
		</g>
		<rect class="st4" width="255.1" height="93.8"/>
	</g>
</g>
</svg>
