<?xml version="1.0" encoding="utf-8"?>
<!-- Generator: Adobe Illustrator 26.0.1, SVG Export Plug-In . SVG Version: 6.00 Build 0)  -->
<svg version="1.1" id="Layer_1" xmlns="http://www.w3.org/2000/svg" xmlns:xlink="http://www.w3.org/1999/xlink" x="0px" y="0px"
	 viewBox="0 0 500 500" style="enable-background:new 0 0 500 500;" xml:space="preserve">
<style type="text/css">
	.st0{fill:#013A4E;}
</style>
<g>
	<g>
		<path class="st0" d="M483,488.9h-42.4c0-105.1-85.6-190.6-190.6-190.6S59.4,383.9,59.4,488.9H17c0-128.4,104.4-233,233-233
			S483,360.5,483,488.9z"/>
	</g>
	<g>
		<path class="st0" d="M250,298.5c-81.7,0-148.2-66.5-148.2-148.2S168.3,1.9,250,1.9s148.2,66.5,148.2,148.2S331.7,298.5,250,298.5z
			 M250,44.3c-58.3,0-105.8,47.5-105.8,105.8S191.7,255.9,250,255.9s105.8-47.5,105.8-105.8S308.3,44.3,250,44.3z"/>
	</g>
	<g>
		<polygon class="st0" points="292.4,277.3 207.6,277.3 228.8,340.7 271.2,340.7 		"/>
	</g>
	<g>
		<polygon class="st0" points="207.6,488.9 292.4,488.9 271.2,361.9 228.8,361.9 		"/>
	</g>
</g>
</svg>
