<?xml version="1.0" encoding="utf-8"?>
<!-- Generator: Adobe Illustrator 26.0.1, SVG Export Plug-In . SVG Version: 6.00 Build 0)  -->
<svg version="1.1" id="Layer_1" xmlns="http://www.w3.org/2000/svg" xmlns:xlink="http://www.w3.org/1999/xlink" x="0px" y="0px"
	 viewBox="0 0 32 32" style="enable-background:new 0 0 32 32;" xml:space="preserve">
<style type="text/css">
	.st0{fill:#013A4E;}
</style>
<g id="Layer_30">
	<path class="st0" d="M24.7,27.7H1.3c-0.6,0-1.1-0.5-1.1-1.1c0-0.2,0-0.3,0.1-0.5c1.3-2.7,2-5.6,2-8.5v-3.8C2.3,8,7.1,3.2,13,3.2
		S23.7,8,23.7,13.9v3.8c0,3,0.7,5.9,2,8.5c0.3,0.5,0.1,1.2-0.4,1.4C25.1,27.7,24.9,27.7,24.7,27.7z M2.9,25.6h20.2
		c-1-2.5-1.5-5.2-1.5-8v-3.8c0-4.7-3.8-8.5-8.5-8.5s-8.5,3.8-8.5,8.5v3.8C4.5,20.4,3.9,23.1,2.9,25.6z"/>
	<path class="st0" d="M13,32c-2.9,0-5.3-2.4-5.3-5.3c0-0.6,0.5-1.1,1.1-1.1c0.6,0,1.1,0.5,1.1,1.1c0,0.8,0.3,1.7,0.9,2.3
		c1.3,1.2,3.3,1.2,4.5,0c0.4-0.4,1.1-0.4,1.5,0c0.4,0.4,0.4,1.1,0,1.5C15.8,31.4,14.4,32,13,32z"/>
	<path class="st0" d="M13,5.3c-0.6,0-1.1-0.5-1.1-1.1V1.1C11.9,0.5,12.4,0,13,0c0.6,0,1.1,0.5,1.1,1.1v3.2C14.1,4.9,13.6,5.3,13,5.3
		z"/>
</g>
</svg>
