<?xml version="1.0" encoding="utf-8"?>
<!-- Generator: Adobe Illustrator 26.0.1, SVG Export Plug-In . SVG Version: 6.00 Build 0)  -->
<svg version="1.1" id="Layer_1" xmlns="http://www.w3.org/2000/svg" xmlns:xlink="http://www.w3.org/1999/xlink" x="0px" y="0px"
	 viewBox="0 0 23.8 16.9" style="enable-background:new 0 0 23.8 16.9;" xml:space="preserve">
<style type="text/css">
	.st0{fill:#013A4E;}
</style>
<g id="Camada_2">
	<g id="Camada_1-2">
		<path class="st0" d="M21.8,2.1L21.8,2.1l-0.1-0.1c0-1.1-0.9-1.9-1.9-1.9H1.9C0.9,0,0,0.9,0,1.9c0,0,0,0,0,0v10.9
			c0,1.1,0.9,1.9,1.9,1.9c0,0,0,0,0,0h0.2v0.1c0,1.1,0.9,2,2,2h17.8c1.1,0,2-0.9,2-2V4.1C23.8,3,22.9,2.1,21.8,2.1L21.8,2.1z M1,3.5
			h19.8v2.1H1V3.5z M1.9,1h17.9c0.5,0,0.9,0.4,0.9,0.9c0,0,0,0,0,0v0.5H1V1.9C1,1.4,1.4,1,1.9,1L1.9,1z M1,12.9V6.5h19.8v6.3
			c0,0.5-0.4,0.9-0.9,0.9l0,0H1.9C1.4,13.8,1,13.4,1,12.9C1,12.9,1,12.9,1,12.9z M22.8,14.9c0,0.6-0.4,1-1,1H4.1c-0.6,0-1-0.4-1-1
			v-0.1h16.7c1.1,0,1.9-0.9,1.9-1.9l0,0V3.1h0.1c0.6,0,1,0.4,1,1l0,0L22.8,14.9z"/>
		<path class="st0" d="M15.1,12.5c0.5,0,1-0.2,1.3-0.5c0.7,0.7,1.8,0.8,2.6,0.1c0.7-0.7,0.8-1.8,0.1-2.6c-0.7-0.7-1.8-0.8-2.6-0.1
			c0,0-0.1,0.1-0.1,0.1c-0.7-0.7-1.8-0.8-2.5-0.1s-0.8,1.8-0.1,2.5C14.1,12.3,14.6,12.5,15.1,12.5z M17.7,9.9c0.4,0,0.8,0.4,0.8,0.8
			c0,0.4-0.4,0.8-0.8,0.8c-0.4,0-0.8-0.4-0.8-0.8l0,0C16.9,10.3,17.3,9.9,17.7,9.9C17.7,9.9,17.7,9.9,17.7,9.9z M15.1,9.9
			c0.4,0,0.8,0.4,0.8,0.8s-0.4,0.8-0.8,0.8s-0.8-0.4-0.8-0.8C14.3,10.3,14.7,9.9,15.1,9.9C15.1,9.9,15.1,9.9,15.1,9.9z"/>
	</g>
</g>
</svg>
