<?xml version="1.0" encoding="utf-8"?>
<!-- Generator: Adobe Illustrator 26.0.1, SVG Export Plug-In . SVG Version: 6.00 Build 0)  -->
<svg version="1.1" id="Layer_1" xmlns="http://www.w3.org/2000/svg" xmlns:xlink="http://www.w3.org/1999/xlink" x="0px" y="0px"
	 viewBox="0 0 24 24" style="enable-background:new 0 0 24 24;" xml:space="preserve">
<style type="text/css">
	.st0{fill:#013A4E;}
</style>
<g id="package-return">
	<path class="st0" d="M20.7,0H3.3C1.5,0,0,1.5,0,3.3v17.3C0,22.5,1.5,24,3.3,24h9.3c0.4,0,0.7-0.3,0.7-0.7c0-0.4-0.3-0.7-0.7-0.7
		H3.3c-1.1,0-2-0.9-2-2V3.3c0-1.1,0.9-2,2-2H8v7.3C8,9,8.3,9.3,8.7,9.3h6.7C15.7,9.3,16,9,16,8.7V1.3h4.7c1.1,0,2,0.9,2,2V14
		c0,0.4,0.3,0.7,0.7,0.7c0.4,0,0.7-0.3,0.7-0.7V3.3C24,1.5,22.5,0,20.7,0z M14.7,8H9.3V1.3h5.3V8z"/>
	<path class="st0" d="M24,20.7c0,0.4-0.3,0.7-0.7,0.7h-5.1l0.9,0.9c0.3,0.3,0.3,0.7,0,0.9c-0.3,0.3-0.7,0.3-0.9,0c0,0,0,0,0,0l-2-2
		c-0.3-0.3-0.3-0.7,0-0.9l2-2c0.3-0.3,0.7-0.2,0.9,0c0.2,0.3,0.2,0.7,0,0.9L18.3,20h5.1C23.7,20,24,20.3,24,20.7z"/>
</g>
</svg>
