<?xml version="1.0" encoding="utf-8"?>
<!-- Generator: Adobe Illustrator 26.0.1, SVG Export Plug-In . SVG Version: 6.00 Build 0)  -->
<svg version="1.1" id="Layer_1" xmlns="http://www.w3.org/2000/svg" xmlns:xlink="http://www.w3.org/1999/xlink" x="0px" y="0px"
	 viewBox="0 0 32 26.4" style="enable-background:new 0 0 32 26.4;" xml:space="preserve">
<style type="text/css">
	.st0{fill:none;stroke:#013A4E;stroke-width:2;stroke-linecap:round;stroke-linejoin:round;}
</style>
<g id="_79-users">
	<circle class="st0" cx="16" cy="10.3" r="5"/>
	<path class="st0" d="M23,25.3c0-3.9-3.1-7-7-7s-7,3.1-7,7l0,0H23z"/>
	<path class="st0" d="M24,11.3c2.8,0,5-2.2,5-5s-2.2-5-5-5c-1.6,0-3.1,0.7-4,2"/>
	<path class="st0" d="M25,21.3h6c0-3.9-3.1-7-7-7"/>
	<path class="st0" d="M12,3.3c-1.7-2.2-4.8-2.7-7-1s-2.7,4.8-1,7c0.9,1.3,2.4,2,4,2"/>
	<path class="st0" d="M8,14.3c-3.9,0-7,3.1-7,7h6"/>
</g>
</svg>
