<?xml version="1.0" encoding="utf-8"?>
<!-- Generator: Adobe Illustrator 26.0.1, SVG Export Plug-In . SVG Version: 6.00 Build 0)  -->
<svg version="1.1" id="Layer_1" xmlns="http://www.w3.org/2000/svg" xmlns:xlink="http://www.w3.org/1999/xlink" x="0px" y="0px"
	 viewBox="0 0 32 32" style="enable-background:new 0 0 32 32;" xml:space="preserve">
<style type="text/css">
	.st0{fill:#013A4E;}
</style>
<g id="_30-User-Location">
	<path class="st0" d="M15,32H1c-0.6,0-1-0.4-1-1v-2c0-2.6,3.8-3.7,4.7-4l7.3-2.7v-1.4c-2.2-1.3-3.7-3.6-4-6.2c-0.6-0.4-1-1-1-1.8v-2
		c0-0.7,0.4-1.4,1-1.7V8c0-4.4,3.6-8,8-8s8,3.6,8,8v1.3c0.6,0.4,1,1,1,1.7v2h-2v-2c-0.6,0-1-0.4-1-1V8c0-3.3-2.7-6-6-6s-6,2.7-6,6v2
		c0,0.6-0.4,1-1,1v2c0.6,0,1,0.4,1,1c0,2.3,1.3,4.4,3.4,5.4c0.3,0.2,0.6,0.5,0.6,0.9V23c0,0.4-0.3,0.8-0.6,0.9l-8,3H5.2
		C3.9,27.3,2,28.2,2,29v1h13V32z"/>
	<path class="st0" d="M23,29c-0.3,0-0.5-0.1-0.7-0.3C18,24.5,18,21.1,18,21c0-2.8,2.2-5,5-5s5,2.2,5,5c0,0.1,0,3.5-4.3,7.7
		C23.5,28.9,23.3,29,23,29z M20,21c0,0.1,0.1,2.4,3,5.6c2.9-3.2,3-5.6,3-5.6c0-1.7-1.3-3-3-3S20,19.3,20,21z"/>
	<rect x="22" y="20" class="st0" width="2" height="2"/>
</g>
</svg>
