<?xml version="1.0" encoding="utf-8"?>
<!-- Generator: Adobe Illustrator 26.0.1, SVG Export Plug-In . SVG Version: 6.00 Build 0)  -->
<svg version="1.1" id="Layer_1" xmlns="http://www.w3.org/2000/svg" xmlns:xlink="http://www.w3.org/1999/xlink" x="0px" y="0px"
	 viewBox="0 0 32 32" style="enable-background:new 0 0 32 32;" xml:space="preserve">
<style type="text/css">
	.st0{fill:#013A4E;}
</style>
<g id="Layer_11">
	<path class="st0" d="M23.3,5.3L12.5,0.5c-0.3-0.1-0.7-0.1-1,0L0.7,5.3C0.3,5.5,0,5.9,0,6.4v10.3c0,3,1.3,5.8,3.5,7.7l7.7,6.9
		c0.5,0.4,1.1,0.4,1.6,0l7.7-6.9c2.2-2,3.5-4.8,3.5-7.7V6.4C24,5.9,23.7,5.5,23.3,5.3z M21.6,16.7c0,2.3-1,4.5-2.7,6L12,28.8
		l-6.9-6.1c-1.7-1.5-2.7-3.7-2.7-6V7.2L12,2.9l9.6,4.3V16.7z"/>
	<path class="st0" d="M8.4,13.6c0,1.5,1,2.9,2.4,3.4v2.6c0,0.7,0.5,1.2,1.2,1.2c0.7,0,1.2-0.5,1.2-1.2V17c1.9-0.7,2.9-2.7,2.2-4.6
		c-0.7-1.9-2.7-2.9-4.6-2.2C9.4,10.7,8.4,12.1,8.4,13.6z M13.2,13.6c0,0.7-0.5,1.2-1.2,1.2c-0.7,0-1.2-0.5-1.2-1.2s0.5-1.2,1.2-1.2
		C12.7,12.4,13.2,12.9,13.2,13.6z"/>
</g>
</svg>
