<?xml version="1.0" encoding="utf-8"?>
<!-- Generator: Adobe Illustrator 26.0.1, SVG Export Plug-In . SVG Version: 6.00 Build 0)  -->
<svg version="1.1" id="Layer_1" xmlns="http://www.w3.org/2000/svg" xmlns:xlink="http://www.w3.org/1999/xlink" x="0px" y="0px"
	 viewBox="0 0 32 32" style="enable-background:new 0 0 32 32;" xml:space="preserve">
<style type="text/css">
	.st0{fill:#013A4E;}
</style>
<g>
	<path class="st0" d="M15,30H3c-1.7,0-3-1.3-3-3V1c0-0.4,0.2-0.8,0.6-0.9C1-0.1,1.4,0,1.7,0.3l1.6,1.6c0.4,0.4,1,0.4,1.4,0
		c0,0,0,0,0,0l1.6-1.6c0.4-0.4,1-0.4,1.4,0c0,0,0,0,0,0l1.6,1.6c0.4,0.4,1,0.4,1.4,0c0,0,0,0,0,0l1.6-1.6c0.4-0.4,1-0.4,1.4,0
		c0,0,0,0,0,0l1.6,1.6c0.4,0.4,1,0.4,1.4,0c0,0,0,0,0,0l1.6-1.6c0.4-0.4,1-0.4,1.4,0c0,0,0,0,0,0l1.6,1.6c0.4,0.4,1,0.4,1.4,0
		c0,0,0,0,0,0l1.6-1.6C24.6,0,25-0.1,25.4,0.1C25.8,0.2,26,0.6,26,1v14c0,0.6-0.4,1-1,1s-1-0.4-1-1V3.4c-1.2,1-3,1-4.1-0.1L19,2.4
		l-0.9,0.9c-1.2,1.1-3.1,1.1-4.2,0L13,2.4l-0.9,0.9c-1.2,1.1-3.1,1.1-4.2,0L7,2.4L6.1,3.3C5,4.4,3.2,4.4,2,3.4V27c0,0.6,0.4,1,1,1
		h12c0.6,0,1,0.4,1,1S15.6,30,15,30z"/>
	<path class="st0" d="M15,25H6c-0.6,0-1-0.4-1-1s0.4-1,1-1h9c0.6,0,1,0.4,1,1S15.6,25,15,25z M15,21H6c-0.6,0-1-0.4-1-1s0.4-1,1-1h9
		c0.6,0,1,0.4,1,1S15.6,21,15,21z M17,17H6c-0.6,0-1-0.4-1-1c0-0.6,0.4-1,1-1h11c0.6,0,1,0.4,1,1C18,16.6,17.6,17,17,17z M20,13H6
		c-0.6,0-1-0.4-1-1s0.4-1,1-1h14c0.6,0,1,0.4,1,1S20.6,13,20,13z M20,9H6C5.4,9,5,8.6,5,8s0.4-1,1-1h14c0.6,0,1,0.4,1,1S20.6,9,20,9
		z M23,19h4v3c0,0.6-0.4,1-1,1h-2c-0.6,0-1-0.4-1-1V19z"/>
	<path class="st0" d="M29,32h-8c-1.7,0-3-1.3-3-3l0,0v-8c0-1.7,1.3-3,3-3h8c1.7,0,3,1.3,3,3v8C32,30.7,30.7,32,29,32L29,32z M21,20
		c-0.6,0-1,0.4-1,1v8c0,0.6,0.4,1,1,1h8c0.6,0,1-0.4,1-1v-8c0-0.6-0.4-1-1-1H21z"/>
	<path class="st0" d="M24,28h-1c-0.6,0-1-0.4-1-1s0.4-1,1-1h1c0.6,0,1,0.4,1,1S24.6,28,24,28z"/>
</g>
</svg>
