<?xml version="1.0" encoding="utf-8"?>
<!-- Generator: Adobe Illustrator 26.0.1, SVG Export Plug-In . SVG Version: 6.00 Build 0)  -->
<svg version="1.1" id="Layer_1" xmlns="http://www.w3.org/2000/svg" xmlns:xlink="http://www.w3.org/1999/xlink" x="0px" y="0px"
	 viewBox="0 0 64 64" style="enable-background:new 0 0 64 64;" xml:space="preserve">
<style type="text/css">
	.st0{fill:#013A4E;}
</style>
<g id="User">
	<path class="st0" d="M42.1,33.1c7.9-5.6,9.7-16.4,4.2-24.3S29.8-0.9,21.9,4.7S12.2,21.1,17.8,29c1.1,1.6,2.5,3,4.2,4.2
		C9.8,36.7,1.5,47.7,1.5,60.3c0,1.2,1,2.2,2.2,2.2h56.6c1.2,0,2.2-1,2.2-2.2C62.5,47.7,54.2,36.7,42.1,33.1z M18.9,18.9
		c0-7.2,5.9-13.1,13.1-13.1s13.1,5.9,13.1,13.1S39.2,32,32,32C24.8,32,18.9,26.1,18.9,18.9z M6,58.1c1.1-12.3,11.5-21.8,23.9-21.8
		h4.4c12.4,0,22.7,9.5,23.9,21.8H6z"/>
</g>
</svg>
