<?xml version="1.0" encoding="utf-8"?>
<!-- Generator: Adobe Illustrator 26.0.1, SVG Export Plug-In . SVG Version: 6.00 Build 0)  -->
<svg version="1.1" id="Layer_1" xmlns="http://www.w3.org/2000/svg" xmlns:xlink="http://www.w3.org/1999/xlink" x="0px" y="0px"
	 viewBox="0 0 64 64" style="enable-background:new 0 0 64 64;" xml:space="preserve">
<style type="text/css">
	.st0{fill:#013A4E;}
</style>
<g id="Guide">
</g>
<g id="search">
</g>
<g id="price_tag">
</g>
<g id="coupon">
</g>
<g id="credit_card">
</g>
<g id="shipping">
</g>
<g id="notification">
</g>
<g id="money">
</g>
<g id="discount">
</g>
<g id="wishlist">
	<g>
		<path class="st0" d="M52,0H14c-2,0-3.5,1.7-3.5,3.6v46.3c0,1.3,0.7,2.5,1.8,3.1l19,10.6c0.6,0.4,1.2,0.5,1.8,0.5s1.2-0.1,1.8-0.5
			l19-10.6c1.2-0.6,1.8-1.8,1.8-3.1V3.6C55.6,1.7,54.1,0,52,0z M52,48.9c0,0.5-0.2,0.8-0.6,1l0,0l-17.9,10c-0.4,0.2-0.8,0.2-1.1,0
			L14.6,50c-0.4-0.2-0.6-0.6-0.6-1V5.3c0-0.7,0.5-1.1,1.1-1.1h35.7c0.7,0,1.1,0.6,1.1,1.1V48.9z"/>
		<path class="st0" d="M38.7,7.4c-2.3,0-4.4,0.9-5.7,2.6c-1.4-1.7-3.4-2.6-5.7-2.6c-4,0-7.4,3.2-7.4,7c0,4.3,5.8,10.3,10.7,14.6
			c0.7,0.6,1.5,0.8,2.4,0.8c0.9,0,1.7-0.4,2.4-0.8c4-3.6,10.7-10.1,10.7-14.6C46.1,10.4,42.8,7.4,38.7,7.4z M33.9,27.2
			c-0.5,0.4-1.2,0.4-1.5,0c-6.2-5.5-9.9-10.2-9.9-12.8s2.3-4.6,5-4.6c2,0,3.9,1.2,4.6,3c0.2,0.5,0.6,0.7,1.1,0.7s0.9-0.2,1.1-0.7
			c0.7-1.8,2.6-3,4.6-3c2.7,0,5,2.1,5,4.6C43.7,17,40,21.7,33.9,27.2z"/>
		<path class="st0" d="M41.3,32.1H24.7c-2,0-3.6,1.5-3.6,3.6s1.5,3.6,3.6,3.6h16.6c2,0,3.6-1.5,3.6-3.6S43.4,32.1,41.3,32.1z
			 M41.3,36.8H24.7c-0.7,0-1.2-0.5-1.2-1.2s0.5-1.2,1.2-1.2h16.6c0.7,0,1.2,0.5,1.2,1.2S42.1,36.8,41.3,36.8z"/>
		<path class="st0" d="M41.3,41.6H24.7c-2,0-3.6,1.5-3.6,3.6c0,2,1.5,3.6,3.6,3.6h16.6c2,0,3.6-1.5,3.6-3.6S43.4,41.6,41.3,41.6z
			 M41.3,46.3H24.7c-0.7,0-1.2-0.5-1.2-1.2s0.5-1.2,1.2-1.2h16.6c0.7,0,1.2,0.5,1.2,1.2S42.1,46.3,41.3,46.3z"/>
	</g>
</g>
<g id="location">
</g>
<g id="shopping_bag_1_">
</g>
<g id="calculator">
</g>
<g id="mobile_ecommerce">
</g>
<g id="koin">
</g>
<g id="setting">
</g>
<g id="online_shop">
</g>
<g id="return">
</g>
<g id="box">
</g>
<g id="internet">
</g>
<g id="info">
</g>
<g id="gift">
</g>
<g id="basket_1_">
</g>
<g id="calender">
</g>
<g id="store">
</g>
<g id="wallet">
</g>
</svg>
