<?xml version="1.0" encoding="utf-8"?>
<!-- Generator: Adobe Illustrator 26.0.2, SVG Export Plug-In . SVG Version: 6.00 Build 0)  -->
<svg version="1.1" id="Layer_1" xmlns:xodm="http://www.corel.com/coreldraw/odm/2003"
	 xmlns="http://www.w3.org/2000/svg" xmlns:xlink="http://www.w3.org/1999/xlink" x="0px" y="0px" viewBox="0 0 30.2 29.9"
	 style="enable-background:new 0 0 30.2 29.9;" xml:space="preserve">
<style type="text/css">
	.st0{fill:#A38464;}
</style>
<g id="Layer_x0020_1">
	<g id="_2495154647392">
		<g>
			<g>
				<path class="st0" d="M10.2,6.9C9.2,7.1,8.4,7.5,7.7,8.1c-0.8,0.7-1.3,1.6-1.5,2.7c-0.1,0.5-0.1,1.5,0,2c0.2,0.9,0.6,1.7,1.2,2.4
					l0.2,0.3l-0.2,0.2c-0.9,1-0.5,2.6,0.9,3c0.1,0,0.2,0,0.3,0c0.1,0,0.1,0,0.2,0.3c0.1,0.7,0.6,1.3,1.3,1.5c0.1,0,0.3,0.1,0.3,0.1
					c0.1,0,0.1,0,0.2,0.3c0.1,0.4,0.2,0.7,0.5,1c0.4,0.4,0.8,0.5,1.3,0.5c0.5,0,0.9-0.2,1.3-0.5l0.2-0.2l0.6,0.6
					c0.4,0.4,0.7,0.7,0.8,0.7c1,0.5,2.2,0,2.5-1.1c0-0.1,0.1-0.2,0.1-0.3c0-0.1,0-0.1,0.2-0.1c0.8-0.1,1.4-0.7,1.5-1.4l0-0.2l0.2,0
					c1.1-0.2,1.7-1.4,1.2-2.4L21,17l1-0.9c1.2-1.2,1.4-1.3,1.6-1.7c0.3-0.5,0.6-1.1,0.7-1.7c0.1-0.4,0.1-1.4,0-1.8
					c-0.2-1-0.6-1.7-1.3-2.4c-0.7-0.7-1.4-1.1-2.4-1.3c-0.5-0.1-1.4-0.1-1.9,0c-0.6,0.1-1.2,0.4-1.7,0.7c-0.1,0.1-0.5,0.4-0.9,0.8
					l-0.6,0.6l-0.6-0.6c-0.7-0.7-1.1-1-1.6-1.2C12.5,7,12,6.9,11.2,6.8C10.6,6.8,10.5,6.8,10.2,6.9L10.2,6.9L10.2,6.9z M12,8
					c0.8,0.2,1.3,0.5,2.1,1.3l0.6,0.6L14,10.6c-1.3,1.3-1.3,1.3-1.4,1.5c-0.2,0.3-0.2,0.6-0.2,0.9c0,0.5,0.2,1,0.6,1.3
					c0.4,0.4,0.8,0.6,1.4,0.6c0.6,0,1-0.2,1.6-0.8l0.4-0.4l1.9,1.9c1.1,1.1,1.9,1.9,1.9,2c0.2,0.5-0.3,1-0.8,0.8
					c-0.1,0-0.4-0.3-0.7-0.6c-0.3-0.3-0.7-0.6-0.7-0.7c-0.4-0.2-0.9,0.2-0.7,0.7c0,0.1,0.3,0.4,0.6,0.7c0.6,0.7,0.7,0.7,0.7,1
					c0,0.2-0.2,0.4-0.4,0.5c-0.2,0.1-0.2,0.1-0.3,0.1c-0.2,0-0.4-0.1-0.9-0.7c-0.3-0.3-0.6-0.6-0.7-0.6c-0.2-0.1-0.5,0-0.6,0.2
					c-0.1,0.1-0.1,0.3-0.1,0.5c0,0.1,0.2,0.3,0.6,0.7c0.3,0.3,0.6,0.6,0.6,0.7c0,0.1,0.1,0.2,0.1,0.3c0,0.5-0.5,0.8-1,0.6
					c-0.1,0-0.4-0.3-0.7-0.7l-0.6-0.6l0.1-0.2c0.2-0.4,0.2-1-0.1-1.5c-0.1-0.3-0.5-0.6-0.7-0.7c-0.1-0.1-0.2-0.1-0.2-0.1
					c0,0,0-0.1,0.1-0.3c0.5-1-0.1-2.3-1.2-2.5c-0.2-0.1-0.7,0-0.9,0c-0.1,0-0.2,0-0.2,0c0,0-0.1-0.1-0.1-0.3c-0.3-0.7-1.1-1.1-1.8-1
					c-0.3,0-0.6,0.2-0.9,0.4l-0.2,0.2l-0.2-0.3c-0.4-0.4-0.7-1.1-0.9-1.7c-0.1-0.4-0.1-1.3,0-1.7C7.6,9.4,8.8,8.2,10.3,8
					C10.7,7.9,11.6,7.9,12,8L12,8L12,8z M20.6,8.2c1,0.3,1.9,1,2.3,2c0.5,1,0.5,2.1,0,3.2c-0.3,0.6-0.5,0.8-1.6,1.9l-1,1l-1.7-1.7
					c-1.1-1.1-1.7-1.7-1.8-1.7c-0.1-0.1-0.2-0.1-0.5-0.1c-0.4,0-0.5,0-1.1,0.6c-0.2,0.2-0.5,0.5-0.6,0.5c-0.2,0.1-0.5,0.1-0.7,0
					c-0.2-0.1-0.4-0.3-0.4-0.4c-0.1-0.2-0.1-0.5,0-0.7c0-0.1,0.6-0.6,1.8-1.8c0.9-0.9,1.8-1.7,1.9-1.8c0.4-0.4,1-0.7,1.5-0.8
					C19.3,8,20,8,20.6,8.2L20.6,8.2L20.6,8.2z M9.9,15.2c0.4,0.1,0.6,0.6,0.4,1c-0.1,0.2-1.2,1.3-1.3,1.3c-0.4,0.1-0.8,0-1-0.4
					C8,17,8,16.7,8.1,16.5c0.1-0.1,1-1.1,1.2-1.2c0.1-0.1,0.3-0.1,0.4-0.2C9.7,15.1,9.8,15.2,9.9,15.2L9.9,15.2L9.9,15.2z
					 M12.4,16.4c0.1,0,0.2,0.1,0.2,0.2c0.1,0.1,0.2,0.4,0.2,0.5c0,0,0,0.1,0,0.2c0,0.1-1.8,1.9-2,2c-0.3,0.1-0.6,0.1-0.8-0.2
					c-0.2-0.2-0.2-0.4-0.2-0.6c0-0.2,0.1-0.2,0.9-1.1c0.5-0.6,1-0.9,1-1C12,16.3,12.2,16.3,12.4,16.4L12.4,16.4L12.4,16.4z
					 M13.2,19.1c0.4,0.2,0.6,0.6,0.4,1c-0.1,0.2-0.8,0.9-1,1c-0.6,0.2-1.1-0.3-1-0.9c0.1-0.2,0.8-1,1-1.1C12.8,19,13,19,13.2,19.1
					L13.2,19.1L13.2,19.1z"/>
			</g>
		</g>
		<g>
			<path class="st0" d="M14.6,0c-0.2,0.1-0.3,0.3-0.3,0.5c0,0.2,0,0.3,0.2,0.4c0.2,0.2,0.2,0.2,0.9,0.2c0.7,0,0.7,0,0.8-0.2
				c0.3-0.3,0.2-0.7-0.2-0.9C15.8,0,14.7,0,14.6,0L14.6,0z"/>
			<path class="st0" d="M11.4,0.5c-0.6,0.2-0.7,0.2-0.8,0.5c-0.1,0.2-0.1,0.2,0,0.4c0.1,0.5,0.6,0.5,1.6,0.1c0.6-0.2,0.5-1-0.1-1.1
				C12,0.4,11.7,0.4,11.4,0.5L11.4,0.5L11.4,0.5z"/>
			<path class="st0" d="M18.3,0.4C17.9,0.5,17.8,1,18,1.3c0.1,0.2,1,0.4,1.3,0.4c0.3,0,0.6-0.3,0.6-0.5c0-0.4-0.2-0.5-0.9-0.7
				C18.4,0.3,18.5,0.3,18.3,0.4L18.3,0.4L18.3,0.4z"/>
			<path class="st0" d="M7.9,2C7.6,2.1,7.3,2.3,7.3,2.3C7.1,2.5,7.1,2.7,7.2,3C7.4,3.3,7.7,3.4,8.3,3C9,2.7,9.1,2.6,9.1,2.2
				c0-0.2,0-0.3-0.2-0.4C8.7,1.6,8.4,1.6,7.9,2L7.9,2z"/>
			<path class="st0" d="M21.6,1.8C21.4,2,21.4,2,21.4,2.2c0,0.3,0.1,0.4,0.8,0.8c0.5,0.3,0.5,0.3,0.7,0.2c0.3-0.1,0.4-0.3,0.4-0.5
				c0-0.3-0.2-0.4-0.7-0.8C22.1,1.6,21.9,1.6,21.6,1.8L21.6,1.8L21.6,1.8z"/>
			<path class="st0" d="M5.3,3.9C5.1,3.9,4.8,4.3,4.5,4.6C4.1,5,4.2,5.4,4.6,5.6c0.2,0.1,0.2,0.1,0.4,0C5.2,5.5,6,4.7,6,4.5
				C6.1,4.1,5.7,3.7,5.3,3.9L5.3,3.9L5.3,3.9z"/>
			<path class="st0" d="M24.6,4c-0.1,0.1-0.2,0.2-0.2,0.3c0,0.3,0,0.4,0.4,0.8c0.6,0.6,0.9,0.7,1.2,0.4c0.2-0.1,0.2-0.2,0.2-0.4
				c0-0.2,0-0.3-0.2-0.5C25.3,3.8,25,3.7,24.6,4L24.6,4L24.6,4z"/>
			<path class="st0" d="M2.9,6.8C2.7,6.8,2.6,7,2.4,7.4C2.2,7.7,2,8,2,8c0,0.2,0.2,0.5,0.3,0.5c0.1,0.1,0.4,0.1,0.6,0
				c0.2-0.1,0.8-1.1,0.8-1.3c0-0.2-0.1-0.4-0.4-0.5C3.1,6.6,3.1,6.6,2.9,6.8L2.9,6.8z"/>
			<path class="st0" d="M27,6.9c-0.3,0.3-0.3,0.5,0.1,1.1c0.3,0.5,0.5,0.7,0.7,0.7c0.2,0,0.5-0.2,0.5-0.3c0.1-0.3,0.1-0.4-0.2-1
				c-0.3-0.6-0.4-0.6-0.7-0.7C27.2,6.7,27.2,6.7,27,6.9L27,6.9z"/>
			<path class="st0" d="M1.3,10.1c-0.3,0.1-0.3,0.2-0.5,0.8c-0.2,0.7-0.2,0.8,0,1c0.1,0.2,0.2,0.2,0.4,0.2c0.3,0,0.5-0.2,0.7-0.8
				c0.2-0.7,0.2-0.8,0-1C1.7,10.1,1.5,10,1.3,10.1L1.3,10.1L1.3,10.1z"/>
			<path class="st0" d="M28.6,10.2c-0.2,0.2-0.2,0.4-0.1,0.9c0.2,0.7,0.2,0.8,0.4,0.9c0.4,0.2,0.9,0,0.9-0.4c0-0.2-0.1-0.6-0.3-1.1
				C29.3,10.1,28.8,9.9,28.6,10.2z"/>
			<path class="st0" d="M0.7,13.8c-0.3,0.1-0.3,0.3-0.4,0.9c0,0.7,0,0.9,0.3,1c0.2,0.1,0.4,0.1,0.6,0c0.2-0.1,0.3-0.3,0.3-1
				c0-0.5,0-0.6-0.1-0.7C1.2,13.7,0.9,13.7,0.7,13.8L0.7,13.8z"/>
			<path class="st0" d="M29.2,13.9L29,14.1v1c0,1,0,1,0.1,1.2c0.1,0.1,0.2,0.2,0.4,0.2c0.3,0,0.5-0.1,0.6-0.4c0.1-0.3,0.1-1.7,0-1.9
				C29.9,13.7,29.5,13.6,29.2,13.9L29.2,13.9z"/>
			<path class="st0" d="M0.8,17.6c-0.2,0.2-0.2,0.2-0.1,0.5c0,0.2,0.1,0.5,0.2,0.7c0.1,0.4,0.3,0.6,0.6,0.6C1.7,19.5,2,19.3,2,19
				c0-0.2-0.2-1.2-0.3-1.4C1.5,17.4,1.1,17.4,0.8,17.6L0.8,17.6L0.8,17.6z"/>
			<path class="st0" d="M28.8,18.1c-0.2,0.1-0.3,0.2-0.5,1c-0.1,0.4-0.1,0.5,0,0.7c0.2,0.4,0.6,0.4,0.9,0.2c0.2-0.2,0.5-1.2,0.4-1.4
				C29.6,18.1,29.2,17.9,28.8,18.1C28.8,18.1,28.8,18.1,28.8,18.1z"/>
			<path class="st0" d="M2.2,21c-0.4,0.2-0.4,0.5-0.1,1.1c0.3,0.7,0.5,0.8,0.8,0.8c0.2,0,0.3,0,0.4-0.2c0.1-0.1,0.2-0.3,0.2-0.4
				c0-0.2-0.5-1.2-0.7-1.3C2.6,20.9,2.4,20.9,2.2,21L2.2,21z"/>
			<path class="st0" d="M27.5,21.5c-0.2,0.1-0.8,1.1-0.8,1.3c0,0.2,0.3,0.6,0.5,0.6c0.3,0,0.4-0.1,0.8-0.7c0.4-0.7,0.4-1.1,0-1.2
				C27.7,21.4,27.7,21.4,27.5,21.5L27.5,21.5L27.5,21.5z"/>
			<path class="st0" d="M4.3,24.1C4.1,24.2,4,24.3,4,24.6c0,0.2,0.1,0.3,0.5,0.7c0.3,0.3,0.5,0.5,0.6,0.5c0.4,0.1,0.8-0.3,0.7-0.7
				c0-0.1-0.2-0.4-0.5-0.6C4.8,24,4.6,23.9,4.3,24.1L4.3,24.1L4.3,24.1z"/>
			<path class="st0" d="M25.1,24.6c-0.1,0.1-0.3,0.3-0.6,0.5c-0.3,0.3-0.4,0.4-0.4,0.6c0,0.2,0,0.3,0.2,0.4c0.3,0.3,0.6,0.2,1.1-0.3
				c0.6-0.6,0.7-0.9,0.3-1.2C25.6,24.4,25.4,24.4,25.1,24.6C25.1,24.6,25.1,24.6,25.1,24.6z"/>
			<path class="st0" d="M7.1,26.5c-0.1,0.1-0.2,0.2-0.2,0.3c-0.1,0.3,0,0.5,0.6,0.9c0.6,0.4,0.9,0.4,1.1,0.1
				c0.3-0.4,0.2-0.7-0.5-1.1C7.6,26.4,7.3,26.3,7.1,26.5z"/>
			<path class="st0" d="M21.8,27c-0.6,0.3-0.7,0.4-0.7,0.7c0,0.3,0.2,0.5,0.4,0.6c0.2,0,0.3,0,0.7-0.2c0.6-0.3,0.8-0.5,0.8-0.8
				c0-0.3-0.1-0.4-0.3-0.5C22.5,26.7,22.4,26.7,21.8,27L21.8,27L21.8,27z"/>
			<path class="st0" d="M10.5,28.1c-0.4,0.2-0.4,0.9,0.1,1.1c0.9,0.3,1.2,0.3,1.5,0.1c0.2-0.2,0.2-0.5,0-0.8
				c-0.1-0.1-0.3-0.2-0.7-0.3C10.8,28,10.7,28,10.5,28.1L10.5,28.1L10.5,28.1z"/>
			<path class="st0" d="M18.4,28.3c-0.7,0.2-0.7,0.2-0.8,0.4c-0.1,0.2-0.1,0.5,0.1,0.7c0.2,0.2,0.4,0.2,1,0.1
				c0.7-0.2,0.9-0.3,0.9-0.7c0-0.3-0.2-0.5-0.5-0.6C19,28.2,18.7,28.2,18.4,28.3L18.4,28.3L18.4,28.3z"/>
			<path class="st0" d="M14.1,28.9c-0.3,0.3-0.2,0.8,0.2,0.9c0.3,0.1,1.2,0.1,1.4,0c0.1,0,0.2-0.2,0.3-0.3c0.1-0.2,0.1-0.2,0-0.4
				c-0.1-0.3-0.3-0.4-1-0.4C14.2,28.7,14.2,28.7,14.1,28.9L14.1,28.9z"/>
		</g>
	</g>
</g>
</svg>
