<?xml version="1.0" encoding="utf-8"?>
<!-- Generator: Adobe Illustrator 26.0.2, SVG Export Plug-In . SVG Version: 6.00 Build 0)  -->
<svg version="1.1" id="Layer_1" xmlns:xodm="http://www.corel.com/coreldraw/odm/2003"
	 xmlns="http://www.w3.org/2000/svg" xmlns:xlink="http://www.w3.org/1999/xlink" x="0px" y="0px" viewBox="0 0 30.4 30.1"
	 style="enable-background:new 0 0 30.4 30.1;" xml:space="preserve">
<style type="text/css">
	.st0{fill:#A38464;}
</style>
<g id="Layer_x0020_1">
	<g id="_2495154639712">
		<g>
			<path class="st0" d="M14.6,0.2c-0.2,0.1-0.3,0.3-0.3,0.5s0,0.3,0.2,0.4c0.2,0.2,0.2,0.2,0.9,0.2s0.7,0,0.8-0.2
				c0.3-0.3,0.2-0.7-0.2-0.9C15.8,0.2,14.7,0.2,14.6,0.2L14.6,0.2z"/>
			<path class="st0" d="M11.4,0.7c-0.6,0.2-0.7,0.2-0.8,0.5c-0.1,0.2-0.1,0.2,0,0.4c0.1,0.5,0.6,0.5,1.6,0.1c0.6-0.2,0.5-1-0.1-1.1
				C12,0.6,11.7,0.6,11.4,0.7L11.4,0.7L11.4,0.7z"/>
			<path class="st0" d="M18.3,0.6c-0.3,0.1-0.5,0.6-0.2,0.9c0.1,0.2,1,0.4,1.3,0.4S20,1.6,20,1.4c0-0.4-0.2-0.5-0.9-0.7
				S18.5,0.5,18.3,0.6L18.3,0.6L18.3,0.6z"/>
			<path class="st0" d="M7.9,2.2C7.6,2.3,7.3,2.5,7.3,2.5C7.1,2.7,7.1,2.9,7.2,3.2c0.2,0.3,0.5,0.4,1.1,0C9,2.8,9,2.8,9,2.4
				C9,2.2,9,2.1,8.8,2C8.7,1.8,8.4,1.8,7.9,2.2L7.9,2.2z"/>
			<path class="st0" d="M21.6,2c-0.2,0.2-0.2,0.2-0.2,0.4c0,0.3,0.1,0.4,0.8,0.8c0.5,0.3,0.5,0.3,0.7,0.2c0.3,0,0.4-0.2,0.4-0.5
				s-0.2-0.4-0.7-0.8C22.1,1.8,21.8,1.8,21.6,2L21.6,2L21.6,2z"/>
			<path class="st0" d="M5.3,4.1c-0.2,0-0.5,0.4-0.8,0.7c-0.4,0.4-0.3,0.8,0.1,1c0.2,0.1,0.2,0.1,0.4,0c0.2-0.1,1-0.9,1.1-1.1
				C6.1,4.3,5.7,3.9,5.3,4.1L5.3,4.1L5.3,4.1z"/>
			<path class="st0" d="M24.6,4.2c-0.1,0.1-0.2,0.2-0.2,0.3c0,0.3,0,0.4,0.4,0.8C25.4,5.9,25.7,6,26,5.7c0.2-0.1,0.2-0.2,0.2-0.4
				c0-0.2,0-0.3-0.2-0.5C25.3,4,25,3.9,24.6,4.2L24.6,4.2L24.6,4.2z"/>
			<path class="st0" d="M10.2,4.6C8.8,5.5,7.4,6.8,6.5,8.3c-0.7,1-1.4,2.6-1.7,3.9c-0.4,1.7-0.4,3.6,0,5.3c0.7,3.1,2.5,5.8,5.2,7.6
				c0.6,0.4,0.7,0.4,1.5,0.6c1.5,0.3,3,0.3,4.6,0c0.6-0.1,0.8-0.3,0.8-0.6c0-0.5-0.3-0.7-1-0.5c-0.5,0.1-1.5,0.2-2.1,0.2
				c-0.5,0-1.7-0.1-1.7-0.2c0,0,1.2-1.3,2.8-2.8l2.8-2.8h2.9c2.7,0,2.9,0,2.9,0.1c-0.1,0.2-0.7,1.1-1,1.6c-0.3,0.4-0.7,0.8-1.7,1.7
				c-0.3,0.3-0.3,0.5-0.1,0.8c0.3,0.4,0.6,0.3,1.3-0.4c1.7-1.5,3.1-3.8,3.6-6c0.3-1,0.3-1.6,0.4-2.7c0-1.2,0-2-0.3-3.1
				c-0.2-0.7-0.3-0.8-0.9-0.9C23,9.7,21.4,9.7,19.6,10c-0.7,0.1-1.9,0.5-2.6,0.8L16.5,11l-0.2-0.5c-0.9-2.4-2.7-4.6-4.9-5.9
				c-0.3-0.2-0.6-0.3-0.7-0.3C10.8,4.3,10.5,4.5,10.2,4.6L10.2,4.6L10.2,4.6z M11.4,6c1.7,1.3,3.2,3.1,3.9,5.1l0.2,0.5l-0.2,0.1
				c-1.7,1.2-2.7,2.3-3.6,3.7l-0.3,0.5v-3.2V9.5l-0.2-0.2c-0.1,0-0.2-0.1-0.3-0.1c-0.2,0-0.5,0.1-0.5,0.3c0,0.1-0.1,1-0.1,2.6
				c0,1.4,0,2.5,0,2.5s-0.9-0.8-1.9-1.9l-1.9-1.9l0.1-0.3c0.3-0.8,1-1.9,1.7-2.7c0.8-1,2.4-2.3,2.7-2.2C11,5.7,11.2,5.8,11.4,6
				L11.4,6L11.4,6z M23.9,11.1c0.3,0.1,0.6,0.1,0.6,0.2c0,0,0.1,0.3,0.2,0.6c0.1,0.7,0.2,2.8,0,3.5c-0.1,0.6-0.3,1.5-0.5,2l-0.1,0.4
				h-2.6h-2.6l1.6-1.6c1.5-1.6,1.6-1.6,1.6-1.8c0-0.4-0.4-0.7-0.8-0.5c-0.1,0-1.3,1.2-2.7,2.7l-2.8,2.6v-3.1V13l0.4-0.3
				c1.3-0.8,3-1.4,4.6-1.6C21.4,11,23.2,11,23.9,11.1L23.9,11.1L23.9,11.1z M10.3,17.7c0,1.2,0,1.5-0.1,2c-0.2,1.1-0.3,2.7-0.2,3.8
				v0.3l-0.2-0.1c-0.3-0.2-1.2-1.1-1.6-1.6c-1.3-1.6-2.2-3.7-2.5-5.8c-0.1-1.1,0-2.7,0.2-3.8L6,12.2l2.1,2.1l2.1,2.1L10.3,17.7
				L10.3,17.7L10.3,17.7z M12.9,22c-0.9,0.9-1.7,1.7-1.7,1.7s-0.1-0.4-0.1-0.9c-0.2-3.1,0.9-6.2,3-8.4l0.5-0.5v3.2v3.2L12.9,22
				L12.9,22L12.9,22z"/>
			<path class="st0" d="M2.9,7C2.7,7,2.6,7.2,2.4,7.6C2.2,7.9,2,8.2,2,8.2c0,0.2,0.2,0.5,0.3,0.5c0.1,0.1,0.4,0.1,0.6,0
				c0.2-0.1,0.8-1.1,0.8-1.3c0-0.2-0.2-0.4-0.4-0.5S3.1,6.8,2.9,7L2.9,7z"/>
			<path class="st0" d="M27,7.1c-0.3,0.3-0.3,0.5,0.1,1.1c0.3,0.5,0.5,0.7,0.7,0.7s0.5-0.2,0.5-0.3c0.1-0.3,0.1-0.4-0.2-1
				C27.8,7,27.7,7,27.4,6.9C27.2,6.9,27.2,6.9,27,7.1L27,7.1z"/>
			<path class="st0" d="M1.3,10.3C1,10.4,1,10.5,0.8,11.1c-0.2,0.7-0.2,0.8,0,1c0.1,0.2,0.2,0.2,0.4,0.2c0.3,0,0.5-0.2,0.7-0.8
				c0.2-0.7,0.2-0.8,0-1S1.5,10.2,1.3,10.3L1.3,10.3z"/>
			<path class="st0" d="M28.6,10.4c-0.2,0.2-0.2,0.4-0.1,0.9c0.2,0.7,0.2,0.8,0.4,0.9c0.4,0.2,0.9,0,0.9-0.4c0-0.2-0.1-0.6-0.3-1.1
				C29.3,10.3,28.8,10.1,28.6,10.4L28.6,10.4z"/>
			<path class="st0" d="M0.7,14c-0.3,0.1-0.4,0.2-0.4,0.9s0,0.9,0.3,1C0.8,16,1,16,1.2,15.9s0.3-0.3,0.3-1c0-0.5,0-0.6-0.1-0.7
				C1.2,13.9,0.9,13.9,0.7,14L0.7,14z"/>
			<path class="st0" d="M29.2,14.1L29,14.3v1c0,1,0,1,0.1,1.2c0.1,0.1,0.2,0.2,0.4,0.2c0.3,0,0.5-0.1,0.6-0.4s0.1-1.7,0-1.9
				C29.9,13.9,29.4,13.8,29.2,14.1L29.2,14.1z"/>
			<path class="st0" d="M0.8,17.8C0.6,18,0.6,18,0.7,18.3c0,0.2,0.1,0.5,0.2,0.7c0.1,0.4,0.3,0.6,0.6,0.6c0.2,0,0.5-0.2,0.6-0.4
				c0-0.2-0.2-1.2-0.3-1.4C1.5,17.6,1.1,17.6,0.8,17.8L0.8,17.8L0.8,17.8z"/>
			<path class="st0" d="M28.8,18.3c-0.2,0.1-0.3,0.2-0.5,1c-0.1,0.4-0.1,0.5,0,0.7c0.2,0.4,0.6,0.4,0.9,0.2c0.2-0.2,0.5-1.2,0.4-1.4
				C29.6,18.3,29.2,18.1,28.8,18.3L28.8,18.3z"/>
			<path class="st0" d="M2.2,21.2c-0.4,0.2-0.4,0.5-0.1,1.1c0.3,0.7,0.5,0.8,0.8,0.8c0.2,0,0.3,0,0.4-0.2c0.1-0.1,0.2-0.3,0.2-0.4
				c0-0.2-0.5-1.2-0.7-1.3C2.6,21.1,2.4,21.1,2.2,21.2L2.2,21.2L2.2,21.2z"/>
			<path class="st0" d="M27.4,21.7c-0.2,0.1-0.8,1.1-0.8,1.3c0,0.2,0.3,0.6,0.5,0.6c0.3,0,0.4-0.1,0.8-0.7c0.4-0.7,0.4-1.1,0-1.2
				C27.7,21.6,27.7,21.6,27.4,21.7L27.4,21.7z"/>
			<path class="st0" d="M18.6,23.7c-0.5,0.3-0.3,1.1,0.3,1.1c0.3,0,0.6-0.3,0.6-0.6C19.4,23.8,18.9,23.5,18.6,23.7L18.6,23.7z"/>
			<path class="st0" d="M4.3,24.3C4.1,24.4,4,24.6,4,24.8s0.1,0.3,0.5,0.7C4.8,25.8,5,26,5.1,26c0.4,0.1,0.8-0.3,0.7-0.7
				c0-0.1-0.2-0.4-0.5-0.6C4.8,24.2,4.6,24.1,4.3,24.3L4.3,24.3L4.3,24.3z"/>
			<path class="st0" d="M25.1,24.7c-0.1,0.1-0.3,0.3-0.6,0.5c-0.3,0.3-0.4,0.4-0.4,0.6s0,0.3,0.2,0.4c0.3,0.3,0.6,0.2,1.1-0.3
				c0.6-0.6,0.7-0.9,0.3-1.2C25.6,24.6,25.4,24.6,25.1,24.7L25.1,24.7L25.1,24.7z"/>
			<path class="st0" d="M7.1,26.7C7,26.8,6.9,26.9,6.9,27c-0.1,0.3,0,0.5,0.6,0.9s0.9,0.4,1.1,0.1c0.3-0.4,0.2-0.7-0.5-1.1
				C7.6,26.6,7.3,26.5,7.1,26.7z"/>
			<path class="st0" d="M21.8,27.2c-0.6,0.3-0.7,0.4-0.7,0.7c0,0.3,0.2,0.5,0.4,0.6c0.2,0,0.3,0,0.7-0.2c0.6-0.3,0.8-0.5,0.8-0.8
				s-0.1-0.4-0.3-0.5S22.4,26.9,21.8,27.2L21.8,27.2L21.8,27.2z"/>
			<path class="st0" d="M10.5,28.3c-0.4,0.2-0.4,0.9,0.1,1.1c0.9,0.3,1.2,0.3,1.5,0.1c0.2-0.2,0.2-0.5,0-0.8
				c-0.1-0.1-0.3-0.2-0.7-0.3C10.8,28.2,10.7,28.2,10.5,28.3L10.5,28.3z"/>
			<path class="st0" d="M18.4,28.5c-0.7,0.2-0.7,0.2-0.8,0.4c-0.1,0.2-0.1,0.5,0.1,0.7s0.4,0.2,1,0.1c0.7-0.2,0.9-0.3,0.9-0.7
				c0-0.3-0.2-0.5-0.5-0.6C19,28.4,18.7,28.4,18.4,28.5L18.4,28.5z"/>
			<path class="st0" d="M14.1,29.1c-0.3,0.3-0.2,0.8,0.2,0.9c0.3,0.1,1.2,0.1,1.4,0c0.1,0,0.2-0.2,0.3-0.3c0.1-0.2,0.1-0.2,0-0.4
				c-0.1-0.3-0.3-0.4-1-0.4C14.2,28.9,14.2,28.9,14.1,29.1z"/>
		</g>
	</g>
</g>
</svg>
